<svg transform="scale(1)" version="1.1" id="Layer_1" xmlns="http://www.w3.org/2000/svg" xmlns:xlink="http://www.w3.org/1999/xlink" x="0px" y="0px" viewBox="0 0 500 500" xml:space="preserve" class="show_show__wrapper__graphic__5Waiy "><title>React</title><style type="text/css">
	.st0{fill:#FFFFFF;}
	.st1{fill:#F4D161;}
	.st2{fill:#231F20;}
	.st3{fill:#5b80b5;}
</style><g id="Gears"><path class="st0" d="M319.5,189.6c0.4-1.5,0.7-3,1.1-4.5c0.2-0.8,0.4-1.6,0.7-2.3c0.3-1,1.2-1.7,2.2-1.6c1.2,0,2.4,0.2,3.6,0.3
		c0.6,0.1,1.3,0.1,1.9,0.1c0.5,0,0.9-0.2,1.3-0.5c1.2-1.4,2.4-2.9,3.6-4.3c0.4-0.6,0.5-1.3,0.2-1.9c-0.4-1.4-0.9-2.8-1.3-4.2
		c-0.2-0.5-0.3-1.1-0.3-1.7c0-0.4,0.2-0.8,0.5-1.1c2.1-1.6,4.3-2.9,6.8-3.8c0.7-0.3,1.6-0.1,2.1,0.6c1,1.2,2.1,2.3,3,3.5
		c0.7,0.9,1.8,1.4,2.9,1.2c1.5-0.2,3.1-0.4,4.7-0.6c0.6-0.1,1.1-0.5,1.3-1c0.5-0.9,0.9-1.8,1.4-2.6s0.8-1.5,1.2-2.2
		c0.4-0.8,1.3-1.2,2.1-0.9c2.2,0.6,4.5,1.1,6.7,1.8c0.9,0.3,1.4,1.1,1.4,2c0,1.2-0.2,2.4-0.3,3.6c0,0.6-0.1,1.1-0.1,1.7
		c0,0.7,0.3,1.5,0.9,1.9c1.2,1,2.5,1.9,3.7,3c0.7,0.6,1.7,0.8,2.6,0.5c1.5-0.5,3-1,4.5-1.4c1-0.4,2.2,0,2.7,1c1,1.8,2,3.6,3,5.4
		c0.7,1,0.5,2.4-0.4,3.1c0,0-0.1,0-0.1,0.1c-0.7,0.7-1.5,1.3-2.3,2c-0.5,0.5-1.1,1-1.6,1.5c-0.4,0.4-0.7,1.1-0.6,1.7
		c0.2,1.6,0.3,3.2,0.6,4.9c0.1,0.9,0.7,1.6,1.5,2c0.9,0.5,1.9,0.9,2.8,1.4c0.6,0.3,1.1,0.6,1.7,0.9c0.8,0.4,1.2,1.4,0.9,2.3
		c-0.6,2-1.1,4-1.7,6c-0.1,0.3-0.2,0.6-0.4,0.9c-0.3,0.7-1,1.1-1.8,1l-4.3-0.3c-0.1,0-0.2,0-0.3,0c-1.2-0.2-2.5,0.3-3.1,1.4
		c-0.7,1-1.5,1.9-2.3,2.9c-0.7,0.9-0.9,2.1-0.5,3.1c0.5,1.3,0.9,2.7,1.3,4s0.2,2.1-1.1,2.8c-1.8,1.1-3.7,2.1-5.6,3.1
		c-0.9,0.6-2,0.4-2.6-0.4c-0.8-0.9-1.6-1.8-2.4-2.8c-1.7-2-2.1-2.1-4.7-1.8l-3,0.4c-1,0.1-1.8,0.7-2.3,1.6c-0.5,1.1-1,2.2-1.6,3.2
		c-0.3,0.6-0.6,1.1-1,1.6c-0.4,0.5-1,0.7-1.6,0.6c-2.1-0.6-4.2-1.2-6.3-1.8c-0.3-0.1-0.6-0.2-0.8-0.4c-0.7-0.3-1.1-1-1-1.7
		c0.1-1.4,0.2-2.8,0.3-4.2c0-0.4,0-0.9,0-1.3c0-0.7-0.3-1.4-0.9-1.8c-1.2-0.9-2.4-1.9-3.6-2.8c-0.7-0.6-1.6-0.7-2.5-0.4
		c-1.3,0.4-2.7,0.9-4,1.3h-0.1c-1.8,0.5-2.4,0.3-3.3-1.3c-1-1.8-2-3.6-2.9-5.4c-0.6-0.8-0.4-2,0.4-2.6c0,0,0.1,0,0.1-0.1
		c1-0.9,2.1-1.8,3.1-2.7c1.1-0.8,1.6-2.1,1.4-3.4c-0.2-1.4-0.4-2.9-0.6-4.4c-0.1-0.6-0.4-1.2-1-1.4c-1.3-0.7-2.6-1.3-3.9-2
		c-0.9-0.3-1.6-1-2.1-1.8c0-0.2,0-0.4,0-0.5L319.5,189.6z M366.7,193.8c-0.6-7.6-7.4-13.3-15-12.7c-0.1,0-0.1,0-0.2,0
		c-7.5,0.9-13,7.5-12.5,15.1c0.7,7.6,7.3,13.2,14.9,12.6C362.9,208,367.6,199.9,366.7,193.8L366.7,193.8z"></path><path class="st1" d="M347.6,229c-0.2,0-0.4,0-0.6-0.1l-1.5-0.4l-4.9-1.4c-0.3-0.1-0.6-0.2-0.8-0.4c-1-0.4-1.6-1.4-1.5-2.5l0.1-1.9
		l0.2-2.4c0-0.4,0-0.8,0-1.2c0-0.5-0.2-1-0.6-1.3c-1.2-0.9-2.3-1.8-3.4-2.7l-0.2-0.1c-0.5-0.4-1.2-0.5-1.8-0.3
		c-0.9,0.3-1.9,0.6-2.8,0.9l-1.2,0.4l-0.2,0.1c-2.1,0.6-3,0.2-4.1-1.6s-2.1-3.9-2.9-5.4c-0.8-1.1-0.5-2.7,0.7-3.5
		c1.2-1.1,2.2-1.9,3.2-2.7c0.9-0.6,1.3-1.7,1.1-2.7c-0.1-0.9-0.3-1.8-0.4-2.7c-0.1-0.6-0.1-1.1-0.2-1.6c0-0.4-0.3-0.7-0.6-0.9
		l-1.5-0.8l-2.3-1.2c-1-0.4-1.9-1.2-2.4-2.2c0-0.1,0-0.1,0-0.2l0-0.5c0-0.1,0-0.2,0-0.2l0.3-1.2c0.3-1.1,0.5-2.2,0.8-3.4
		c0.2-0.8,0.5-1.6,0.7-2.4c0.3-1.3,1.5-2.2,2.9-2.1c0.8,0,1.6,0.1,2.4,0.2c0.4,0,0.8,0.1,1.2,0.1h0.5c0.4,0,0.9,0,1.3,0
		c0.3,0,0.6-0.1,0.8-0.3c1.3-1.5,2.5-3,3.6-4.3c0.2-0.4,0.3-0.9,0.1-1.3c-0.2-0.6-0.4-1.2-0.6-1.9c-0.2-0.8-0.5-1.6-0.7-2.3
		c-0.2-0.6-0.3-1.2-0.3-1.9c0-0.6,0.3-1.3,0.7-1.7c2.1-1.7,4.5-3,7-3.9c1-0.4,2.2-0.1,2.9,0.8c0.4,0.4,0.7,0.8,1.1,1.2
		c0.7,0.8,1.3,1.5,2,2.3c0.5,0.7,1.4,1.1,2.2,0.9c1-0.2,2-0.3,3-0.4l1.6-0.2c0.4-0.1,0.7-0.3,0.8-0.6c0.3-0.5,0.6-1.1,0.9-1.6
		l0.8-1.4c0.3-0.6,0.7-1.3,1-1.9c0.5-1,1.7-1.6,2.9-1.2c2.7,0.7,4.8,1.2,6.7,1.8c1.2,0.3,1.9,1.5,1.9,2.7c0,0.8-0.1,1.7-0.2,2.5
		c0,0.4-0.1,0.8-0.1,1.2s-0.1,1.1-0.1,1.7c0,0.5,0.2,1.1,0.6,1.4l0.9,0.7c1,0.8,1.9,1.5,2.8,2.3c0.5,0.5,1.3,0.6,1.9,0.4l2.2-0.7
		l2.3-0.7c1.3-0.5,2.9,0,3.5,1.3c1.1,1.8,2.1,3.6,3,5.4c0.9,1.3,0.6,3.1-0.7,4c-0.5,0.4-0.9,0.8-1.4,1.2l-0.9,0.8
		c-0.5,0.5-1.1,1-1.6,1.5c-0.3,0.3-0.4,0.7-0.4,1.1l0.1,0.9c0.1,1.3,0.3,2.6,0.5,3.9c0.1,0.7,0.5,1.2,1.1,1.5l1.2,0.6
		c0.5,0.3,1.1,0.5,1.6,0.8c0.6,0.3,1.2,0.6,1.8,1c1.1,0.6,1.6,1.8,1.2,3c-0.5,2-1.1,4-1.7,6c-0.1,0.3-0.2,0.6-0.4,0.9
		c-0.4,1-1.4,1.5-2.5,1.4l-4.3-0.3c-0.1,0-0.2,0-0.4,0c-1-0.2-2,0.3-2.5,1.1c-0.5,0.7-1.1,1.4-1.6,2.1c-0.2,0.3-0.5,0.6-0.7,0.9
		c-0.6,0.7-0.7,1.6-0.4,2.4c0.5,1.5,0.9,2.8,1.3,4.1c0.6,1.4,0,3-1.3,3.6c0,0,0,0-0.1,0c-1.7,1-3.5,2-5.6,3.1
		c-1.1,0.7-2.6,0.5-3.5-0.6c-0.7-0.7-1.3-1.5-2-2.2l-0.4-0.5c-1.5-1.8-1.7-1.9-4-1.6l-3,0.4c-0.8,0.1-1.4,0.5-1.7,1.2l-0.5,1.1
		c-0.4,0.7-0.7,1.5-1.1,2.2c-0.3,0.6-0.7,1.1-1.1,1.7c-0.4,0.5-1,0.9-1.7,0.9L347.6,229z M333.4,212.9c0.7,0,1.4,0.3,2,0.7l0.2,0.1
		c1.1,0.9,2.3,1.8,3.4,2.7c0.7,0.6,1.2,1.4,1.1,2.4c0,0.4,0,0.9,0,1.4l-0.2,2.4l-0.1,1.9c-0.1,0.5,0.2,0.9,0.6,1.1l0.1,0.1
		c0.2,0.1,0.4,0.2,0.6,0.3l4.9,1.4l1.5,0.4c0.3,0.1,0.7,0,0.8-0.3c0.4-0.4,0.7-0.9,1-1.4c0.4-0.7,0.7-1.4,1.1-2.1l0.5-1.1
		c0.5-1.1,1.6-1.9,2.8-2l3-0.4c2.8-0.4,3.5-0.1,5.3,2l0.5,0.5c0.6,0.7,1.3,1.5,1.9,2.2c0.4,0.6,1.1,0.7,1.7,0.4c0,0,0,0,0.1,0
		c2.1-1.1,3.9-2.1,5.5-3.1c1-0.6,1.1-0.9,0.8-2s-0.8-2.5-1.3-4c-0.5-1.3-0.3-2.7,0.6-3.8l0.7-0.9c0.5-0.6,1.1-1.3,1.6-2
		c0.8-1.3,2.3-2,3.8-1.7h0.3l4.3,0.3c0.5,0.1,0.9-0.2,1.1-0.6c0.1-0.2,0.3-0.5,0.4-0.7c0.6-2,1.1-4,1.7-6c0.2-0.6-0.1-1.2-0.6-1.5
		c-0.5-0.3-1.1-0.6-1.6-0.9l-1.6-0.8l-1.2-0.6c-1-0.5-1.7-1.5-1.9-2.6c-0.2-1.3-0.3-2.6-0.5-4l-0.1-0.9c-0.1-0.8,0.2-1.6,0.8-2.2
		c0.5-0.5,1.1-1.1,1.6-1.6l1-0.8c0.5-0.4,0.9-0.8,1.3-1.1c0.7-0.4,1-1.4,0.5-2.1c0-0.1-0.1-0.1-0.1-0.2c-1-1.8-2-3.6-3-5.3
		c-0.3-0.7-1.1-1-1.8-0.7c0,0,0,0,0,0l-2.3,0.7l-2.2,0.7c-1.1,0.4-2.4,0.2-3.3-0.6c-0.9-0.8-1.9-1.5-2.8-2.3l-0.9-0.7
		c-0.8-0.6-1.2-1.5-1.2-2.5c0-0.6,0-1.2,0.1-1.8c0-0.4,0.1-0.8,0.1-1.2c0.1-0.8,0.1-1.6,0.2-2.3c0.1-0.6-0.3-1.1-0.8-1.3
		c-1.9-0.6-4-1.1-6.6-1.8c-0.5-0.2-1.1,0.1-1.3,0.6c-0.4,0.6-0.7,1.2-1,1.8l-0.8,1.4c-0.3,0.5-0.6,1.1-0.9,1.6
		c-0.4,0.7-1.1,1.2-1.9,1.3l-1.7,0.2c-1,0.1-2,0.2-3,0.4c-1.4,0.3-2.7-0.3-3.6-1.4c-0.6-0.8-1.3-1.5-1.9-2.2l-1.1-1.2
		c-0.3-0.4-0.9-0.6-1.3-0.4c-2.4,0.9-4.6,2.2-6.6,3.7c-0.1,0.2-0.2,0.4-0.2,0.6c0,0.5,0.1,1,0.3,1.5c0.2,0.8,0.5,1.5,0.7,2.3
		c0.2,0.6,0.4,1.2,0.6,1.9c0.3,0.9,0.2,1.8-0.4,2.5c-1,1.3-2.3,2.9-3.6,4.4c-0.5,0.4-1.1,0.7-1.7,0.8c-0.5,0.1-1.1,0.1-1.6,0h-0.5
		l-1.2-0.1c-0.8-0.1-1.5-0.1-2.3-0.2c-0.7,0-1.3,0.5-1.5,1.1c-0.2,0.8-0.5,1.5-0.7,2.3c-0.3,1.1-0.6,2.2-0.8,3.3l-0.3,1.1v0.3
		c0.4,0.6,1,1.1,1.7,1.4l2.3,1.2l1.5,0.8c0.8,0.4,1.3,1.1,1.4,2c0.1,0.6,0.1,1.1,0.2,1.6c0.1,0.9,0.2,1.8,0.4,2.7
		c0.3,1.5-0.4,3.1-1.6,4c-1,0.7-2,1.6-3.1,2.6c-0.7,0.6-0.8,1-0.4,1.8c0.8,1.5,1.8,3.4,2.9,5.3c0.7,1.3,1,1.4,2.5,1l1.4-0.4
		c0.9-0.3,1.9-0.6,2.8-0.9C332.7,213.1,333.1,213,333.4,212.9L333.4,212.9z M352.9,209.6c-8.1,0-14.6-6.5-14.6-14.6
		s6.5-14.6,14.6-14.6c7.6,0,13.9,5.8,14.6,13.4c0.4,3.7-0.7,7.4-3,10.3c-2.5,3.2-6.2,5.2-10.3,5.5
		C353.7,209.5,353.3,209.6,352.9,209.6L352.9,209.6z M352.8,181.8c-0.4,0-0.8,0-1.2,0.1c-3.4,0.4-6.5,2.1-8.7,4.7
		c-2.3,2.7-3.4,6.1-3.1,9.6c0.7,7.3,7.1,12.6,14.4,11.9c3.6-0.3,6.9-2.1,9.1-4.9c2.1-2.6,3.1-5.9,2.7-9.3l0,0
		C365.4,187,359.7,181.7,352.8,181.8L352.8,181.8z"></path><path class="st0" d="M82.8,211.5c0.2-0.7,0.4-1.3,0.7-2c0.1-0.3,0.3-0.7,0.4-1c0.2-0.4,0.6-0.7,1.1-0.6c0.5,0.1,1.1,0.2,1.6,0.3
		c0.3,0.1,0.6,0.1,0.9,0.1c0.2,0,0.4-0.1,0.6-0.2c0.6-0.6,1.2-1.2,1.8-1.8c0.2-0.2,0.3-0.6,0.2-0.9c-0.1-0.6-0.3-1.3-0.4-1.9
		c-0.1-0.3-0.1-0.5-0.1-0.8c0-0.2,0.1-0.4,0.2-0.5c1-0.7,2.1-1.2,3.2-1.5c0.3-0.1,0.7,0,0.9,0.3c0.4,0.6,0.8,1.1,1.2,1.7
		c0.3,0.4,0.8,0.7,1.3,0.6c0.7-0.1,1.4-0.1,2.2-0.1c0.3,0,0.5-0.2,0.7-0.4l0.8-1.1c0.2-0.3,0.4-0.7,0.7-1c0.2-0.3,0.6-0.5,1-0.3
		c1,0.3,2,0.7,3,1.1c0.4,0.2,0.6,0.5,0.5,0.9c-0.1,0.6-0.2,1.1-0.3,1.6c0,0.3-0.1,0.5-0.1,0.8c0,0.3,0.1,0.7,0.3,0.9
		c0.5,0.5,1,1,1.6,1.5c0.3,0.3,0.7,0.4,1.2,0.3c0.7-0.1,1.4-0.3,2.1-0.5c0.5-0.1,1,0.1,1.2,0.6c0.4,0.8,0.8,1.7,1.2,2.6
		c0.3,0.5,0.2,1.1-0.3,1.4c0,0,0,0-0.1,0c-0.4,0.3-0.8,0.5-1.1,0.8s-0.5,0.4-0.8,0.6c-0.2,0.2-0.3,0.4-0.3,0.7c0,0.7,0,1.5,0.1,2.2
		c0,0.4,0.2,0.8,0.6,1l1.2,0.7c0.3,0.1,0.5,0.3,0.7,0.5c0.4,0.2,0.5,0.7,0.3,1.1c-0.3,0.9-0.7,1.8-1,2.7c-0.1,0.1-0.1,0.3-0.2,0.4
		c-0.2,0.3-0.5,0.5-0.8,0.4l-1.9-0.3h-0.1c-0.6-0.1-1.1,0.1-1.5,0.5c-0.4,0.4-0.8,0.8-1.2,1.2c-0.4,0.4-0.5,0.9-0.4,1.4
		c0.2,0.6,0.3,1.2,0.4,1.9c0.2,0.5,0,1-0.5,1.2c0,0-0.1,0-0.1,0c-0.9,0.4-1.8,0.8-2.7,1.2c-0.4,0.2-0.9,0.1-1.2-0.3
		c-0.3-0.4-0.7-0.9-1-1.3c-0.7-1-0.9-1.1-2.1-1l-1.4,0.1c-0.4,0-0.9,0.3-1.1,0.6c-0.3,0.5-0.6,0.9-0.8,1.4c-0.2,0.2-0.3,0.5-0.5,0.7
		c-0.2,0.2-0.5,0.3-0.7,0.2l-2.8-1c-0.1-0.1-0.2-0.1-0.4-0.2c-0.3-0.2-0.5-0.5-0.4-0.8c0.1-0.6,0.2-1.3,0.3-1.9c0-0.2,0-0.4,0.1-0.6
		c0-0.3-0.1-0.6-0.3-0.9l-1.5-1.4c-0.3-0.3-0.7-0.4-1.1-0.3l-1.9,0.4h-0.1c-0.8,0.1-1.1,0-1.4-0.7s-0.8-1.7-1.1-2.6
		c-0.2-0.4-0.1-0.9,0.3-1.1c0,0,0,0,0,0c0.5-0.4,1-0.8,1.5-1.1c0.5-0.3,0.8-0.9,0.8-1.5c0-0.7-0.1-1.3-0.1-2c0-0.3-0.2-0.5-0.4-0.7
		c-0.6-0.4-1.1-0.7-1.7-1.1c-0.4-0.2-0.7-0.5-0.9-0.9L82.8,211.5L82.8,211.5z M104,215.2c0-3.5-2.8-6.3-6.3-6.3c0,0,0,0-0.1,0
		c-3.4,0.1-6.2,2.9-6.2,6.4c0,3.5,2.8,6.3,6.3,6.3C101.2,221.5,104,218.7,104,215.2L104,215.2z"></path><path class="st1" d="M94.1,230.8c-0.2,0-0.3,0-0.5-0.1l-2.8-1.1c-0.2-0.1-0.3-0.1-0.4-0.2c-0.6-0.3-0.8-0.9-0.8-1.6l0.3-1.9
		c0-0.2,0-0.3,0-0.5c0-0.1,0-0.2-0.1-0.3l-1.2-1.2l-0.2-0.2c-0.1-0.1-0.3-0.2-0.5-0.1l-1.4,0.3l-0.5,0.1c-1.2,0.2-1.8-0.1-2.3-1.1
		c-0.4-0.9-0.8-1.7-1.1-2.6c-0.4-0.7-0.1-1.6,0.6-2c0.5-0.4,1-0.8,1.6-1.1c0.3-0.2,0.5-0.5,0.4-0.8c0-0.4-0.1-0.9-0.1-1.3v-0.7
		c0-0.1,0-0.1-0.1-0.1l-1.7-1.1c-0.5-0.3-1-0.7-1.2-1.3c0-0.1,0-0.1,0-0.2v-0.2c0-0.1,0-0.2,0-0.2l0.2-0.5l0.5-1.5
		c0.1-0.4,0.3-0.7,0.4-1.1c0.2-0.7,1-1.2,1.7-1.1c0.4,0,0.7,0.1,1.1,0.2l0.8,0.1c0.2,0,0.3,0,0.5,0.1c0.1,0,0.1,0,0.2,0
		c0.6-0.6,1.2-1.2,1.7-1.8c0-0.1,0-0.2,0-0.2l-0.2-0.9c-0.1-0.4-0.2-0.7-0.2-1.1c-0.1-0.3-0.1-0.7-0.1-1c0-0.4,0.3-0.8,0.6-1
		c1.1-0.7,2.2-1.2,3.4-1.6c0.6-0.2,1.3,0.1,1.7,0.6l0.4,0.6c0.3,0.4,0.6,0.8,0.8,1.1c0.1,0.2,0.4,0.4,0.6,0.3l1.4-0.1h0.8
		c0.2-0.2,0.4-0.5,0.5-0.8l0.4-0.7c0.2-0.3,0.3-0.5,0.5-0.8c0.4-0.6,1.1-0.8,1.8-0.6c1,0.3,2,0.7,3,1.1c0.7,0.3,1.1,1,1,1.7
		c0,0.4-0.1,0.8-0.2,1.1l-0.1,0.5c0,0.2-0.1,0.5-0.1,0.7c0,0.1,0,0.3,0.1,0.3l0.4,0.4c0.4,0.4,0.8,0.8,1.2,1.1
		c0.1,0.1,0.3,0.2,0.5,0.1l1-0.2l1.1-0.2c0.8-0.2,1.7,0.2,2,1c0.4,0.8,0.8,1.7,1.2,2.6c0.4,0.8,0.2,1.8-0.6,2.2
		c-0.2,0.2-0.5,0.3-0.7,0.5l-0.4,0.3c-0.2,0.2-0.5,0.4-0.7,0.6c-0.1,0-0.1,0.1-0.1,0.2v0.5l0.1,1.7c0,0.2,0.1,0.3,0.2,0.4l0.5,0.3
		l0.7,0.4c0.3,0.2,0.5,0.3,0.8,0.5c0.6,0.4,0.8,1.2,0.6,1.9c-0.3,0.9-0.7,1.8-1,2.7c-0.1,0.2-0.2,0.3-0.3,0.5
		c-0.3,0.5-0.9,0.8-1.6,0.7l-1.9-0.3h-0.2c-0.3-0.1-0.6,0-0.8,0.3c-0.3,0.3-0.6,0.6-0.8,0.9l-0.3,0.4c-0.2,0.2-0.3,0.5-0.2,0.7
		c0.2,0.6,0.3,1.3,0.4,1.9c0.3,0.8-0.2,1.7-1,2c-0.9,0.4-1.8,0.8-2.7,1.2c-0.7,0.4-1.6,0.1-2-0.5c-0.3-0.4-0.6-0.8-0.8-1.1l-0.2-0.2
		c-0.3-0.5-0.9-0.8-1.4-0.7l-1.4,0.1c-0.2,0-0.4,0.1-0.5,0.3l-0.3,0.5c-0.2,0.3-0.4,0.6-0.6,0.9c-0.2,0.3-0.4,0.5-0.6,0.8
		c-0.3,0.3-0.6,0.4-1,0.4L94.1,230.8z M88.1,222.2c0.5,0,0.9,0.2,1.2,0.5l0.2,0.2l1.3,1.2c0.4,0.4,0.6,0.9,0.6,1.4
		c0,0.2,0,0.4-0.1,0.6l-0.4,1.9c0,0.1,0,0.1,0.1,0.1l0.2,0.1l2.8,1c0.2-0.2,0.3-0.4,0.4-0.6c0.2-0.3,0.4-0.6,0.6-0.9l0.3-0.5
		c0.3-0.6,1-1,1.7-1l1.4-0.1c1.1-0.2,2.2,0.3,2.7,1.3l0.2,0.2c0.3,0.4,0.5,0.7,0.8,1.1c0.2,0.2,0.2,0.2,0.3,0.1
		c0.9-0.4,1.8-0.8,2.6-1.2c0.1,0,0.2-0.1,0.3-0.2l0,0c0-0.1,0-0.2,0-0.3c-0.1-0.6-0.3-1.2-0.4-1.8c-0.2-0.7,0-1.5,0.5-2.1l0.4-0.4
		c0.3-0.3,0.5-0.5,0.8-0.8c0.5-0.7,1.4-1,2.2-0.8l2,0.3c0,0,0.1,0,0.1-0.1c0.1-0.1,0.1-0.2,0.2-0.2c0.3-0.9,0.7-1.8,1-2.7
		c0-0.1,0.1-0.1-0.1-0.3c-0.2-0.2-0.4-0.3-0.7-0.4l-0.7-0.4l-0.5-0.3c-0.6-0.3-0.9-0.9-0.9-1.6c0-0.6,0-1.2,0-1.8v-0.5
		c0-0.5,0.2-1,0.6-1.3c0.3-0.2,0.5-0.4,0.8-0.6l0.5-0.4l0.6-0.5c0.3-0.2,0.3-0.3,0.2-0.6c-0.4-0.9-0.8-1.7-1.2-2.5
		c-0.1-0.2-0.1-0.2-0.4-0.2L109,208l-1,0.2c-0.7,0.2-1.3,0-1.8-0.5c-0.4-0.4-0.8-0.7-1.1-1.1l-0.4-0.4c-0.4-0.4-0.6-0.9-0.6-1.5
		c0-0.3,0.1-0.6,0.1-0.8l0.1-0.6c0.1-0.3,0.1-0.7,0.2-1c0-0.2,0-0.2-0.1-0.2c-1-0.4-2-0.7-2.9-1.1c-0.1,0-0.1,0-0.2,0.1
		s-0.3,0.5-0.5,0.7l-0.4,0.7l-0.4,0.7c-0.3,0.4-0.7,0.7-1.2,0.7h-0.8c-0.4,0-0.9,0-1.4,0.1c-0.8,0.1-1.5-0.3-1.9-0.9
		c-0.2-0.4-0.5-0.7-0.8-1.1l-0.4-0.6c-0.1-0.1-0.1-0.1-0.2-0.1c-1.1,0.3-2.1,0.8-3,1.4c0.1,0.2,0.1,0.4,0.1,0.5
		c0.1,0.4,0.2,0.7,0.2,1.1l0.2,0.9c0.1,0.5,0,1.1-0.4,1.5c-0.6,0.6-1.2,1.3-1.8,1.9c-0.3,0.2-0.7,0.4-1.1,0.4c-0.3,0-0.5,0-0.8-0.1
		l-0.8-0.1c-0.3-0.1-0.7-0.1-1-0.2c-0.1,0-0.2,0-0.3,0.2s-0.3,0.6-0.4,1l-0.5,1.5l-0.1,0.4c0.1,0.2,0.3,0.3,0.5,0.4l1.7,1.1
		c0.4,0.3,0.7,0.7,0.7,1.2v0.8c0,0.4,0,0.8,0.1,1.2c0.1,0.9-0.3,1.7-1.1,2.1c-0.5,0.3-1,0.7-1.5,1.1c-0.1,0.1-0.2,0.1-0.2,0.2
		c0,0.1,0,0.1,0.1,0.2c0.3,0.9,0.7,1.7,1.1,2.5c0.1,0.3,0.2,0.4,0.2,0.4c0.2,0,0.3,0,0.5,0l0.6-0.1l1.3-0.3c0.2,0,0.3-0.1,0.5-0.1
		L88.1,222.2z M97.8,222.2L97.8,222.2c-3.9,0-7-3.1-7-7c0-1.9,0.7-3.7,2.1-5c1.3-1.3,3-2.1,4.8-2.1l0,0c3.9,0,7,3.1,7.1,6.9
		c0,0,0,0.1,0,0.1c0,1.8-0.6,3.5-1.9,4.8C101.5,221.4,99.7,222.2,97.8,222.2L97.8,222.2z M97.7,209.6c-1.5,0-2.8,0.7-3.9,1.7
		c-1.1,1.1-1.7,2.5-1.7,4c0,3.1,2.5,5.6,5.6,5.6l0,0c1.6,0,3.1-0.6,4.1-1.8c1-1,1.5-2.4,1.5-3.8l0,0
		C103.4,212.2,100.9,209.7,97.7,209.6C97.7,209.6,97.7,209.6,97.7,209.6L97.7,209.6z M104.8,215.2L104.8,215.2z"></path><path class="st0" d="M316.9,362c0.3-1.2,0.6-2.5,0.9-3.7c0.2-0.6,0.4-1.3,0.6-1.9c0.2-0.8,1-1.4,1.8-1.3c1,0,2,0.1,2.9,0.2
		c0.5,0.1,1,0.1,1.6,0.1c0.4,0,0.7-0.2,1-0.4c1-1.1,2-2.3,2.9-3.5c0.3-0.4,0.4-1,0.2-1.5c-0.4-1.1-0.7-2.3-1.1-3.4
		c-0.1-0.4-0.2-0.9-0.2-1.4c0-0.3,0.1-0.7,0.4-0.9c1.7-1.3,3.5-2.4,5.5-3.1c0.6-0.3,1.3-0.1,1.7,0.5c0.8,1,1.7,1.9,2.5,2.8
		c0.5,0.8,1.5,1.1,2.4,1c1.3-0.2,2.5-0.3,3.8-0.5c0.5-0.1,0.9-0.4,1.1-0.8c0.4-0.7,0.8-1.4,1.1-2.2s0.7-1.2,1-1.8
		c0.3-0.6,1-0.9,1.7-0.8c1.8,0.5,3.6,0.9,5.4,1.5c0.7,0.2,1.2,0.9,1.1,1.6c0,1-0.1,2-0.2,3c0,0.5-0.1,0.9-0.1,1.4
		c0,0.6,0.2,1.2,0.7,1.6c1,0.8,2,1.6,3,2.4c0.6,0.5,1.4,0.7,2.1,0.4c1.2-0.4,2.5-0.8,3.7-1.2c0.8-0.4,1.8,0,2.2,0.8
		c0.9,1.4,1.7,2.9,2.5,4.4c0.6,0.8,0.4,1.9-0.4,2.5c0,0,0,0-0.1,0c-0.6,0.6-1.3,1.1-1.9,1.6c-0.5,0.4-0.9,0.8-1.3,1.2
		c-0.4,0.4-0.5,0.9-0.5,1.4c0.1,1.3,0.3,2.6,0.5,4c0.1,0.7,0.5,1.4,1.2,1.7c0.8,0.4,1.5,0.7,2.3,1.1c0.5,0.2,0.9,0.5,1.4,0.8
		c0.7,0.4,1,1.1,0.8,1.8c-0.5,1.6-0.9,3.3-1.4,4.9c-0.1,0.2-0.2,0.5-0.3,0.7c-0.2,0.6-0.8,0.9-1.4,0.8l-3.5-0.3c-0.1,0-0.2,0-0.3,0
		c-1-0.2-2,0.3-2.5,1.1c-0.6,0.8-1.2,1.6-1.9,2.4c-0.6,0.7-0.8,1.7-0.4,2.5c0.4,1.1,0.8,2.2,1.1,3.3c0.4,0.8,0.1,1.8-0.7,2.2
		c-0.1,0-0.1,0.1-0.2,0.1c-1.5,0.9-3,1.7-4.5,2.5c-0.7,0.5-1.6,0.3-2.1-0.4c-0.7-0.7-1.3-1.5-2-2.2c-1.4-1.6-1.7-1.8-3.8-1.5
		l-2.5,0.4c-0.8,0.1-1.5,0.6-1.9,1.3c-0.4,0.9-0.8,1.8-1.3,2.6c-0.2,0.4-0.5,0.9-0.9,1.3c-0.3,0.4-0.8,0.6-1.3,0.5
		c-1.7-0.5-3.5-1-5.2-1.4c-0.2-0.1-0.5-0.2-0.7-0.3c-0.6-0.2-0.9-0.8-0.8-1.4c0.1-1.1,0.2-2.3,0.3-3.5c0-0.4,0-0.7,0-1
		c0-0.6-0.3-1.1-0.7-1.5c-1-0.8-2-1.5-2.9-2.3c-0.6-0.5-1.3-0.6-2-0.3c-1.1,0.4-2.2,0.7-3.3,1.1h-0.1c-1.4,0.4-1.9,0.2-2.7-1
		s-1.6-2.9-2.4-4.4c-0.5-0.7-0.3-1.6,0.4-2.1c0,0,0,0,0,0c0.8-0.8,1.7-1.5,2.6-2.2c0.9-0.6,1.3-1.7,1.1-2.8
		c-0.2-1.2-0.3-2.4-0.5-3.6c0-0.5-0.4-0.9-0.8-1.2c-1-0.5-2.1-1.1-3.1-1.6c-0.7-0.3-1.3-0.8-1.7-1.5
		C316.8,362.4,316.8,362.2,316.9,362L316.9,362z M355.4,365.4c-0.5-6.2-6-10.9-12.2-10.4c0,0-0.1,0-0.1,0
		c-6.1,0.7-10.6,6.1-10.1,12.3c0.6,6.2,6,10.8,12.1,10.3c6.2-0.5,10.8-5.8,10.4-12C355.4,365.5,355.3,365.4,355.4,365.4L355.4,365.4
		z"></path><path class="st1" d="M339.8,394.2c-0.2,0-0.4,0-0.5-0.1l-1.4-0.4c-1.3-0.4-2.5-0.7-3.8-1c-0.3-0.1-0.5-0.2-0.7-0.3
		c-0.8-0.4-1.3-1.2-1.3-2.1l0.1-1.5c0-0.6,0.1-1.3,0.1-1.9c0-0.3,0-0.6,0-1c0-0.4-0.1-0.8-0.4-1c-0.9-0.7-1.8-1.4-2.7-2.1l-0.2-0.2
		c-0.4-0.3-0.9-0.4-1.4-0.2l-2.3,0.8l-1,0.3l-0.1,0c-1.8,0.5-2.6,0.2-3.5-1.4s-1.8-3.2-2.4-4.4c-0.7-1-0.4-2.3,0.6-3
		c1-0.9,1.8-1.6,2.6-2.2c0.7-0.5,1-1.3,0.9-2.1c-0.1-0.7-0.2-1.5-0.3-2.2l-0.2-1.4c0-0.3-0.2-0.5-0.4-0.7l-1.3-0.7l-1.9-1
		c-0.9-0.4-1.6-1-2-1.8c0-0.1,0-0.1,0-0.2v-0.4c0-0.1,0-0.2,0-0.2l0.3-1.1c0.2-0.9,0.4-1.7,0.6-2.6c0.2-0.6,0.4-1.3,0.6-1.9
		c0.3-1.1,1.3-1.8,2.5-1.8c0.6,0,1.3,0.1,2,0.1l1,0.1h0.4c0.3,0,0.7,0,1,0c0.2,0,0.4-0.1,0.6-0.2c1.1-1.2,2.1-2.5,2.9-3.5
		c0.2-0.3,0.2-0.6,0.1-0.9c-0.1-0.5-0.3-1-0.5-1.5s-0.4-1.3-0.6-1.9c-0.2-0.5-0.3-1-0.3-1.6c0-0.6,0.2-1.1,0.6-1.5
		c1.7-1.4,3.7-2.4,5.7-3.2c0.9-0.4,1.9-0.1,2.5,0.6l0.9,1c0.5,0.6,1.1,1.2,1.6,1.9c0.4,0.6,1.1,0.8,1.7,0.7c0.8-0.1,1.6-0.2,2.5-0.3
		l1.4-0.2c0.3,0,0.5-0.2,0.6-0.4c0.2-0.4,0.5-0.8,0.7-1.2l0.7-1.3c0.3-0.5,0.5-1,0.8-1.5c0.5-0.9,1.5-1.3,2.5-1.1
		c2.2,0.5,3.9,1,5.5,1.5c1,0.3,1.7,1.3,1.6,2.3c0,0.7-0.1,1.3-0.1,2l-0.1,1c0,0.5-0.1,0.9-0.1,1.3c0,0.4,0.2,0.8,0.5,1l0.7,0.5
		c0.8,0.6,1.6,1.3,2.4,1.9c0.4,0.4,1,0.5,1.5,0.3l1.8-0.6c0.6-0.2,1.3-0.4,1.9-0.6c1.1-0.4,2.4,0,3,1.1c0.9,1.5,1.7,2.9,2.5,4.4
		c0.8,1.1,0.5,2.6-0.6,3.4c-0.4,0.3-0.8,0.7-1.1,1s-0.5,0.4-0.8,0.7c-0.4,0.4-0.9,0.8-1.3,1.2c-0.2,0.2-0.3,0.5-0.3,0.8l0.1,0.8
		c0.1,1,0.2,2.1,0.4,3.1c0.1,0.5,0.4,0.9,0.8,1.1l1,0.5l1.3,0.6c0.5,0.2,1,0.5,1.4,0.8c0.9,0.5,1.3,1.6,1,2.6
		c-0.4,1.6-0.9,3.3-1.4,4.9c-0.1,0.3-0.2,0.5-0.4,0.8c-0.4,0.8-1.2,1.3-2.1,1.2l-3.5-0.3h-0.3c-0.7-0.1-1.5,0.2-1.9,0.9
		c-0.4,0.6-0.9,1.1-1.4,1.7l-0.6,0.7c-0.5,0.5-0.6,1.2-0.3,1.9c0.4,1.1,0.8,2.2,1.1,3.3c0.5,1.2,0,2.5-1.1,3.1c0,0-0.1,0-0.1,0
		c-1.4,0.8-2.9,1.7-4.6,2.5c-1,0.6-2.3,0.4-3-0.5c-0.6-0.6-1.1-1.2-1.6-1.8l-0.4-0.4c-1.2-1.5-1.3-1.5-3.2-1.2l-2.5,0.4
		c-0.6,0-1.1,0.4-1.3,0.9l-0.4,0.9c-0.3,0.6-0.6,1.2-0.9,1.8c-0.3,0.5-0.6,1-0.9,1.4c-0.4,0.5-0.9,0.7-1.5,0.8L339.8,394.2z
		 M328.2,380.8c0.6,0,1.2,0.2,1.7,0.6l0.2,0.2c0.9,0.7,1.8,1.4,2.7,2.1c0.6,0.5,1,1.2,1,2c0,0.4,0,0.7,0,1.1l-0.1,2l-0.1,1.5
		c0,0.2,0,0.5,0.5,0.8c0.2,0.1,0.3,0.2,0.5,0.3l3.8,1l1.4,0.4c0.1,0,0.3,0.1,0.5-0.2c0.3-0.4,0.6-0.7,0.8-1.1
		c0.3-0.6,0.6-1.1,0.9-1.7l0.4-0.9c0.4-0.9,1.3-1.6,2.4-1.7l2.5-0.4c2.4-0.3,2.9-0.1,4.5,1.7l0.4,0.4c0.5,0.6,1,1.2,1.6,1.8
		c0.3,0.4,0.8,0.5,1.2,0.3c0,0,0,0,0.1,0c1.7-0.9,3.1-1.7,4.5-2.5c0.8-0.4,0.8-0.6,0.6-1.5c-0.3-1.1-0.7-2.2-1.1-3.2
		c-0.4-1.1-0.2-2.3,0.5-3.2l0.6-0.7c0.4-0.5,0.9-1.1,1.3-1.6c0.7-1.1,2-1.7,3.2-1.4h0.2l3.5,0.3c0.3,0,0.6-0.2,0.8-0.5
		c0.1-0.2,0.2-0.4,0.3-0.6c0.5-1.6,0.9-3.3,1.4-4.9c0.1-0.4,0-0.9-0.5-1.1c-0.4-0.3-0.9-0.5-1.3-0.7s-0.9-0.4-1.3-0.6l-1-0.5
		c-0.9-0.4-1.5-1.2-1.6-2.2c-0.1-1-0.2-2.1-0.4-3.1l-0.1-0.8c-0.1-0.7,0.2-1.4,0.7-1.9c0.4-0.4,0.9-0.9,1.3-1.3l0.8-0.7
		c0.4-0.3,0.7-0.6,1.1-0.9c0.7-0.6,0.7-0.9,0.3-1.7c-0.8-1.5-1.6-2.9-2.5-4.4c-0.2-0.5-0.8-0.8-1.3-0.6c0,0-0.1,0-0.1,0
		c-0.6,0.2-1.3,0.4-1.9,0.6l-1.8,0.6c-1,0.3-2,0.1-2.8-0.5c-0.8-0.6-1.5-1.3-2.3-1.9l-0.7-0.5c-0.7-0.5-1-1.3-1-2.1
		c0-0.5,0-1,0.1-1.5l0.1-1c0.1-0.6,0.1-1.3,0.1-1.9c0.1-0.4-0.2-0.8-0.6-0.9c-1.5-0.5-3.3-0.9-5.4-1.5c-0.4-0.1-0.8,0.1-0.9,0.4
		c-0.3,0.5-0.5,1-0.8,1.4l-0.7,1.3c-0.2,0.4-0.5,0.9-0.7,1.3c-0.3,0.6-0.9,1-1.6,1.1l-1.4,0.2c-0.8,0.1-1.6,0.2-2.4,0.3
		c-1.1,0.2-2.3-0.2-3-1.2c-0.5-0.6-1-1.2-1.6-1.8c-0.3-0.3-0.6-0.7-0.9-1c-0.2-0.3-0.6-0.4-0.9-0.2c-1.9,0.7-3.7,1.7-5.4,3
		c-0.1,0.1-0.1,0.2-0.1,0.4c0,0.4,0.1,0.8,0.2,1.2c0.2,0.6,0.4,1.3,0.6,1.9s0.3,1,0.5,1.5c0.3,0.7,0.1,1.6-0.3,2.2
		c-0.8,1.1-1.9,2.3-3,3.6c-0.4,0.4-0.9,0.6-1.5,0.7c-0.4,0-0.9,0-1.3,0h-0.4l-1-0.1c-0.6-0.1-1.2-0.1-1.9-0.1c-0.5,0-1,0.3-1.1,0.8
		c-0.2,0.6-0.4,1.2-0.5,1.9c-0.2,0.9-0.4,1.7-0.6,2.5l-0.2,1v0.2c0.3,0.5,0.8,0.8,1.3,1l1.9,1l1.3,0.7c0.7,0.3,1.1,1,1.2,1.7
		l0.2,1.4c0.1,0.7,0.2,1.5,0.3,2.2c0.3,1.3-0.3,2.6-1.4,3.4c-0.8,0.6-1.6,1.3-2.5,2.1c-0.5,0.5-0.6,0.7-0.3,1.3
		c0.6,1.2,1.4,2.8,2.3,4.4c0.6,1,0.7,1,1.9,0.7l1-0.3c0.8-0.2,1.5-0.5,2.3-0.8C327.5,380.9,327.9,380.9,328.2,380.8L328.2,380.8z
		 M344.1,378.3c-6.2,0-11.4-4.8-11.9-11c-0.3-3.2,0.7-6.3,2.8-8.7c4.2-5.1,11.7-5.8,16.8-1.7c2.5,2.1,4.1,5.1,4.3,8.3
		c0.3,3.1-0.6,6.1-2.5,8.5c-2.1,2.6-5.1,4.3-8.5,4.5C344.7,378.3,344.4,378.3,344.1,378.3L344.1,378.3z M344,355.7
		c-0.3,0-0.6,0-0.9,0c-2.7,0.3-5.2,1.7-7,3.8c-3.8,4.5-3.3,11.1,1.2,14.9c4.5,3.8,11.1,3.3,14.9-1.2c0.1-0.1,0.2-0.2,0.3-0.3
		c1.7-2.1,2.5-4.8,2.2-7.5l0,0C354.3,359.8,349.6,355.6,344,355.7z"></path></g><g id="Lamp"><path class="st0" d="M188.8,354c-4.7,1.6-9.6,3-14.2,4.8c-7.7,3-13.9,0.9-18.2-5.8c-6.6-10.4-15.7-17.7-25.9-24.3
		c-14.9-9.8-25.2-23.6-29.3-41.1c-8.3-35.2,12.2-65,48.5-73.4c53.4-12.3,86,36.4,71.4,82.7c-4,12.5-7.7,24.6-6.7,37.9
		c0.5,7.4-3.5,12.1-10.7,14.3C198.8,350.5,193.8,352.4,188.8,354L188.8,354z"></path><path class="st2" d="M168.1,360.9c-4.9,0-9.1-2.5-12.2-7.5c-6.9-11-16.9-18.4-25.7-24.1c-15.3-10-25.5-24.4-29.6-41.5
		c-3.9-16.7-1.6-32.5,6.7-45.8c8.8-14.1,23.8-24.1,42.3-28.4c23.4-5.4,44.4,0.4,59.1,16.2c15.8,17.1,20.9,42.9,13.2,67.3
		c-3.8,11.9-7.7,24.2-6.7,37.6c0.6,7.5-3.3,12.7-11.2,15c-3.4,1-6.9,2.2-10.2,3.4c-1.6,0.5-3.1,1.1-4.7,1.6l0,0
		c-1.4,0.5-2.9,0.9-4.3,1.4c-3.2,1-6.6,2.1-9.8,3.4C172.7,360.4,170.4,360.8,168.1,360.9z M166.3,213c-5.5,0-11,0.7-16.4,1.9
		c-18.2,4.2-32.9,14.1-41.4,27.8c-8.1,13-10.3,28.4-6.5,44.7c4,17,13.8,30.7,29,40.7c8.9,5.8,19,13.3,26.1,24.5
		c4.1,6.5,10,8.4,17.3,5.5c3.2-1.3,6.6-2.4,9.9-3.4c1.4-0.5,2.9-0.9,4.3-1.4l4.7-1.6c3.4-1.1,6.8-2.4,10.3-3.4
		c7.2-2.1,10.7-6.8,10.2-13.5c-1-13.7,2.9-26.1,6.7-38.2c7.6-23.9,2.6-49.1-12.9-65.9C196.8,219.1,182.5,213,166.3,213L166.3,213z
		 M188.8,354L188.8,354z"></path><path class="st0" d="M167.8,361.1l41.8-14c2.4-0.8,5.1,0.5,5.9,3l1.8,5.5c0.8,2.4-0.5,5.1-3,5.9l-41.8,14c-2.4,0.8-5.1-0.5-5.9-3
		l-1.8-5.5C164.1,364.6,165.4,361.9,167.8,361.1z"></path><path class="st2" d="M172.4,376c-3.1,0-5.9-2-6.9-5l-0.7-2c-1.3-3.8,0.8-7.9,4.6-9.2l38.3-12.8c3.8-1.3,7.9,0.8,9.2,4.6l0.7,2
		c1.3,3.8-0.8,7.9-4.6,9.2l0,0l-38.3,12.8C173.9,375.9,173.1,376,172.4,376L172.4,376z M210,348.1c-0.6,0-1.2,0.1-1.8,0.3
		l-38.3,12.8c-3.1,1-4.7,4.3-3.7,7.4l0.7,2c1,3.1,4.3,4.7,7.4,3.7c0,0,0,0,0,0l38.3-12.8c3.1-1,4.7-4.3,3.7-7.4c0,0,0,0,0,0l-0.7-2
		C214.8,349.7,212.5,348.1,210,348.1L210,348.1z M212.7,362.1L212.7,362.1z"></path><path class="st0" d="M172.6,375.5l41.8-14c2.4-0.8,5.1,0.5,5.9,3l1.8,5.5c0.8,2.4-0.5,5.1-3,5.9l-41.8,14c-2.4,0.8-5.1-0.5-5.9-3
		l-1.8-5.5C168.9,379,170.2,376.3,172.6,375.5z"></path><path class="st2" d="M177.2,390.4c-3.1,0-5.9-2-6.9-5l-0.7-2c-1.3-3.8,0.8-7.9,4.6-9.2l38.3-12.8c3.8-1.3,7.9,0.8,9.2,4.6l0.7,2
		c1.3,3.8-0.8,7.9-4.6,9.2l0,0L179.5,390C178.7,390.2,177.9,390.4,177.2,390.4L177.2,390.4z M214.8,362.5c-0.6,0-1.3,0.1-1.9,0.3
		l-38.3,12.8c-3,1-4.7,4.3-3.6,7.4c0,0,0,0,0,0l0.7,2c1,3.1,4.3,4.7,7.4,3.7c0,0,0,0,0,0l38.3-12.8c3.1-1,4.7-4.3,3.7-7.4
		c0,0,0,0,0,0l-0.7-2C219.6,364.1,217.3,362.5,214.8,362.5L214.8,362.5z M217.5,376.5L217.5,376.5z"></path><path class="st2" d="M218,376.4c1.8,5.4-5.5,12.8-16.4,16.4s-21.1,2.2-22.9-3.3L218,376.4L218,376.4z"></path><path class="st2" d="M190.2,395.5c-1.2,0-2.4-0.1-3.5-0.2c-4.6-0.7-7.7-2.6-8.6-5.5c-0.1-0.4,0.1-0.8,0.4-0.9l39.3-13.1
		c0.4-0.1,0.8,0.1,0.9,0.4c1,2.9-0.3,6.3-3.6,9.6c-3.8,3.5-8.3,6.2-13.2,7.7C198.1,394.7,194.2,395.4,190.2,395.5L190.2,395.5z
		 M179.7,389.9c1,2,3.6,3.4,7.2,3.9c9.9,0.9,19.8-2.4,27.2-9.1c2.6-2.6,3.8-5.2,3.4-7.5L179.7,389.9L179.7,389.9z"></path><path class="st1" d="M177.6,350.4c-0.3,0-0.6-0.2-0.7-0.5l-0.4-1.5c-2.9-11.8-5.8-23.9-11-35c-7.5,1.4-15.3,0.9-22.6-1.5
		c-4.9-1.6-8.6-3.8-11.1-6.7c-3.2-3.7-4.4-8.5-3.1-12.5c2.6-6.4,9.8-9.5,16.2-6.9c0.3,0.1,0.5,0.2,0.8,0.3c5,2.9,10.4,8.8,16.1,17.5
		c1.7,2.7,3.3,5.4,4.6,8.2c6.2-1.3,12.1-3.8,17.2-7.4c-0.1-0.5-0.2-1-0.3-1.5l-0.3-1.2c-2-9.5-4.5-21.4-0.4-30.8
		c0.7-1.5,3.1-6.5,7.1-7.3c1.9-0.4,3.9,0.3,5.2,1.7c4.2,3.9,6.4,10.2,5.5,16.7c-0.7,5.4-3.4,10.9-7.7,16c-2.3,2.6-4.8,5-7.6,7
		c3,12.8,7.7,25.2,13.8,36.9c0.2,0.3,0,0.8-0.3,0.9c0,0,0,0,0,0c-0.3,0.2-0.8,0-0.9-0.3c-6.1-11.6-10.7-24-13.8-36.7
		c-5.2,3.5-10.9,5.9-17,7.2c5.2,11.1,8.1,23.1,11,34.9l0.4,1.5c0.1,0.4-0.1,0.8-0.5,0.9L177.6,350.4L177.6,350.4z M140.5,286.3
		c-1.4,0-2.9,0.3-4.2,0.8c-2.9,1-5.2,3.2-6.3,6.1c-1.1,3.5,0,7.9,2.9,11.2c2.4,2.7,5.8,4.8,10.5,6.3c7,2.3,14.4,2.8,21.6,1.5
		c-1.3-2.7-2.8-5.3-4.4-7.8c-5.5-8.5-10.7-14.2-15.6-17C143.6,286.7,142,286.3,140.5,286.3L140.5,286.3z M190.8,265
		c-0.3,0-0.5,0-0.8,0.1c-2.6,0.5-4.9,3.7-6.1,6.5c-3.9,8.9-1.5,20.6,0.5,29.9l0.3,1.2c0.1,0.3,0.1,0.6,0.2,0.9
		c2.5-1.9,4.9-4.1,6.9-6.5c4.2-4.9,6.7-10.2,7.4-15.2c0.8-6-1.2-11.9-5.1-15.5C193.1,265.6,192,265.1,190.8,265L190.8,265z"></path></g><g id="Character"><path class="st0" d="M273.2,178.1c0,0,6-5,8.8-7.4s5.5-8.6,8-8.6s-2,7.5-2,7.5s9.4-7.2,12.3-7.4s4.5,4.7,3.8,6.2s-8.6,5.2-11.6,8.2
		s-12.5,9.5-12.5,9.5"></path><path class="st2" d="M279.9,186.9c-0.2,0-0.4-0.1-0.6-0.3c-0.2-0.3-0.2-0.7,0.1-1c0,0,0,0,0,0c0.1-0.1,9.6-6.6,12.5-9.4
		c2.1-1.8,4.4-3.4,6.9-4.8c1.9-1.2,4.3-2.6,4.6-3.2s0-2.5-1-3.9c-0.4-0.8-1.3-1.3-2.2-1.3c-2,0.1-8.2,4.4-11.9,7.2
		c-0.3,0.2-0.7,0.2-1-0.2c-0.2-0.2-0.2-0.5,0-0.8c1.7-2.8,3-5.9,2.6-6.4c-1.2,0-2.8,2.2-4.1,4.2c-1,1.5-2.1,2.9-3.4,4.2
		c-2.8,2.3-8.8,7.4-8.8,7.4l-0.9-1.1c0,0,6-5.1,8.8-7.4c1.2-1.2,2.3-2.5,3.2-3.9c1.7-2.5,3.4-4.8,5.2-4.8l0,0c0.5,0,1,0.2,1.2,0.7
		c0.6,1-0.2,3.1-1.1,5c3.1-2.2,8-5.5,10.1-5.6c1.4,0,2.7,0.7,3.4,1.9c1.1,1.7,1.6,4.1,1.1,5.3c-0.4,0.9-2.1,2-5.1,3.8
		c-2.3,1.3-4.6,2.8-6.6,4.6c-3,3-12.2,9.3-12.6,9.6C280.2,186.8,280.1,186.9,279.9,186.9L279.9,186.9z"></path><path class="st0" d="M277,137.9c0,0,5.6-3.9,9.4-5.2s8.7-2.1,7.6-3.7s-10.1,0.7-10.1,0.7s5.3-8.1,8.2-9.7s7.2-1.5,5.1-3
		s-8.4-1.8-10.7-0.7s-14.9,15.1-15.6,15.8S277,137.9,277,137.9L277,137.9z"></path><path class="st2" d="M277,138.6c-0.2,0-0.3,0-0.4-0.1c-2.8-2.1-6.2-4.9-6.3-6.1c0-0.3,0-0.5,0.2-0.7c0.1-0.1,13.4-14.7,15.8-16
		s9-1,11.4,0.7c0.3,0.2,1,0.7,0.8,1.5s-1.1,1.1-2.7,1.5c-1.2,0.3-2.3,0.7-3.4,1.2c-1.9,1-5.1,5.3-7,8c3.3-0.7,8.1-1.5,9.1,0
		c0.3,0.4,0.4,0.9,0.2,1.3c-0.4,1.2-2.3,1.8-5.6,2.7c-0.8,0.2-1.7,0.5-2.5,0.8c-3.7,1.2-9.2,5-9.2,5.1
		C277.3,138.6,277.1,138.6,277,138.6L277,138.6z M271.7,132.4c1.6,1.7,3.4,3.3,5.3,4.6c1.4-0.9,5.9-3.9,9.2-5
		c0.8-0.3,1.7-0.5,2.6-0.8c1.7-0.5,4.5-1.3,4.7-1.9c-0.5-0.7-4.9-0.2-9.4,1c-0.4,0.1-0.8-0.1-0.9-0.5c-0.1-0.2,0-0.4,0.1-0.6
		c0.2-0.3,5.4-8.3,8.5-10c1.2-0.6,2.4-1,3.7-1.3c0.5-0.1,1.1-0.3,1.5-0.4l-0.1-0.1c-1.9-1.4-8-1.6-9.9-0.6S273.7,130.2,271.7,132.4
		L271.7,132.4z"></path><path class="st3" d="M212.1,149.5c0,0,33.1,4.7,38.2,3.4l19.5-22l11.5,7.5c0,0-6,18.1-14.3,28.5s-62.5,12.7-62.5,12.7L212.1,149.5
		L212.1,149.5z"></path><path class="st2" d="M283.9,340.9c0,0-3.8,8.3-3,11.5s15.7,25.1,17.8,22.7s-1.1-23.9-1.1-23.9L283.9,340.9L283.9,340.9z"></path><path class="st2" d="M298.3,376c-0.1,0-0.3,0-0.4,0c-4.1-1-17-20.7-17.6-23.3c-0.9-3.4,2.6-11.2,3-12c0.1-0.2,0.3-0.3,0.5-0.4
		c0.2,0,0.4,0,0.6,0.1l13.8,10.4c0.1,0.1,0.2,0.3,0.3,0.5c0.5,3.6,3.1,21.9,0.9,24.4C299,375.9,298.7,376.1,298.3,376L298.3,376z
		 M284.2,342c-1.2,2.7-3.1,8-2.6,10.3c1,3.7,14.3,22.3,16.6,22.3l0,0c1.2-1.5,0-14.2-1.3-23L284.2,342L284.2,342z"></path><polygon class="st0" points="291.7,323.8 283.9,340.9 297.7,351.3 308,331.2 	"></polygon><path class="st2" d="M297.7,352c-0.2,0-0.3,0-0.4-0.1l-13.8-10.4c-0.3-0.2-0.4-0.5-0.2-0.9l7.8-17.1c0.1-0.2,0.2-0.3,0.4-0.4
		c0.2-0.1,0.4-0.1,0.5,0l16.3,7.4c0.2,0.1,0.3,0.2,0.4,0.4c0.1,0.2,0.1,0.4,0,0.5l-10.4,20.1c-0.1,0.2-0.3,0.3-0.5,0.4L297.7,352
		L297.7,352z M284.8,340.7l12.6,9.5l9.6-18.7l-15-6.9L284.8,340.7L284.8,340.7z"></path><path class="st2" d="M250.9,226.9c0,0,57.6,14.6,68.9,23.8c11.3,9.2,2.6,75.4-11.1,87.5l-21.5-11.3c0,0,11.5-50.7,7.3-54.9
		s-51.7-10.3-51.7-10.3l-31.1-34.7L250.9,226.9L250.9,226.9z"></path><path class="st2" d="M308.6,339c-0.1,0-0.2,0-0.3-0.1l-21.5-11.3c-0.3-0.1-0.4-0.5-0.4-0.8c4.4-19.5,10.3-51.4,7.5-54.2
		c-3.3-3.3-38.1-8.4-51.3-10.1c-0.2,0-0.3-0.1-0.4-0.2l-31.1-34.7c-0.2-0.2-0.2-0.5-0.1-0.8c0.1-0.2,0.4-0.4,0.6-0.4l39.2-0.1
		c0.1,0,0.1,0,0.2,0c2.4,0.6,57.8,14.8,69.1,23.9c4.2,3.4,5.3,13.3,5.4,20.9c0.5,23.5-6.7,59-16.5,67.7
		C309,338.9,308.8,339,308.6,339L308.6,339z M287.9,326.6l20.6,10.9c9.3-9,16.2-43.3,15.7-66.3c-0.2-10.4-2-17.5-4.9-19.9
		c-10.9-8.8-66-23-68.5-23.6l-37.6,0.1l29.9,33.3c6,0.8,47.6,6.3,51.8,10.5c1.2,1.2,2.4,5.6-1.9,29.6
		C290.9,312.8,288.4,324,287.9,326.6L287.9,326.6z"></path><polygon class="st0" points="245.3,369.1 243.5,384.9 258.8,392.2 262.2,370.4 	"></polygon><path class="st2" d="M258.8,393c-0.1,0-0.2,0-0.3-0.1l-15.3-7.3c-0.3-0.1-0.4-0.4-0.4-0.7l1.8-15.8c0-0.4,0.4-0.7,0.7-0.6
		c0,0,0,0,0,0l16.9,1.3c0.2,0,0.4,0.1,0.5,0.3c0.1,0.2,0.2,0.3,0.1,0.5l-3.5,21.8c0,0.2-0.2,0.4-0.4,0.5
		C259,393,258.9,393,258.8,393L258.8,393z M244.2,384.6l14,6.7l3.2-20.1l-15.5-1.2L244.2,384.6L244.2,384.6z"></path><path class="st2" d="M194.5,241.7c0,0,52.3,38.2,53,56.1s-6.2,74.4-6.2,74.4l26.3,6.3c0,0,19-75.1,12.5-94.2S237,225.2,237,225.2
		L194.5,241.7L194.5,241.7z"></path><path class="st2" d="M267.6,379.2c-0.1,0-0.1,0-0.2,0l-26.3-6.3c-0.3-0.1-0.6-0.4-0.5-0.8c0.1-0.6,6.9-56.6,6.2-74.3
		c-0.7-17.3-52.2-55.2-52.7-55.6c-0.3-0.2-0.4-0.7-0.2-1c0.1-0.1,0.2-0.2,0.3-0.2l42.4-16.5c0.3-0.1,0.6,0,0.8,0.2
		c1.5,1.6,36.9,40.3,43.3,59.3s-11.8,91.5-12.5,94.6C268.2,379,267.9,379.2,267.6,379.2L267.6,379.2z M242.1,371.7l25,6
		c1.9-7.5,18.4-75.4,12.4-93.1s-39-54.5-42.7-58.5L196,241.9c7.5,5.6,51.6,39.1,52.2,55.9S242.8,365.5,242.1,371.7L242.1,371.7z"></path><path class="st0" d="M194.1,131.5c-2.1-0.2-4-1-5.7-2.2c-3.2-2.3-4.8-6.2-6.2-9.9c-1.1-2.5-1.7-5.1-1.9-7.8
		c0.1-4.8,3.3-8.9,6.5-12.3c2.4-2.6,5.2-5.9,4-9.3c-0.4-0.7-0.6-1.4-0.7-2.2c-0.1-1.9,2.5-3,4.3-2.3s2.9,2.5,3.8,4.2
		c1.3-1.3,1.8-3.2,1.4-5c-0.2-0.7-0.4-1.5-0.1-2.1c0.3-0.4,0.8-0.7,1.3-0.8c5.1-1.1,10.2,2,11.5,7c0.9-1.6,1.2-3.5,0.6-5.3
		c8.7,3,14,11.9,12.5,21c-0.4,2.7-1.2,7.2-2.4,9.6c-0.6,1-1.4,1.9-2.4,2.6c-6.5,5.4-9.5,12.3-18.3,14.3
		C199.6,131.7,196.8,131.9,194.1,131.5L194.1,131.5z"></path><path class="st2" d="M196.6,132.4c-0.9,0-1.8-0.1-2.6-0.2c-2.2-0.3-4.2-1.1-6-2.3c-3.3-2.4-5-6.3-6.5-10.2c-1.1-2.8-2-5.3-1.9-8.1
		c0.1-5.1,3.4-9.3,6.7-12.8c2.6-2.8,4.9-5.8,3.9-8.6c-0.1-0.2-0.2-0.4-0.3-0.6c-0.3-0.6-0.5-1.2-0.5-1.8c0-1,0.5-1.9,1.3-2.5
		c1.2-0.8,2.6-1,3.9-0.5c1.6,0.8,2.8,2,3.6,3.6c0.6-1.1,0.9-2.3,0.6-3.6l-0.1-0.3c-0.3-0.7-0.3-1.6,0.1-2.3c0.4-0.6,1-1,1.7-1.1
		c2.6-0.6,5.4-0.2,7.7,1.3c1.7,1,3.1,2.6,4,4.4c0.2-1,0.2-2.1-0.1-3.1c-0.1-0.4,0.1-0.8,0.4-0.9c0.1,0,0.3,0,0.4,0
		c5.4,1.9,9.7,6.1,11.9,11.4c1.3,3.3,1.7,6.9,1.1,10.4c-0.5,3-1.2,7.3-2.4,9.8c-0.6,1.1-1.4,2-2.4,2.7l-0.2,0.1
		c-1.9,1.7-3.7,3.5-5.4,5.4c-3.6,3.9-7,7.6-13.2,9C200.5,132.1,198.6,132.3,196.6,132.4L196.6,132.4z M193.2,86
		c-0.6,0-1.2,0.2-1.7,0.5c-0.4,0.3-0.7,0.8-0.7,1.3c0.1,0.4,0.2,0.9,0.4,1.3c0.1,0.2,0.2,0.5,0.3,0.7c1.4,4-2.2,7.9-4.2,10
		c-3.1,3.3-6.2,7.3-6.3,11.9c-0.1,2.5,0.8,4.9,1.8,7.6c1.4,3.8,3,7.4,6,9.5c1.6,1.1,3.4,1.8,5.4,2.1l0,0c2.7,0.3,5.4,0.1,8-0.5
		c5.8-1.3,9-4.9,12.4-8.6c1.7-2,3.6-3.8,5.6-5.6l0.2-0.1c0.8-0.6,1.5-1.4,2.1-2.2c1.3-2.6,2.1-7.7,2.3-9.4
		c1.3-8.3-3.2-16.4-10.9-19.7c0.2,1.6-0.1,3.2-0.9,4.5c-0.1,0.2-0.4,0.4-0.7,0.3c-0.3,0-0.5-0.3-0.6-0.5c-1.2-4.7-5.9-7.5-10.7-6.5
		c-0.3,0.1-0.6,0.2-0.9,0.5c-0.1,0.4-0.1,0.9,0.1,1.2l0.1,0.3c0.5,2-0.1,4.1-1.5,5.6c-0.1,0.2-0.4,0.2-0.6,0.2
		c-0.2,0-0.4-0.2-0.5-0.3c-1-1.8-2-3.3-3.5-3.9C193.9,86,193.5,86,193.2,86L193.2,86z"></path><path class="st0" d="M224.1,117.6c0,0,4.9,9,3.6,10.7s-5.1,0.2-5.1,0.2"></path><path class="st2" d="M225.6,129.7c-1.1,0-2.2-0.3-3.3-0.7c-0.4-0.1-0.5-0.6-0.4-0.9c0.1-0.4,0.6-0.5,0.9-0.4c0.9,0.3,3.5,1.1,4.3,0
		c0.6-0.7-1.2-5.3-3.6-9.9c-0.2-0.3-0.1-0.8,0.3-0.9s0.8-0.1,0.9,0.3l0,0c1.5,2.8,5,9.6,3.5,11.4c-0.7,0.7-1.6,1.1-2.6,1
		L225.6,129.7z"></path><path class="st0" d="M223.9,106.2c3.3,3.2,1.8,9.3,1.4,13.3c-0.5,5.7-1.2,11.3-2,16.9c-0.5,3.6-9.8,2.8-11.3,1.6l-0.1,11.9
		c0,0-2.7,6.4-9.9,2.2s-8.5-9.1-8.5-9.1l2-16.3c0,0,6.1,0.6,10.4-6.4s5.1-18.2,5.1-18.2S220.6,103,223.9,106.2L223.9,106.2z"></path><path class="st2" d="M206.4,154.4c-1.7-0.1-3.4-0.6-4.8-1.5c-7.4-4.2-8.8-9.3-8.9-9.5c0-0.1,0-0.2,0-0.3l2-16.3
		c0.1-0.4,0.4-0.6,0.8-0.6c0.2,0,5.8,0.4,9.7-6.1c4.1-6.8,5-17.8,5-17.9c0-0.2,0.1-0.4,0.2-0.5c0.1-0.1,0.3-0.2,0.5-0.2
		c0.4,0,10.1,0.8,13.5,4.1l0,0c3,2.9,2.4,7.8,1.9,11.8c-0.1,0.8-0.2,1.5-0.3,2.2c-0.5,5.6-1.2,11.4-2,17c-0.2,1.2-1.1,2.2-2.3,2.5
		c-2.6,1-6.8,0.8-9,0.1l-0.2,10.8c0,0.1,0,0.2-0.1,0.3c-0.8,1.7-2.3,3.1-4.1,3.7C207.8,154.2,207.1,154.3,206.4,154.4L206.4,154.4z
		 M194.1,143.1c0.3,0.8,2,5,8.2,8.5c2.2,1.2,4.1,1.6,5.7,1.1c1.4-0.5,2.5-1.5,3.2-2.9l0.2-11.8c0-0.3,0.2-0.5,0.4-0.6
		c0.2-0.1,0.5-0.1,0.7,0.1c0.8,0.7,6,1.4,8.8,0.2c0.9-0.4,1.4-0.8,1.4-1.4c0.8-5.6,1.4-11.3,2-16.9c0.1-0.7,0.2-1.4,0.3-2.2
		c0.5-3.6,1.1-8.1-1.4-10.6s-9.7-3.4-12-3.7c-0.3,2.6-1.4,11.7-5.1,17.8s-8.6,6.7-10.4,6.8L194.1,143.1L194.1,143.1z"></path><path class="st0" d="M223.5,132.2c0,0-4.6,2.3-6.6-2.4"></path><path class="st2" d="M221,133.5c-0.6,0-1.2-0.1-1.8-0.3c-1.4-0.6-2.5-1.7-2.9-3.1c-0.1-0.4,0-0.8,0.4-0.9c0,0,0,0,0,0
		c0.4-0.1,0.8,0,0.9,0.4c0.3,1,1.1,1.9,2.1,2.3c1.1,0.3,2.4,0.2,3.5-0.3c0.3-0.2,0.8,0,0.9,0.3c0.2,0.3,0,0.8-0.3,0.9c0,0,0,0,0,0
		C222.9,133.3,222,133.5,221,133.5L221,133.5z"></path><path class="st0" d="M213,120.2c0-1.4-0.5-2.8-1.2-4c-0.5-1-1.1-1.9-1.8-2.7c-0.8-0.8-1.9-1.3-3-1.2c-1,0.2-1.8,0.7-2.4,1.6
		c-0.5,0.8-0.8,1.8-0.9,2.7c-0.6,4.3,1.2,8.6,4.7,11.2l-0.3-0.4"></path><path class="st2" d="M208.3,128.6c-0.2,0-0.3-0.1-0.4-0.1c-3.6-2.8-5.5-7.3-4.9-11.9c0.1-1.1,0.5-2.1,1.1-3c0.6-1,1.7-1.7,2.9-1.9
		c1.3-0.1,2.6,0.4,3.6,1.4c0.8,0.9,1.5,1.8,2,2.9c0.8,1.3,1.3,2.8,1.3,4.4c0,0.4-0.4,0.7-0.8,0.7c-0.4,0-0.7-0.4-0.7-0.7
		c0,0,0,0,0,0c0-1.3-0.5-2.6-1.2-3.6c-0.4-0.9-1-1.8-1.7-2.6c-0.6-0.7-1.5-1-2.4-1c-0.8,0.1-1.5,0.6-1.9,1.3
		c-0.5,0.7-0.7,1.6-0.8,2.4c-0.5,4,1.1,7.9,4.2,10.4l0.1-0.1l0.3,0.4c0.2,0.3,0.2,0.7-0.1,0.9C208.7,128.5,208.5,128.6,208.3,128.6
		L208.3,128.6z"></path><path class="st2" d="M212,138.1c0,0-4.7-1.9-6.6-5.4c0,0-0.4,8.6,6.7,11.8L212,138.1L212,138.1z"></path><path class="st2" d="M212.1,145.1c-0.1,0-0.2,0-0.3-0.1c-7.5-3.3-7.2-12.4-7.2-12.4c0-0.3,0.2-0.6,0.5-0.6c0.3-0.1,0.6,0.1,0.8,0.3
		c1.8,3.2,6.2,5.1,6.3,5.1c0.3,0.1,0.4,0.4,0.4,0.6l0.1,6.4C212.8,144.8,212.5,145.2,212.1,145.1
		C212.1,145.2,212.1,145.2,212.1,145.1L212.1,145.1z M206.2,135c0.4,2.4,1.5,6.2,5.2,8.3l-0.1-4.8
		C209.4,137.7,207.6,136.5,206.2,135L206.2,135z"></path><ellipse class="st2" transform="matrix(0.2509 -0.968 0.968 0.2509 56.0169 299.1317)" cx="221.3" cy="113.4" rx="2" ry="0.8"></ellipse><path class="st3" d="M187.2,138.9c0,0,20.7,1,29,12.1s15,53.7,19.1,56.6s15.6,18.6,15.5,19.4s-59.3,19.6-59.3,19.6
		s-3.5-13.6-10-31.3S170,140.2,187.2,138.9z"></path><path class="st2" d="M240.9,213.9c-0.2,0-0.4-0.1-0.5-0.3c-6.7-9-11.3-19.3-13.5-30.3c-3.1-17.2-8.8-27.6-8.8-27.7
		c-0.2-0.3-0.1-0.8,0.2-1c0.3-0.2,0.8-0.1,1,0.2c0,0,0,0.1,0,0.1c0.1,0.1,5.9,10.7,9,28.2c2.1,10.8,6.6,20.9,13.2,29.7
		c0.2,0.3,0.2,0.8-0.1,1c0,0,0,0,0,0C241.3,213.8,241.1,213.9,240.9,213.9L240.9,213.9z"></path><path class="st3" d="M204.1,156.3c0.5,0.6,23.9,37.9,23.9,37.9l46.6-22.4l11.4,13.2c0,0-39.2,29.6-54.5,34.6S180.9,170,181.4,164
		S197.4,148,204.1,156.3z"></path><path class="st2" d="M228,194.9c-0.2,0-0.5-0.1-0.6-0.3l-21.2-33.7c-0.2-0.3-0.1-0.8,0.2-1s0.8-0.1,1,0.2l20.8,33.2l24.7-12.9
		c0.4-0.1,0.8,0,0.9,0.4c0.1,0.3,0,0.7-0.3,0.9l-25.2,13.2C228.2,194.9,228.1,194.9,228,194.9L228,194.9z"></path><path class="st2" d="M230.4,219.6c-9.8,0-20.3-8.3-31.4-24.7c-0.2-0.3-0.2-0.8,0.2-1c0,0,0,0,0,0c0.3-0.2,0.8-0.2,1,0.2
		c0,0,0,0,0,0c12.1,17.9,23.4,25.9,33.6,23.7s30.5-18.1,30.7-18.3c0.3-0.2,0.8-0.1,1,0.2c0.2,0.3,0.1,0.7-0.1,0.9
		c-0.8,0.7-20.7,16.3-31.3,18.6C232.8,219.5,231.6,219.6,230.4,219.6L230.4,219.6z"></path><path class="st2" d="M212.5,148.2l-1.1,3.3l2.7,3.6c0,0-5.4,27.7-46.7,5.6l-13.3,4.8l7.9,10.7c0,0,49.7,19.1,53.5-20.8l0.7-4.4
		L212.5,148.2L212.5,148.2z"></path><path class="st2" d="M186.4,181.5c-3.2,0-6.3-0.3-9.4-0.8c-5.2-0.8-10.3-2.1-15.2-3.9c-0.1-0.1-0.2-0.1-0.3-0.2l-7.9-10.7
		c-0.1-0.2-0.2-0.4-0.1-0.6c0.1-0.2,0.2-0.4,0.4-0.4l13.3-4.8c0.2-0.1,0.4-0.1,0.6,0c15.6,8.3,27.8,10.5,36.2,6.5
		c4.6-2.3,8.1-6.4,9.4-11.4l-2.5-3.3c-0.1-0.2-0.2-0.4-0.1-0.6l1.1-3.3c0.1-0.2,0.2-0.4,0.4-0.4c0.2-0.1,0.4,0,0.6,0.1l3.7,2.8
		c0.2,0.2,0.3,0.4,0.3,0.7l-0.7,4.4c-1,10.1-4.9,17.3-11.8,21.6C199,180.4,192.5,181.5,186.4,181.5L186.4,181.5z M162.4,175.7
		c2.4,0.9,26.6,9.4,41.2,0.3c6.5-4,10.2-10.9,11.2-20.6l0.6-4.1l-2.6-2l-0.7,2.1l2.5,3.3c0.1,0.2,0.2,0.4,0.1,0.6
		c-1.3,5.5-5.1,10.2-10.2,12.7c-8.8,4.2-21.3,2-37.2-6.4l-12.1,4.4L162.4,175.7L162.4,175.7z"></path><path class="st2" d="M243.5,384.9c0,0-3.7,14-3.2,15.2s23.5,30.3,25.6,21.3s-7.1-29.2-7.1-29.2L243.5,384.9z"></path><path class="st2" d="M264,423.9c-6.6,0-23.9-22.2-24.4-23.4s1.8-10.4,3.2-15.7c0-0.2,0.2-0.4,0.4-0.5c0.2-0.1,0.4-0.1,0.6,0
		l15.3,7.3c0.1,0.1,0.3,0.2,0.3,0.3c0.4,0.8,9.4,20.5,7.2,29.6c-0.1,1.2-1.1,2.1-2.3,2.2L264,423.9L264,423.9z M243.9,385.9
		c-1.7,6.3-3.2,13.1-3,14c1,2,18.2,23.1,23.3,22.5c0.4,0,0.8-0.2,1-1.2c2-8.2-6-26.3-7-28.5L243.9,385.9L243.9,385.9z"></path><path class="st0" d="M268.2,264.1c-0.2,0-0.4-0.1-0.5-0.3l-19.9-25.3c-0.2-0.3-0.1-0.8,0.2-1c0.3-0.2,0.7-0.1,0.9,0.1l19.9,25.3
		c0.2,0.3,0.2,0.7-0.1,1c0,0,0,0,0,0C268.5,264.1,268.3,264.1,268.2,264.1L268.2,264.1z"></path></g><g id="Laptop"><path class="st0" d="M311.7,146.6c-0.4,0-19.5,54.3-19.5,54.3h52l10.9-56.8L311.7,146.6L311.7,146.6z"></path><path class="st2" d="M344.1,201.7h-52c-0.2,0-0.4-0.1-0.6-0.3c-0.1-0.2-0.2-0.4-0.1-0.6c19-54.1,19.5-54.8,20.2-54.8l43.3-2.5
		c0.2,0,0.4,0.1,0.6,0.2c0.1,0.2,0.2,0.4,0.2,0.6l-10.9,56.8C344.7,201.4,344.4,201.7,344.1,201.7L344.1,201.7z M293.1,200.3h50.4
		l10.6-55.3l-42,2.4C310.6,150.7,300.2,180,293.1,200.3L293.1,200.3z"></path><path class="st1" d="M302.5,183.6c-0.2,0-0.4-0.1-0.5-0.3c-0.1-0.2-0.2-0.4-0.1-0.6l6.3-19c0.1-0.3,0.3-0.4,0.6-0.5l8.1-1
		c0.2,0,0.5,0.1,0.6,0.2c0.1,0.2,0.2,0.4,0.1,0.6l-5.9,19.4c-0.1,0.3-0.3,0.5-0.6,0.5L302.5,183.6L302.5,183.6z M309.3,164.6
		l-5.9,17.6l7-0.5l5.4-17.9L309.3,164.6L309.3,164.6z"></path><path class="st1" d="M338.8,195.6h-27.1c-0.2,0-0.4-0.1-0.6-0.3c-0.1-0.2-0.2-0.4-0.1-0.6l13.3-44.4c0.1-0.3,0.3-0.5,0.6-0.5
		l25.2-1.9c0.2,0,0.4,0.1,0.6,0.2c0.1,0.2,0.2,0.4,0.1,0.6l-11.3,46.2C339.4,195.4,339.1,195.6,338.8,195.6L338.8,195.6z
		 M312.6,194.2h25.6l11-44.8l-23.7,1.7L312.6,194.2L312.6,194.2z"></path><polygon class="st0" points="344.1,201 344.6,167.5 356.1,113.8 355,144.2 	"></polygon><path class="st2" d="M344.1,201.7L344.1,201.7c-0.5,0-0.7-0.3-0.7-0.7l0.6-33.5l11.5-53.8c0.1-0.4,0.5-0.6,0.8-0.5
		c0.3,0.1,0.5,0.4,0.5,0.7l-1.1,30.4l-10.9,56.9C344.7,201.4,344.4,201.7,344.1,201.7L344.1,201.7z M355.1,121.8l-9.8,45.8
		l-0.4,25.3l9.4-48.9L355.1,121.8z"></path></g><g id="Screens"><path class="st0" d="M391.2,220.5c-8.1,8.9-28.9,26.1-71.5,26.7l-1.2,75.9c0,0,40.7,6.3,72.7-22.1V220.5z"></path><path class="st2" d="M328.3,324.4c-3.3,0-6.6-0.2-9.9-0.6c-0.3,0-0.6-0.3-0.6-0.7l1.2-75.9c0-0.4,0.3-0.7,0.7-0.7
		c41.4-0.6,62.2-16.8,71-26.5c0.2-0.2,0.5-0.3,0.8-0.2c0.3,0.1,0.4,0.4,0.5,0.6v80.5c0,0.2-0.1,0.4-0.2,0.5
		C369.4,321.4,342.5,324.4,328.3,324.4L328.3,324.4z M319.2,322.6c5.1,0.6,42.1,3.9,71.3-21.8v-78.5c-9.5,9.8-30.5,24.9-70.1,25.6
		L319.2,322.6z"></path><path class="st1" d="M329,314.2c-0.4,0-0.7-0.3-0.7-0.7c0-0.4,0.3-0.7,0.7-0.7c18.5-0.6,31.9-5.7,39.9-9.9
		c4.6-2.3,8.9-5.3,12.8-8.8v-52c0-0.4,0.3-0.7,0.7-0.7c0.4,0,0.7,0.3,0.7,0.7c0,0,0,0,0,0v52.2c0,0.2-0.1,0.4-0.2,0.5
		C382.6,295.1,365.1,313,329,314.2L329,314.2L329,314.2z"></path><path class="st1" d="M333.5,265.5c-0.4,0-0.7-0.4-0.6-0.8c0-0.3,0.3-0.6,0.6-0.6c0.1,0,10.6-0.7,16.3-4.6c0.3-0.2,0.7-0.2,1,0.1
		s0.2,0.7-0.1,1c0,0-0.1,0-0.1,0.1C344.5,264.8,334,265.5,333.5,265.5L333.5,265.5L333.5,265.5z"></path><path class="st1" d="M333.5,259c-0.4,0-0.7-0.3-0.7-0.7c0-0.4,0.3-0.7,0.7-0.7c0.1,0,10-0.3,16.3-4.6c0.3-0.2,0.7-0.2,1,0.1
		c0.2,0.3,0.2,0.7-0.1,1c0,0-0.1,0-0.1,0.1C343.9,258.6,333.9,259,333.5,259L333.5,259L333.5,259z"></path><path class="st1" d="M330.9,305.1c-0.2,0-0.3-0.1-0.5-0.2c-0.3-0.3-0.3-0.7,0-1c0.1-0.1,13.5-14.7,19.1-23.8
		c0.1-0.2,0.3-0.3,0.5-0.3c0.2,0,0.4,0.1,0.6,0.2l10.9,11.2c2-4,10.6-21.1,12.3-31.2l-5,3c-0.3,0.2-0.8,0.1-1-0.2s-0.1-0.8,0.2-1
		c0,0,0,0,0,0l6.3-3.8c0.3-0.2,0.8-0.1,1,0.2c0.1,0.1,0.1,0.3,0.1,0.4c-1.3,11.3-12.6,33.1-13.1,34c-0.2,0.3-0.6,0.5-0.9,0.3
		c-0.1,0-0.1-0.1-0.2-0.1l-10.9-11.3c-5.9,9.2-18.7,23.1-18.8,23.2C331.3,305,331.2,305.1,330.9,305.1L330.9,305.1z"></path><path class="st1" d="M376.8,265.5c-0.3,0-0.6-0.2-0.7-0.5l-2.1-6.1c-0.1-0.4,0.1-0.8,0.4-0.9c0.4-0.1,0.8,0.1,0.9,0.4l2.1,6.1
		c0.1,0.4-0.1,0.8-0.4,0.9c0,0,0,0,0,0C376.9,265.5,376.8,265.5,376.8,265.5L376.8,265.5z"></path><path class="st1" d="M153.1,111.5c0,0-34.6-1.7-41.6,21.1v45.7c0,0,26.9-21.2,41.6-14.1V111.5z"></path><path class="st2" d="M111.4,179.1c-0.1,0-0.2,0-0.3-0.1c-0.2-0.1-0.4-0.4-0.4-0.6v-45.7c0-0.1,0-0.1,0-0.2
		c7.1-23.1,42-21.7,42.3-21.6c0.4,0,0.7,0.3,0.7,0.7v52.7c0,0.2-0.1,0.5-0.3,0.6c-0.2,0.1-0.5,0.1-0.7,0
		c-14.2-6.8-40.6,13.8-40.9,14C111.7,178.9,111.6,179,111.4,179.1L111.4,179.1z M112.1,132.7v44.2c5.2-3.9,26.8-19,40.2-13.8v-51
		C147.6,112.1,118.4,112.5,112.1,132.7L112.1,132.7z"></path><path class="st0" d="M111.4,132.6c0,0,2.4,18.7,14,22.7v40.6c0,0-8.8-3.9-14-17.5V132.6z"></path><path class="st2" d="M125.4,196.6c-0.1,0-0.2,0-0.3-0.1c-0.4-0.2-9.1-4.2-14.4-17.9c0-0.1,0-0.2,0-0.2v-45.7c0-0.4,0.3-0.7,0.7-0.7
		c0.4,0,0.7,0.2,0.7,0.6c0,0.2,2.5,18.3,13.5,22.1c0.3,0.1,0.5,0.4,0.5,0.7v40.6c0,0.2-0.1,0.5-0.3,0.6
		C125.7,196.5,125.6,196.6,125.4,196.6L125.4,196.6z M112.1,178.2c4,10.4,10.2,15,12.6,16.4v-38.9c-7.2-2.8-10.9-10.9-12.6-16.7
		V178.2L112.1,178.2z"></path></g></svg>