<svg transform="scale(1)" id="_0673_Team_Work_6" data-name="0673_Team Work 6" xmlns="http://www.w3.org/2000/svg" viewBox="0 0 500 500" class="show_show__wrapper__graphic__5Waiy "><title>React</title><defs><style>
      .cls-1 {
        fill: #68e1fd;
      }

      .cls-1, .cls-2, .cls-3 {
        stroke-width: 0px;
      }

      .cls-2 {
        fill: #fff;
      }

      .cls-3 {
        fill: #231f20;
      }
    </style></defs><g id="Floor"><path class="cls-3" d="M468.83,365.79H48.18c-.41,0-.75-.34-.75-.75s.34-.75.75-.75h420.66c.41,0,.75.34.75.75s-.34.75-.75.75Z"></path></g><g id="Desk"><g><rect class="cls-2" x="163.07" y="239.14" width="242.76" height="140.14"></rect><path class="cls-3" d="M405.83,380.03h-242.76c-.41,0-.75-.34-.75-.75v-140.14c0-.41.34-.75.75-.75h242.76c.41,0,.75.34.75.75v140.14c0,.41-.34.75-.75.75ZM163.82,378.53h241.26v-138.64h-241.26v138.64Z"></path></g><g><g><rect class="cls-2" x="285.91" y="249.25" width="112.79" height="119.93" transform="translate(684.61 618.42) rotate(180)"></rect><path class="cls-3" d="M398.7,369.92h-112.79c-.41,0-.75-.34-.75-.75v-119.93c0-.41.34-.75.75-.75h112.79c.41,0,.75.34.75.75v119.93c0,.41-.34.75-.75.75ZM286.66,368.42h111.29v-118.43h-111.29v118.43Z"></path></g><g><circle class="cls-2" cx="299.03" cy="310.64" r="3.97"></circle><path class="cls-3" d="M299.03,315.36c-2.6,0-4.72-2.12-4.72-4.72s2.12-4.72,4.72-4.72,4.72,2.12,4.72,4.72-2.12,4.72-4.72,4.72ZM299.03,307.42c-1.78,0-3.22,1.44-3.22,3.22s1.44,3.22,3.22,3.22,3.22-1.44,3.22-3.22-1.45-3.22-3.22-3.22Z"></path></g></g><g><g><rect class="cls-2" x="170.19" y="249.25" width="112.79" height="119.93"></rect><path class="cls-3" d="M282.99,369.92h-112.79c-.41,0-.75-.34-.75-.75v-119.93c0-.41.34-.75.75-.75h112.79c.41,0,.75.34.75.75v119.93c0,.41-.34.75-.75.75ZM170.94,368.42h111.29v-118.43h-111.29v118.43Z"></path></g><g><circle class="cls-2" cx="269.86" cy="310.64" r="3.97"></circle><path class="cls-3" d="M269.86,315.36c-2.6,0-4.72-2.12-4.72-4.72s2.12-4.72,4.72-4.72,4.72,2.12,4.72,4.72-2.12,4.72-4.72,4.72ZM269.86,307.42c-1.78,0-3.22,1.44-3.22,3.22s1.44,3.22,3.22,3.22,3.22-1.44,3.22-3.22-1.45-3.22-3.22-3.22Z"></path></g></g><g><rect class="cls-2" x="163.07" y="207.59" width="242.76" height="31.55"></rect><path class="cls-3" d="M405.83,239.89h-242.76c-.41,0-.75-.34-.75-.75v-31.55c0-.41.34-.75.75-.75h242.76c.41,0,.75.34.75.75v31.55c0,.41-.34.75-.75.75ZM163.82,238.39h241.26v-30.05h-241.26v30.05Z"></path></g><g><rect class="cls-2" x="282.99" y="249.25" width="2.92" height="119.93"></rect><path class="cls-3" d="M285.91,369.92h-2.92c-.41,0-.75-.34-.75-.75v-119.93c0-.41.34-.75.75-.75h2.92c.41,0,.75.34.75.75v119.93c0,.41-.34.75-.75.75ZM283.74,368.42h1.42v-118.43h-1.42v118.43Z"></path></g></g><g id="Plant"><path class="cls-3" d="M52.72,217.4s-2.37,17.38.55,23.57c2.91,6.19,3.28,5.1,2,16.76s.96,12.88,5.65,17.76c3.32,3.46,3.46,8.11,3.28,12.66-.18,4.61,3.83,9.11,4.01,12.2l-.91-34.24-5.83-41.35-8.74-7.36Z"></path><path class="cls-3" d="M69.73,291.47c-.18-3.44,6.13-7.11,6.62-11.86.85-8.16-3.76-17.33-3.43-18.24,1.6-4.32,2.16-9.47-.4-13.3-1.07-1.6-2.63-2.88-3.46-4.62-2.36-4.97,2.11-11.18-.13-16.21-1.29-2.88-4.39-4.42-7.26-5.74-2.99-1.36-5.98-2.74-8.96-4.1,2.42,5.49,4.85,11.01,6.43,16.8,2.01,7.35,4.53,22.38,4.53,22.38.26,1,2.69,17.14,4.08,36.25,1.8,24.64,2.52,54.78,1.41,69.7l1.43.11c1.38-18.54.25-49.46-.86-71.17"></path><path class="cls-3" d="M63.25,320.91c.42-.26.86-.76,1.34-1.6,2.64-4.59,3.93-9.95,3.61-15.25h0c-.14-2.33-.6-4.71-1.96-6.6-1.02-1.41-2.49-2.49-3.35-4.01-1.49-2.62-.85-5.9-1.39-8.87-.45-2.47-1.76-4.76-3.66-6.4-1.69-1.46-3.79-2.38-5.42-3.91-2.67-2.51-3.68-6.26-5.33-9.53-2.33-4.58-6.14-8.4-10.71-10.74,3.1,5.16-2.45,12.48.74,17.59,1.01,1.62,2.77,2.72,3.56,4.46,1.89,4.2-2.89,9.3-.9,13.45.99,2.08,3.39,3.13,4.61,5.08,1.66,2.62.79,6.04,1.15,9.12.5,4.25,3.4,7.86,6.71,10.57,2.07,1.69,4.33,3.11,6.54,4.6,1.33.91,2.3,1.86,3.19,2.16,1.11,5.15,7.92,36.58,10.12,46.01h0s1.22-.28,1.22-.28c-2.18-9.36-8.9-40.35-10.09-45.86Z"></path><path class="cls-3" d="M92.9,279.17c.29-.96,1-1.72,1.55-2.55,2.23-3.3,2.2-7.72.89-11.48-1.31-3.76-3.74-7.01-6.15-10.18-.33,5.64-2.65,11.13-6.46,15.3-1.67,1.82-3.7,3.56-4.19,5.98-.5,2.47.77,5.01.48,7.51-.45,3.82-4.25,6.32-5.77,9.86-1.34,3.12-.78,6.72.02,10.02h0c.71,2.92,1.83,5.74,2.45,8.67.29,1.37.38,2.28,1.05,2.62-2.96,11.81-6.81,48.53-6.89,59.21h1.26c.11-14.72,4.49-49.03,6.92-59.12.2-.03.41-.07.66-.13,4.22-1.02,7.62-5.23,7.96-9.5.1-1.26-.02-2.56.38-3.77,1.07-3.33,5.29-4.39,7.48-7.12,1.83-2.28,1.99-5.64.76-8.29-1.07-2.31-3.16-4.59-2.41-7.02Z"></path><g><polygon class="cls-2" points="73.83 371.76 73.82 371.76 73.82 371.76 73.83 371.76"></polygon><path class="cls-3" d="M73.82,372.51c-.1,0-.19-.02-.29-.06-.28-.12-.46-.39-.46-.69,0-.03,0-.06,0-.09.04-.38.36-.67.75-.67.3,0,.58.18.7.46s.06.6-.16.82h0c-.14.15-.33.23-.53.23Z"></path></g><g><path class="cls-2" d="M55.85,334.52h29.36l-2.06,33.35c-.35,5.77-4.63,10.25-9.78,10.25h-5.68c-5.16,0-9.43-4.48-9.78-10.25l-2.06-33.35Z"></path><path class="cls-3" d="M73.37,378.86h-5.68c-5.53,0-10.16-4.81-10.53-10.95l-2.06-33.35c-.01-.21.06-.41.2-.56.14-.15.34-.24.55-.24h29.36c.21,0,.4.09.55.24.14.15.21.35.2.56l-2.06,33.35c-.38,6.14-5,10.95-10.53,10.95ZM56.64,335.27l2.01,32.55c.33,5.35,4.3,9.54,9.04,9.54h5.68c4.74,0,8.71-4.19,9.04-9.54l2.01-32.55h-27.77Z"></path></g></g><g id="Character_2" data-name="Character 2"><g><path class="cls-2" d="M352.08,412.51s-32.55-.23-31.79-6.08c1.58-12.19,35.01-12.19,35.01-12.19l-3.22,18.27Z"></path><path class="cls-3" d="M352.08,413.26h0c-2.83-.02-27.82-.33-31.89-4.99-.51-.58-.73-1.25-.64-1.94,1.64-12.7,34.36-12.84,35.75-12.84.22,0,.43.1.57.27.14.17.2.39.16.61l-3.22,18.27c-.06.36-.37.62-.74.62ZM354.4,395c-2.38.05-9.12.29-15.9,1.5-7.55,1.35-16.71,4.18-17.46,10.02-.02.16-.01.41.28.76,2.99,3.42,22.18,4.38,30.13,4.47l2.95-16.75Z"></path></g><path class="cls-1" d="M416.08,304.05s17.34,15.27,22.48,27.08c5.15,11.8-5.72,39.44-5.72,39.44l-16.77-66.52Z"></path><g id="Character"><g><path class="cls-2" d="M314.21,318.55s-4.27-10.02-5.97-11.91c-1.7-1.89-14.03-7.55-14.13-6.22-.09,1.28,2.85,3.07,3.68,3.72,1.25.97,2.55,1.87,3.83,2.8-2.52,1.12-5.01,4.1-6.08,6.62-.94,2.23-.83,4.99.68,6.89.42.53.96,1,1.62,1.15s1.44-.1,1.75-.7l.17.2c1.4,1.65,2.89,3.32,4.73,4.5,1.46.93,3.24.99,4.44,2.15,1.75,1.68,3.16,3.97,4.67,5.86,2.81,3.53,9.4,6.68,12.21,10.2l5.77-13.71-17.36-11.54Z"></path><path class="cls-3" d="M325.8,344.55c-.23,0-.44-.1-.59-.28-1.34-1.68-3.68-3.35-5.95-4.96-2.35-1.67-4.79-3.4-6.26-5.25-.51-.64-1-1.32-1.5-2-.97-1.33-1.98-2.71-3.09-3.78-.57-.55-1.35-.82-2.18-1.11-.71-.25-1.44-.5-2.14-.95-1.75-1.11-3.16-2.62-4.53-4.22-.53.34-1.21.47-1.88.32-.75-.17-1.43-.65-2.04-1.41-1.58-2-1.89-5-.78-7.64.93-2.21,2.99-4.92,5.36-6.42l-.14-.1c-.92-.66-1.84-1.32-2.73-2.01-.14-.11-.34-.25-.58-.42-1.84-1.3-3.49-2.58-3.39-3.95.03-.38.28-.69.65-.82,1.98-.67,13.26,4.91,14.78,6.6,1.65,1.83,5.28,10.21,6.01,11.91l17.18,11.42c.3.2.42.58.28.92l-5.77,13.71c-.1.24-.33.42-.59.45-.03,0-.07,0-.1,0ZM299.59,320.14c.22,0,.42.09.57.26l.17.2c1.42,1.67,2.83,3.25,4.56,4.35.55.35,1.17.57,1.83.79.95.33,1.92.67,2.73,1.45,1.21,1.16,2.26,2.6,3.27,3.98.49.67.97,1.33,1.47,1.95,1.34,1.68,3.68,3.35,5.95,4.96,1.96,1.39,3.97,2.82,5.44,4.33l5.07-12.04-16.85-11.2c-.12-.08-.22-.2-.28-.33-1.17-2.76-4.51-10.23-5.83-11.7-1.37-1.52-9.8-5.39-12.51-6.07.36.42,1.08,1.05,2.45,2.02.26.18.48.34.64.46.88.68,1.79,1.33,2.69,1.97l1.12.81c.22.16.33.42.31.69-.03.27-.2.5-.44.61-2.44,1.08-4.76,4.02-5.69,6.23-.9,2.14-.68,4.55.57,6.13.27.34.69.76,1.2.88.37.09.78-.06.92-.31.11-.22.33-.37.58-.4.03,0,.06,0,.09,0ZM294.87,300.47h0s0,0,0,0Z"></path></g><g><path class="cls-2" d="M324.6,386.17c-.17.35-9.27,10.24-14.22,17.86-2.31,6.07-4.73,8.31-4.73,8.31,0,0-42.46,1.21-42.81-2.95-.36-4.15,28.95-13.01,28.95-13.01l15.1-20.42,17.72,10.2h0Z"></path><path class="cls-3" d="M292.63,413.26c-2.63,0-5.45-.02-8.27-.08-21.99-.45-22.17-2.58-22.27-3.72-.37-4.37,21.97-11.51,29.24-13.72l14.95-20.22c.23-.31.65-.39.98-.2l17.72,10.2c.23.13.38.38.38.65,0,.12-.03.24-.08.34-.07.15-.16.25-1.33,1.6-2.71,3.1-9.03,10.35-12.89,16.27-2.33,6.11-4.79,8.43-4.89,8.52-.13.12-.31.19-.49.2-.08,0-5.83.16-13.05.16ZM307.09,376.95l-14.7,19.88c-.1.13-.23.23-.39.27-13.81,4.17-28.61,10.03-28.42,12.22,1.02,2.09,22.4,2.81,41.74,2.28.59-.65,2.51-2.99,4.35-7.84.02-.05.04-.1.07-.14,3.91-6.02,10.32-13.37,13.06-16.51.24-.27.46-.53.65-.75l-16.37-9.42ZM324.6,386.17h0,0Z"></path></g><path class="cls-3" d="M398.64,369.57s-57.42-31.81-63.46-29.4c-6.04,2.42-43.39,52.06-43.39,52.06l21.97,10.37s27.37-25.6,31.49-24.8,32.27,30.41,32.27,30.41c0,0,22.56-22.15,21.12-38.66h0Z"></path><path class="cls-3" d="M439.25,413.45c-8.89,18.9-86.03,13.52-98.89,13.9-17.42.51-11.78-32.86,20.44-36.29,19.48-3.97,26.7-6.13,26.7-6.13l54.84-8.66s7.94,13.71-3.1,37.18Z"></path><path class="cls-1" d="M429.72,334.78c-3.97-10.1-5.08-23.65-17.01-34.07-11.92-10.42-34.28-7.19-42.46,3.34-8.18,10.53,12.91,81.32,12.91,81.32,0,0,40.06,3.17,60.99-5.49,0,0-10.46-35-14.43-45.1Z"></path><path class="cls-1" d="M370.24,304.05s-9.37,4.73-12.08,14.88c-2.71,10.14-4.95,23.66-4.95,23.66l-33.37-21.82-9.47,15.53s31.3,24.1,45.01,33.12,28.14-37.89,28.14-37.89l-13.29-27.48h0Z"></path><g><path class="cls-2" d="M373.23,270.27s-6.4,6.25-5.73,7.98c.67,1.73,4.2,1.44,4.2,1.44"></path><path class="cls-3" d="M371.1,280.46c-1.21,0-3.63-.22-4.3-1.94-.74-1.91,3.38-6.32,5.9-8.79.3-.29.77-.28,1.06.01.29.3.28.77-.01,1.06-3.12,3.05-5.71,6.41-5.55,7.18.35.9,2.47,1.03,3.44.95.41-.03.77.27.81.69.03.41-.27.77-.69.81-.09,0-.33.02-.67.02Z"></path></g><g><path class="cls-2" d="M376.34,260.85c-3.61,1.84-3.87,7.33-4.58,10.79-1.01,4.85-1.91,9.73-2.69,14.63-.5,3.1,7.44,4.89,9.05,4.27l-3.62,7.17,17.85,1.89,1.48-10.18s4.64-13.52,2.88-20.44c-1.76-6.93-8.45-8.05-8.45-8.05,0,0-8.4-1.87-11.93-.07h0Z"></path><path class="cls-3" d="M392.35,300.34s-.05,0-.08,0l-17.85-1.89c-.25-.03-.46-.17-.58-.39-.12-.22-.12-.48-.01-.7l3.02-5.98c-2.11-.09-5.41-.97-7.18-2.41-1.31-1.06-1.45-2.13-1.33-2.84.78-4.89,1.69-9.82,2.7-14.66.12-.57.22-1.2.33-1.86.58-3.45,1.3-7.74,4.64-9.44.03-.02.06-.03.09-.04,3.76-1.83,11.99-.03,12.34.05.25.04,7.15,1.28,9.01,8.59,1.75,6.88-2.48,19.64-2.88,20.81l-1.47,10.11c-.05.37-.37.64-.74.64ZM375.66,297.07l16.05,1.7,1.38-9.46s.02-.09.03-.14c.04-.13,4.55-13.39,2.87-20.02-1.61-6.35-7.59-7.45-7.84-7.49-.12-.03-8.22-1.8-11.46-.14-.03.01-.05.02-.08.03-2.6,1.4-3.25,5.23-3.76,8.32-.11.68-.22,1.33-.34,1.92-1,4.82-1.91,9.73-2.69,14.59-.07.46.19.95.8,1.43,2.02,1.64,6.38,2.35,7.24,2.02.29-.11.62-.03.83.2.21.23.25.56.11.84l-3.13,6.2Z"></path></g><g><path class="cls-2" d="M395.98,295.63l-2.89-4.88-21.55,7.84-2.17,5.32s15.3,1.71,26.61-8.29h0Z"></path><path class="cls-3" d="M372.16,304.79c-1.67,0-2.72-.11-2.87-.13-.23-.03-.44-.16-.56-.36s-.14-.45-.05-.67l2.17-5.32c.08-.2.24-.35.44-.42l21.55-7.84c.34-.12.72.01.9.32l2.89,4.88c.18.31.12.71-.15.94-8.59,7.6-19.27,8.6-24.31,8.6ZM370.46,303.24c3.49.16,15.34.04,24.55-7.77l-2.25-3.8-20.65,7.51-1.65,4.05Z"></path></g><path class="cls-3" d="M384.62,288.19c-.03.12-.07.25-.1.36-1.87,6.88-2.18,14.22-.92,21.23.76,4.23,2.13,8.45,4.76,11.84,2.62,3.38,6.34,5.77,10.28,7.44,3.39,1.44,7.1,2.41,10.75,1.96,6.08-.75,11.22-5.48,13.49-11.17,2.27-5.69,1.96-12.16.25-18.04-1.81-6.23-5.54-11.56-7.43-17.71-2.04-6.67-2.36-13.95-4.9-20.43-4.03-10.29-14.4-13.9-25.44-11.53-9.44-6.07-16.37,5.21-14.91,10.71,2.22,5.55,5.64,1.9,5.75.86-.3,2.79,2.53,10.08,8.89,10.14,4.92,5.25,1.17,8.69-.49,14.33h0Z"></path><g><path class="cls-2" d="M369.96,282.67s3.25,3.12,6.1-.33"></path><path class="cls-3" d="M373.03,284.72c-2,0-3.52-1.44-3.59-1.5-.3-.29-.31-.76-.02-1.06s.76-.31,1.06-.02h0s1.28,1.18,2.72,1.08c.82-.05,1.59-.5,2.29-1.35.26-.32.74-.37,1.06-.1.32.26.37.74.1,1.06-.97,1.18-2.1,1.82-3.36,1.89-.08,0-.16,0-.24,0Z"></path></g><g><path class="cls-2" d="M381.61,275.99c9.33-14.14,11.29,5.5,2.14,6.82"></path><path class="cls-3" d="M383.75,283.56c-.37,0-.69-.27-.74-.64-.06-.41.23-.79.64-.85,3.23-.47,4.97-3.6,5.26-6.5.19-1.93-.3-3.55-1.18-3.87-.94-.33-2.87.73-5.49,4.7-.23.34-.69.44-1.04.21-.35-.23-.44-.69-.21-1.04,3.47-5.26,5.85-5.78,7.24-5.29,1.59.56,2.44,2.69,2.17,5.43-.35,3.48-2.5,7.25-6.54,7.83-.04,0-.07,0-.11,0Z"></path></g><ellipse class="cls-3" cx="374.32" cy="271.99" rx="1.77" ry=".7" transform="translate(13.28 561.37) rotate(-74.72)"></ellipse></g><g><line class="cls-2" x1="427.13" y1="326.89" x2="441.79" y2="372.07"></line><path class="cls-3" d="M441.79,372.82c-.32,0-.61-.2-.71-.52l-14.66-45.17c-.13-.39.09-.82.48-.94.4-.13.82.09.95.48l14.66,45.17c.13.39-.09.82-.48.94-.08.02-.16.04-.23.04Z"></path></g><g><path class="cls-2" d="M377.88,346.74s-4.08,10.89-10.43,18.55"></path><path class="cls-3" d="M367.45,366.04c-.17,0-.34-.06-.48-.17-.32-.26-.36-.74-.1-1.06,6.2-7.47,10.26-18.22,10.31-18.33.14-.39.58-.58.96-.44.39.15.58.58.44.97-.17.45-4.19,11.09-10.56,18.76-.15.18-.36.27-.58.27Z"></path></g><g><line class="cls-2" x1="357.38" y1="344.66" x2="353.22" y2="342.59"></line><path class="cls-3" d="M357.38,345.42c-.11,0-.23-.03-.33-.08l-4.16-2.07c-.37-.19-.52-.64-.34-1.01.18-.37.63-.52,1-.34l4.16,2.07c.37.19.52.64.34,1.01-.13.26-.4.42-.67.42Z"></path></g><path class="cls-2" d="M349.79,393.49c-.36,0-.67-.25-.74-.61-.08-.41.19-.8.6-.87l22.88-4.19c.4-.07.8.2.87.6.08.41-.19.8-.6.87l-22.88,4.19s-.09.01-.14.01Z"></path><path class="cls-3" d="M312.85,413.26h-65.23c-.41,0-.75-.34-.75-.75s.34-.75.75-.75h65.23c.41,0,.75.34.75.75s-.34.75-.75.75Z"></path><path class="cls-3" d="M444.15,428.1h-123.87c-.41,0-.75-.34-.75-.75s.34-.75.75-.75h123.87c.41,0,.75.34.75.75s-.34.75-.75.75Z"></path></g><g id="Character_1" data-name="Character 1"><g><path class="cls-2" d="M193.41,225.13s4.63-15.75,6.49-16.68c2.13-1.07,0,9.5,0,9.5,0,0,9.27-15.98,10.89-15.98s-1.62,6.95-1.62,6.95c0,0,6.1-8.45,7.88-7.18,1.62,1.16-6.49,11.12-6.49,11.12,0,0,6.34-7.26,8.34-4.86,1.16,1.39-6.25,7.88-6.25,7.88,0,0,6.25-3.24,8.11-1.62.86.76-5.03,5.37-9.73,10.42-5.38,5.78-9.73,12.05-9.73,12.05l-7.88-11.58Z"></path><path class="cls-3" d="M201.29,237.46h0c-.25,0-.48-.12-.62-.33l-7.88-11.58c-.13-.19-.16-.42-.1-.63,1.42-4.83,4.93-16.17,6.87-17.14.46-.23.94-.2,1.31.08.89.68.84,3.28.46,6.17,5.07-8.51,8.25-12.82,9.46-12.82.4,0,.76.19.97.53.34.54.23,1.59-.1,2.79,3.48-3.95,5.11-3.91,5.81-3.41.2.14.45.41.51.89.15,1.12-1.06,3.33-2.55,5.55.85-.49,1.66-.81,2.4-.81.66,0,1.22.27,1.62.75.84,1.01-.26,3.04-3.27,6.07,1.88-.58,3.94-.87,5.04.1.21.19.33.45.34.74.02.94-1.11,2.09-4.59,5.39-1.71,1.62-3.65,3.46-5.43,5.37-5.28,5.67-9.62,11.9-9.66,11.96-.14.2-.37.32-.62.32ZM194.23,225l7.07,10.4c1.41-1.94,5-6.76,9.17-11.24,1.81-1.95,3.77-3.8,5.49-5.44,1.64-1.56,3.48-3.3,4-4.08-1.32-.48-4.82.78-6.97,1.89-.34.17-.75.07-.96-.24-.21-.31-.16-.74.12-.99,3.31-2.9,6.07-6.01,6.12-6.89-.11-.11-.25-.16-.44-.16h-.01c-1.63,0-4.97,3.12-6.69,5.09-.27.31-.74.34-1.05.08-.31-.26-.36-.73-.1-1.05,3.21-3.94,6.49-8.78,6.54-10.04-.93.08-4.07,3.31-6.74,7.01-.23.31-.65.4-.99.21-.33-.2-.46-.61-.3-.96,1.03-2.2,1.82-4.45,1.98-5.53-1.68,1.73-6.13,8.72-9.92,15.26-.18.32-.57.46-.91.33-.34-.13-.54-.49-.47-.85.67-3.32,1.13-7.22.87-8.47-1.16,1.47-3.8,8.94-5.8,15.67Z"></path></g><path class="cls-1" d="M149.17,219.33s22.7,18.76,25.48,21.54,18.99-18.99,18.99-18.99l14.36,16.68s-18.53,23.63-26.41,27.8c-7.88,4.17-37.99-18.07-37.99-18.07l5.56-28.95Z"></path><g><path class="cls-2" d="M81.91,239.7s8.56-5.52,28.16-2.76l22.42,72.04-27.33,12.28-23.25-81.56Z"></path><path class="cls-3" d="M105.16,322.01c-.11,0-.22-.02-.32-.07-.2-.09-.34-.27-.41-.47l-23.25-81.56c-.09-.32.04-.66.32-.84.36-.23,9.02-5.64,28.67-2.87.29.04.53.24.61.52l22.42,72.04c.11.36-.06.75-.41.91l-27.33,12.28c-.1.04-.2.07-.31.07ZM82.79,240.06l22.85,80.15,25.94-11.65-22.08-70.95c-16.27-2.2-24.69,1.41-26.7,2.45Z"></path></g><g><line class="cls-2" x1="130.17" y1="325.44" x2="144.64" y2="408.04"></line><path class="cls-3" d="M144.63,408.79c-.36,0-.67-.26-.74-.62l-14.46-82.6c-.07-.41.2-.8.61-.87.4-.07.8.2.87.61l14.46,82.6c.07.41-.2.8-.61.87-.04,0-.09.01-.13.01Z"></path></g><path class="cls-3" d="M164.46,408.01h53.63c3.09,0,4.4-3.93,1.93-5.78-1.01-.76-2.23-1.47-3.66-2.01-6.25-2.36-19.81-3.53-22.05-6.01-2.24-2.47-2.87-6.01-2.87-6.01l-20.85-1.62s-7.3,10.19-6.14,21.43Z"></path><g><polygon class="cls-2" points="173.72 378.93 171.87 387.97 188.78 388.89 190.87 379.63 173.72 378.93"></polygon><path class="cls-3" d="M188.78,389.64s-.03,0-.04,0l-16.91-.93c-.22-.01-.42-.12-.55-.29-.13-.17-.18-.4-.14-.61l1.85-9.03c.07-.36.39-.63.76-.6l17.14.69c.22,0,.43.12.56.29.14.18.19.4.14.62l-2.08,9.27c-.08.34-.38.59-.73.59ZM172.78,387.27l15.41.84,1.75-7.77-15.61-.63-1.55,7.56Z"></path></g><g><path class="cls-3" d="M158.22,295.87s38.48-2.14,44.81,2.79c6.34,4.94-9.39,85.37-9.39,85.37l-24.09-1.39s-2.15-46.68.91-56.73c3.06-10.05-19.95-24.7-19.95-24.7l7.7-5.33Z"></path><path class="cls-3" d="M185.78,307.42c-.41,0-.75-.34-.75-.75s.33-.75.75-.75h0c.41,0,.75.34.75.75s-.34.75-.75.75Z"></path></g><g><g><path class="cls-2" d="M168.53,273.38c-.16,5.74-.93,22.41.8,24.13,2.08,2.08,9.38,2.78,9.38,2.78,0,0,3.94-19.05,4.86-25.25.52-3.47-14.94-5.15-15.04-1.66Z"></path><path class="cls-3" d="M178.71,301.04s-.05,0-.07,0c-.77-.07-7.63-.78-9.84-3-1.48-1.48-1.52-9.38-1.08-22.53l.07-2.16c.02-.56.28-1.34,1.43-1.9,3.01-1.47,11.09-.63,13.93,1.45,1.12.82,1.25,1.67,1.17,2.25-.92,6.14-4.83,25.1-4.87,25.29-.07.35-.38.6-.73.6ZM173.71,272.19c-1.58,0-2.98.19-3.84.61-.39.19-.58.39-.59.6h0l-.07,2.17c-.16,4.96-.66,20.06.64,21.42,1.4,1.4,5.94,2.21,8.25,2.49.7-3.43,3.9-19.09,4.72-24.54.04-.3-.29-.61-.57-.81-1.61-1.18-5.42-1.92-8.55-1.92ZM168.53,273.38h0,0Z"></path></g><g><path class="cls-2" d="M168.53,273.38s.97,1.72,5.49,2.59c6.5,1.25,9.56-.93,9.56-.93"></path><path class="cls-3" d="M177.85,277.11c-1.16,0-2.48-.11-3.98-.4-4.72-.91-5.88-2.75-6-2.96-.2-.36-.08-.82.29-1.02.36-.2.81-.08,1.01.27.04.06,1.03,1.48,4.98,2.24,6.04,1.16,8.96-.79,8.98-.8.34-.23.81-.15,1.04.19.24.34.16.8-.18,1.04-.11.07-2.1,1.45-6.15,1.45Z"></path></g></g><g><path class="cls-2" d="M131.33,383.57s-4.62,7.9-6.25,11.12l19.23-.93,7.88-9.54s-19.27-3.91-20.85-.65Z"></path><path class="cls-3" d="M125.08,395.44c-.25,0-.49-.13-.63-.34-.14-.22-.16-.51-.04-.75,1.6-3.15,5.95-10.59,6.26-11.14,1.77-3.46,17.01-.66,21.66.28.26.05.47.24.56.48.09.25.04.52-.13.73l-7.88,9.54c-.13.16-.33.26-.54.27l-19.23.93s-.02,0-.04,0ZM136.18,383.01c-2.31,0-3.87.27-4.17.89,0,.02-.02.04-.03.05-.04.07-3.7,6.34-5.63,9.93l17.59-.85,6.86-8.31c-5.34-1.02-10.93-1.71-14.62-1.71ZM131.33,383.57h0,0Z"></path></g><path class="cls-3" d="M106.21,306.23s-.87,9.47,9.03,16.17c9.91,6.71,38.11,3.71,38.11,3.71l-27.89,58.97,28.47,2.33s40.3-66.47,39.71-77.54c-.59-11.08-17.2-13.11-17.2-13.11h-67.17l-3.06,9.47h0Z"></path><path class="cls-1" d="M109.28,299.46s-5.65-40.24-10.14-64.6c-3.24-17.6,17.16-18.42,18.99-18.53,5.14-.32,25.83-2.55,31.04,3.01,2.78,14.25,13.9,77.14,13.9,77.14l-53.79,2.99Z"></path><g><polygon class="cls-2" points="143.19 222.96 142.84 268.98 123.31 219.88 143.19 222.96"></polygon><path class="cls-3" d="M142.84,269.73c-.3,0-.58-.18-.7-.47l-19.53-49.11c-.1-.25-.06-.53.11-.75.17-.21.43-.32.7-.27l19.88,3.09c.37.06.64.38.63.75l-.34,46.02c0,.36-.26.67-.61.73-.05,0-.09.01-.14.01ZM124.49,220.82l17.63,44.32.31-41.54-17.94-2.79Z"></path></g><polygon class="cls-3" points="135.62 228.04 133.15 231.92 135.85 233.52 136.12 252.09 142.84 268.98 143.19 253.35 137.59 232.99 139.26 231.03 135.62 228.04"></polygon><g><path class="cls-2" d="M116.41,179.05c.61-.34,1.27-.61,1.94-.79,2.68-.72,2.81-.14,4.66-2.21,2.66-2.98,6.64-5.06,10.54-5.89,7.76-1.67,14.04,1.43,13.52,10.28-.21,3.54-1.58,6.9-3.21,10.04-3.52,6.78-8.96,13.27-16.43,14.95-2.21.5-6.45.92-8.34-.65-5.39-4.47-8.16-11.91-7-18.82.25-1.48.67-2.95,1.46-4.22.7-1.12,1.7-2.04,2.85-2.69h0Z"></path><path class="cls-3" d="M123.38,206.64c-1.72,0-3.57-.28-4.76-1.27-5.62-4.66-8.47-12.32-7.26-19.52.31-1.82.82-3.29,1.56-4.49.75-1.2,1.83-2.22,3.12-2.95.02-.01.04-.02.06-.03.66-.37,1.35-.65,2.06-.83.72-.19,1.26-.3,1.7-.38,1.12-.21,1.39-.26,2.59-1.6,2.65-2.97,6.64-5.21,10.94-6.13,4.64-1,8.63-.32,11.22,1.9,2.33,2,3.44,5.16,3.2,9.16-.19,3.12-1.2,6.32-3.29,10.35-3.09,5.95-8.54,13.45-16.93,15.34-.35.08-2.19.47-4.22.47ZM116.72,179.73c-1.05.61-1.92,1.44-2.53,2.41-.64,1.03-1.08,2.32-1.35,3.95-1.12,6.68,1.53,13.79,6.74,18.12,1.45,1.21,5,1.1,7.69.49,7.82-1.77,12.98-8.9,15.93-14.57,1.99-3.83,2.96-6.84,3.13-9.74.21-3.56-.69-6.23-2.68-7.93-2.23-1.91-5.76-2.47-9.93-1.57-3.94.84-7.73,2.96-10.14,5.66-1.46,1.64-2.03,1.81-3.43,2.08-.41.08-.92.17-1.6.35-.61.16-1.2.4-1.76.72-.02.01-.04.02-.06.03ZM116.41,179.05h0,0Z"></path></g><g><path class="cls-2" d="M141.8,210.13l1.74,11.82s-1.81,6.92-9.84,6.09c-8.03-.83-9.79-6.25-9.79-6.25l-2.87-21.95s5.35-3.86,1.97-16.14c0,0,9.22,3.11,20.59.09,0,0,4.38,13.34,4.43,19.49.06,5.96-6.12,6.75-6.22,6.85v.02Z"></path><path class="cls-3" d="M135,228.86c-.44,0-.91-.02-1.39-.07-8.42-.88-10.35-6.53-10.43-6.77-.01-.04-.02-.09-.03-.13l-2.87-21.95c-.04-.27.08-.54.31-.71.04-.03,4.86-3.79,1.68-15.34-.07-.27,0-.55.21-.74.2-.19.49-.25.75-.17.09.03,9.16,3,20.15.07.39-.1.78.11.91.49.18.55,4.42,13.52,4.47,19.71.04,3.69-2.13,6.31-6.13,7.41l1.64,11.18c.01.1,0,.2-.02.3-.02.07-1.85,6.71-9.26,6.71ZM124.63,221.61c.22.58,2.08,4.95,9.14,5.68,6.81.71,8.71-4.45,9-5.39l-1.71-11.66s0-.01,0-.02v-.02c-.03-.22.04-.45.2-.61.16-.17.33-.21.58-.27,2.5-.6,5.47-2.14,5.43-6.06-.04-5.19-3.31-15.82-4.18-18.59-8.79,2.17-16.15.82-19.04.09,2.39,9.99-1.05,14.25-2.22,15.37l2.8,21.47Z"></path></g><g><path class="cls-2" d="M123.44,196.36c-.88-.54-1.9-.79-2.91-1-.56-.12-1.13-.21-1.68-.08-.39.1-.73.31-1.05.55-.75.56-1.41,1.31-1.61,2.22-.16.74,0,1.51.2,2.23.22.79.49,1.58.91,2.28.84,1.41,2.26,2.46,3.85,2.85s3.34.12,4.74-.74"></path><path class="cls-3" d="M122.64,206.35c-.55,0-1.11-.07-1.65-.2-1.79-.44-3.37-1.6-4.32-3.2-.4-.67-.71-1.43-.99-2.47-.23-.81-.41-1.69-.21-2.59.21-.97.87-1.89,1.89-2.66.36-.26.79-.55,1.32-.68.7-.17,1.41-.05,2.01.07.99.21,2.13.48,3.14,1.09.35.22.47.68.25,1.03-.22.35-.68.47-1.03.25-.81-.49-1.8-.73-2.67-.91-.46-.1-.95-.18-1.34-.08-.28.07-.55.25-.79.43-.51.38-1.15,1-1.32,1.78-.13.58.02,1.24.19,1.87.25.9.51,1.55.84,2.1.75,1.25,1.98,2.16,3.39,2.51,1.39.34,2.95.1,4.16-.65.35-.22.82-.11,1.03.24.22.35.11.81-.24,1.03-1.1.68-2.37,1.03-3.66,1.03Z"></path></g><g><path class="cls-2" d="M138.75,192.55s5.09,5.36,4.3,6.57c-.78,1.22-3.6.98-3.6.98"></path><path class="cls-3" d="M140.03,200.87c-.32,0-.55-.02-.63-.02-.41-.03-.72-.4-.68-.81.03-.41.41-.72.81-.69.93.08,2.45-.06,2.87-.59-.02-.72-1.94-3.34-4.18-5.7-.29-.3-.27-.77.03-1.06.3-.29.77-.27,1.06.03,3.64,3.84,5.12,6.36,4.39,7.49-.76,1.18-2.65,1.34-3.66,1.34ZM142.43,198.71s0,0,0,0c0,0,0,0,0,0Z"></path></g><ellipse class="cls-3" cx="134.13" cy="192.95" rx="1.01" ry="1.43" transform="translate(-40.3 35.49) rotate(-13.12)"></ellipse><ellipse class="cls-3" cx="142.35" cy="191.65" rx="1.01" ry="1.43" transform="translate(-37.77 34.96) rotate(-12.38)"></ellipse><g><path class="cls-3" d="M141.8,210.13s-7.11,2.78-11.81.94c0,0,6.25,9.21,13,7.16l-1.19-8.1Z"></path><path class="cls-3" d="M140.96,219.29c-6.23,0-11.36-7.44-11.6-7.79-.18-.27-.17-.63.03-.89.21-.26.55-.35.86-.23,4.38,1.71,11.2-.92,11.27-.94.21-.08.45-.06.65.05.2.11.33.31.37.54l1.19,8.1c.05.37-.17.72-.52.83-.76.23-1.51.33-2.24.33ZM131.93,212.33c2.01,2.32,6.03,6.14,10.22,5.34l-.96-6.53c-1.73.57-5.71,1.67-9.26,1.19Z"></path></g><path class="cls-3" d="M125.31,388.55s-11,16.45-8.82,24.56h56.99c1.94,0,3.19-2.13,2.17-3.78-.78-1.27-2.42-2.53-5.7-3.22-8.17-1.73-22.95-5.19-24.37-7.86-1.41-2.67,1.41-5.82,1.41-5.82l-21.69-3.87Z"></path><g><g><line class="cls-2" x1="114.57" y1="325.44" x2="99.82" y2="408.04"></line><path class="cls-3" d="M99.82,408.79s-.09,0-.13-.01c-.41-.07-.68-.46-.61-.87l14.75-82.6c.07-.41.46-.67.87-.61.41.07.68.46.61.87l-14.75,82.6c-.06.36-.38.62-.74.62Z"></path></g><g><path class="cls-2" d="M101.87,266.61c.26,1.85.43,3.71.54,5.56.63,10.36-.45,20.87,1.57,31.04.36,1.82.87,3.71,2.19,5,1.02,1.01,2.41,1.54,3.78,1.96,8.26,2.57,17.14,2.2,25.66,3.72,8.52,1.52,17.47,5.73,20.67,13.78.37.92.64,2.02.11,2.87-.37.6-1.05.91-1.7,1.17-6.44,2.5-14.57.86-21.37.83-9.53-.04-19.05-.39-28.56-1.05-3.26-.23-6.59-.5-9.54-1.89-10.93-5.13-13.79-21.93-15.06-32.43-1.89-15.52-2.74-31.16-2.56-46.78.06-4.75,1.65-11.03,6.4-11.07,4.91-.04,11.13,8.5,13.23,12.32,2.53,4.59,3.9,9.75,4.62,14.96h-.01Z"></path><path class="cls-3" d="M145.69,333.85c-2.18,0-4.39-.15-6.58-.29-2.03-.13-3.94-.26-5.78-.27-9.51-.04-19.13-.39-28.6-1.05-2.95-.2-6.61-.46-9.8-1.96-10.91-5.12-14.07-21.29-15.49-33.02-1.89-15.48-2.75-31.25-2.56-46.88.07-5.42,1.98-11.76,7.15-11.81h.04c5.59,0,12.04,9.4,13.86,12.71,2.34,4.26,3.88,9.24,4.71,15.22,0,.04,0,.08,0,.12.24,1.74.42,3.58.53,5.5.22,3.7.23,7.46.24,11.1.01,6.56.03,13.35,1.32,19.84.34,1.72.82,3.47,1.98,4.62.91.91,2.21,1.39,3.48,1.78,4.96,1.54,10.27,2.02,15.4,2.48,3.34.3,6.8.61,10.17,1.21,5.04.9,17.19,4.09,21.24,14.24.22.55.88,2.21.05,3.54-.48.77-1.27,1.16-2.06,1.47-2.89,1.12-6.06,1.44-9.29,1.44ZM84.06,240.08h-.03c-4.36.04-5.61,6.51-5.66,10.33-.18,15.57.67,31.27,2.55,46.68,1.38,11.37,4.4,27.04,14.64,31.84,2.94,1.38,6.45,1.63,9.27,1.82,9.44.65,19.03,1,28.51,1.05,1.89,0,3.82.14,5.87.27,5.26.34,10.71.7,15.23-1.05.63-.25,1.1-.49,1.33-.87.29-.46.23-1.18-.17-2.19-3.77-9.46-15.32-12.46-20.11-13.32-3.3-.59-6.72-.9-10.04-1.2-5.21-.47-10.61-.96-15.71-2.54-1.45-.45-2.94-1.02-4.09-2.15-1.45-1.43-2.01-3.43-2.4-5.39-1.32-6.64-1.33-13.5-1.35-20.13,0-3.62-.02-7.36-.24-11.01-.12-1.92-.3-3.77-.54-5.5,0-.04,0-.08,0-.12-.8-5.75-2.28-10.52-4.52-14.58-2.06-3.75-8.08-11.93-12.54-11.93Z"></path></g></g><path class="cls-2" d="M175.34,412.81c-.13,0-.25-.03-.37-.1-.36-.21-.48-.66-.28-1.02.17-.3.54-1.11.12-2.04-.4-.88-1.59-2.09-5.02-2.82-3.22-.68-7.97-1.74-12.38-2.93-.4-.11-.64-.52-.53-.92.11-.4.52-.64.92-.53,4.37,1.17,9.1,2.23,12.3,2.91,3.25.69,5.29,1.92,6.08,3.67.49,1.09.42,2.33-.19,3.4-.14.24-.39.38-.65.38Z"></path><g><path class="cls-2" d="M163.09,285.2s2.7-3.67,5.01-2.98c0,1.56.06,4.52.06,4.52,0,0,3.04,1.98,6.6,1.85,2.04-.07,6.14.01,6.83-2.66,1.62-.6,2.63-.39,3.71,1.04,1.55,2.07-3.94,12.05-6.72,14.59-2.78,2.55-22.93-3.24-22.93-3.24l1.16-14.59,6.28,1.47Z"></path><path class="cls-3" d="M175.49,302.93c-6.12,0-17.35-3.11-20.04-3.89-.34-.1-.57-.42-.54-.78l1.16-14.59c.02-.22.13-.42.31-.55s.4-.18.61-.12l5.81,1.36c.86-1.04,3.21-3.55,5.52-2.86.32.1.53.39.53.72,0,1.2.03,3.21.05,4.08.85.47,3.19,1.63,5.83,1.54h.45c1.94-.07,5.18-.15,5.69-2.1.06-.24.24-.43.47-.52,2-.74,3.32-.36,4.57,1.29,2,2.66-4.07,13.08-6.81,15.6-.63.58-1.93.81-3.61.81ZM156.45,297.77c8.19,2.31,19.97,4.77,21.63,3.24,3.07-2.82,7.65-12.22,6.62-13.59-.77-1.02-1.37-1.26-2.51-.9-1.03,2.65-4.86,2.75-6.97,2.81h-.44c-3.76.14-6.9-1.88-7.04-1.96-.21-.14-.34-.37-.34-.61,0,0-.04-2.25-.05-3.86-1.41.12-3.11,2.01-3.66,2.75-.18.24-.49.36-.78.29l-5.43-1.27-1.04,13.11Z"></path></g><path class="cls-1" d="M115.35,229.29c-.12-.38,9.46,25.86,10.19,34.28l37.55,21.62-8.13,17.64s-5.21-3.01-12.74-6.25c-11.48-4.95-25.32-15.42-31.5-19.11-6.35-3.79-12.05-32.6-12.91-40.22-1.36-12.08,10.15-18.46,17.54-7.96Z"></path><path class="cls-3" d="M155.42,303.47c-.11,0-.22-.02-.32-.07-.33-.16-32.92-15.56-39.63-19.01-9.94-5.68-16.78-37.83-17.07-39.2-.08-.41.17-.8.58-.89.41-.09.8.17.89.58.07.33,6.99,32.86,16.32,38.19,6.12,3.14,34.07,16.37,38.86,18.64l7.09-16.2c-5.54-3.15-34.4-19.62-36.2-21.41-1.9-1.9-8.79-26.46-10.15-31.37-.11-.4.12-.81.52-.92.4-.11.81.12.92.52,3.11,11.18,8.5,29.4,9.77,30.71,1.31,1.31,22.52,13.58,36.47,21.5.33.19.47.6.32.95l-7.67,17.52c-.08.19-.23.33-.42.4-.08.03-.17.05-.26.05Z"></path><g><path class="cls-2" d="M135.74,202.89l7.18.23s-1.62,2.78-3.94,2.78-3.24-3.01-3.24-3.01Z"></path><path class="cls-3" d="M138.98,206.65c-2.84,0-3.92-3.4-3.96-3.54-.07-.23-.03-.48.12-.68.15-.19.36-.32.62-.29l7.18.23c.26,0,.5.16.63.39.13.23.12.51,0,.74-.07.13-1.87,3.15-4.58,3.15ZM136.92,203.68c.41.69,1.08,1.47,2.06,1.47s1.86-.69,2.46-1.33l-4.52-.15Z"></path></g><g><line class="cls-2" x1="152.18" y1="238.33" x2="156.58" y2="261.26"></line><path class="cls-3" d="M156.58,262.01c-.35,0-.67-.25-.74-.61l-4.4-22.93c-.08-.41.19-.8.59-.88.41-.08.8.19.88.59l4.4,22.93c.08.41-.19.8-.59.88-.05,0-.1.01-.14.01Z"></path></g><g><path class="cls-2" d="M206.85,221.42s-3.47-3.71-6.95-3.47"></path><path class="cls-3" d="M206.85,222.17c-.2,0-.4-.08-.55-.24-.03-.03-3.26-3.45-6.35-3.24-.41.02-.77-.29-.8-.7s.29-.77.7-.8c3.8-.25,7.39,3.55,7.55,3.71.28.3.27.78-.03,1.06-.15.14-.33.2-.51.2Z"></path></g><g><path class="cls-2" d="M124.24,205.39s1.37,2.37,2.43,3.24"></path><path class="cls-3" d="M126.68,209.38c-.17,0-.34-.06-.47-.17-1.14-.93-2.46-3.19-2.61-3.45-.21-.36-.08-.82.27-1.02.36-.21.82-.08,1.02.27.36.63,1.47,2.39,2.26,3.04.32.26.37.73.11,1.06-.15.18-.36.28-.58.28Z"></path></g></g><g id="Character_3" data-name="Character 3"><path class="cls-3" d="M253.79,219.24c-1.9-.04-16.06,1.54-22.7,4.83-6.63,3.3-8.06,3.55-6.72,8,1.33,4.46,13.02,5.54,21.9,3.86,8.88-1.68,16.39-5.95,16.39-5.95l-8.87-10.74h0Z"></path><g><path class="cls-2" d="M251.88,219.2s-4.44,1.06-3.82,5.78c.62,4.72,10.6,4.92,11.18,4.94s-7.36-10.71-7.36-10.71Z"></path><path class="cls-3" d="M259.23,230.66h-.02c-1.88-.04-11.24-.52-11.9-5.59-.56-4.26,2.63-6.18,4.39-6.6.29-.07.6.04.78.28,7.88,10.65,7.71,10.99,7.44,11.49-.13.25-.41.42-.69.42ZM251.6,220.08c-1,.39-3.21,1.63-2.8,4.8.38,2.86,5.49,3.96,9.2,4.22-1.14-1.77-3.84-5.54-6.4-9.02Z"></path></g><path class="cls-3" d="M325.87,230.01c.29.15,3.01,3.67,14.84,5.09s16.23,3.96,18.87-2.26c2.64-6.22.83-10.23-5.01-12-5.83-1.77-21.9-3.25-25.05-.28-3.15,2.97-3.64,9.45-3.64,9.45h0Z"></path><g><path class="cls-2" d="M322.08,227.46s5.38,4.48,8.95,3.95,8.53-2.48,6.53-6.35-14.81-6.17-14.81-6.17l-.66,8.58h-.01Z"></path><path class="cls-3" d="M330.43,232.2c-3.79,0-8.61-3.98-8.83-4.16-.23-.19-.32-.49-.24-.77l.65-8.44c.02-.21.12-.41.29-.54s.38-.18.59-.15c1.35.24,13.24,2.48,15.34,6.57.84,1.63.54,2.89.15,3.66-1.39,2.71-5.89,3.58-7.24,3.78-.23.04-.47.05-.72.05ZM322.88,227.14c1.66,1.31,5.56,3.9,8.05,3.53,2.3-.34,5.28-1.33,6.12-2.98.35-.67.3-1.42-.15-2.29-1.39-2.7-9.54-4.84-13.46-5.62l-.57,7.36Z"></path></g><g><path class="cls-2" d="M257.61,189.83s5.65,22.08,26.32,26.29c20.67,4.22,31.34,3.09,38.67-10.85,7.32-13.94-7.05-18.87-7.05-18.87l-48.77-6.1-7.62,12.57-1.54-3.05Z"></path><path class="cls-3" d="M300.99,219.04c-4.93,0-10.62-.84-17.21-2.19-20.88-4.25-26.84-26.61-26.89-26.84-.09-.37.1-.75.46-.89.36-.13.76.02.93.36l.93,1.84,6.92-11.42c.15-.25.44-.39.73-.36l48.77,6.1c.05,0,.1.02.15.03.27.09,6.58,2.32,8.85,8.01,1.39,3.51.93,7.52-1.38,11.92-5.2,9.9-12.16,13.42-22.27,13.42ZM259.67,193.42c2.65,6.4,9.62,18.96,24.41,21.97,19.79,4.04,30.51,3.51,37.85-10.46,2.1-4,2.54-7.58,1.31-10.67-1.9-4.77-7.21-6.88-7.87-7.12l-48.21-6.03-7.37,12.16c-.03.06-.08.11-.12.15Z"></path></g><g id="Character-2" data-name="Character"><path class="cls-1" d="M307.1,107.49s-27.48-.59-40.42,9.79c-12.94,10.38-34.24,41.04-31.11,48.1,3.13,7.07,15.02,12.34,31.28.63l-5.4,20.4,23.62,9.14,34.74.55s15.72-69.23,14.15-74.18c-1.92-4.35-14.02-15.13-26.86-14.43h0Z"></path><path class="cls-3" d="M306.4,71.71c.58.38,3.05-2.48,8-.7,6.22,3.5,7.07,6.48,6.29,13.49-.47,4.2-1.91,18.07-7.25,21.5l-19.43-3.71s-9.29-18.64-6.87-28.3c1.46-5.84,11.03-6.48,19.24-2.29Z"></path><g><path class="cls-2" d="M297.92,106.27l-.64,10.48s.74,5.92,7.22,4.49c6.48-1.44,8.88-7.06,8.88-7.06,0,0,1.41-25.13,1.9-31.78-4.04-.29-7.85.81-12,.04-3.56-.67-6.99-1.9-10.4-3.13-.76,7.28-3.07,13.84-1.98,21.14.76,5,7.01,5.83,7.01,5.83h0Z"></path><path class="cls-3" d="M302.59,122.21c-1.35,0-2.52-.35-3.5-1.04-2.18-1.54-2.54-4.21-2.55-4.33,0-.05,0-.09,0-.14l.6-9.83c-1.84-.41-6.3-1.86-6.97-6.32-.76-5.06.06-9.64.93-14.5.4-2.21.8-4.5,1.05-6.83.02-.23.15-.44.35-.56.19-.12.43-.15.65-.07,3.31,1.2,6.73,2.43,10.28,3.1,2.29.43,4.45.26,6.74.09,1.68-.13,3.41-.26,5.18-.13.2.01.38.11.51.26.13.15.2.35.18.55-.48,6.57-1.88,31.52-1.9,31.77,0,.09-.03.17-.06.25-.1.24-2.63,5.99-9.41,7.5-.73.16-1.42.24-2.07.24ZM298.04,116.72c.06.35.44,2.2,1.93,3.24,1.09.76,2.56.95,4.38.55,5.52-1.23,7.93-5.75,8.3-6.51.11-1.98,1.33-23.64,1.83-30.88-1.4-.04-2.77.06-4.21.17-2.28.17-4.64.35-7.13-.11-3.35-.63-6.54-1.73-9.62-2.84-.25,2.05-.61,4.04-.95,5.98-.85,4.73-1.65,9.2-.92,14.01.66,4.37,6.31,5.19,6.37,5.19.21,0,.36.08.5.23.14.15.17.35.16.56l-.63,10.4Z"></path></g><path class="cls-3" d="M297.7,111.42s4.24.42,7.14-2.27c2.89-2.69,2.64-5.56,2.64-5.56,0,0-4.77,2.83-9.56,2.68l-.22,5.15h0Z"></path><g><path class="cls-2" d="M300.19,91.41s-3.65,4.85-2.89,5.77,3.03.46,3.03.46"></path><path class="cls-3" d="M299.1,98.52c-.83,0-1.83-.17-2.39-.85-.28-.34-1.13-1.37,2.87-6.7.25-.33.72-.4,1.05-.15.33.25.4.72.15,1.05-1.52,2.02-2.81,4.25-2.85,4.91.39.3,1.53.28,2.24.14.41-.08.8.18.88.59.08.41-.18.8-.59.88-.2.04-.74.13-1.37.13ZM297.94,96.85h0,0Z"></path></g><g><path class="cls-2" d="M313.1,92.17c1.2-1.51,3.09-4.25,5.37-3.26.6.26,1.11.73,1.5,1.26,1.74,2.3,1.29,5.22-.07,7.58-1.18,2.03-4.67,5.02-6.82,2.27"></path><path class="cls-3" d="M315.18,101.87c-1.05,0-1.98-.48-2.7-1.4-.25-.33-.2-.8.13-1.05.33-.26.8-.2,1.05.13.46.59,1.01.87,1.66.82,1.41-.1,3.14-1.63,3.93-3,.68-1.18,2.06-4.19.12-6.75-.36-.49-.78-.84-1.2-1.02-1.45-.63-2.8.9-4.18,2.66l-.3.38c-.26.32-.73.38-1.05.12-.32-.26-.38-.73-.12-1.05l.29-.37c1.25-1.59,3.33-4.25,5.96-3.11.67.29,1.28.8,1.8,1.5,1.72,2.27,1.71,5.41-.02,8.4-.79,1.36-2.88,3.59-5.12,3.74-.08,0-.16,0-.24,0Z"></path></g><ellipse class="cls-3" cx="295.73" cy="89.92" rx=".91" ry="1.89" transform="translate(-.74 2.48) rotate(-.48)"></ellipse><ellipse class="cls-3" cx="305.24" cy="90.78" rx="1.78" ry=".86" transform="translate(173.43 380.67) rotate(-82.11)"></ellipse><g><rect class="cls-2" x="286.08" y="123.75" width="2.98" height="22.83" transform="translate(-29.8 119.56) rotate(-22.36)"></rect><path class="cls-3" d="M290.53,147.04c-.29,0-.57-.17-.69-.46l-8.69-21.12c-.08-.18-.08-.39,0-.57.08-.18.22-.33.41-.41l2.76-1.14c.38-.15.82.02.98.41l8.69,21.12c.08.18.08.39,0,.57-.08.18-.22.33-.41.41l-2.76,1.14c-.09.04-.19.06-.29.06ZM282.83,125.58l8.12,19.73,1.37-.56-8.12-19.73-1.37.56Z"></path></g><g><path class="cls-2" d="M275.2,142.73s4.07-7.48,7.61-7.27,8.94,9.73,8.94,9.73l-16.56-2.46h0Z"></path><path class="cls-3" d="M291.75,145.93s-.07,0-.11,0l-16.44-2.45c-.2,0-.4-.08-.54-.23h0c-.22-.24-.27-.59-.12-.87.02-.05.05-.09.08-.13.67-1.21,4.37-7.54,8.06-7.54.06,0,.12,0,.19,0,3.84.22,8.97,9.1,9.54,10.11.14.25.13.56-.03.79-.14.21-.37.33-.62.33ZM276.41,142.14l13.89,2.07c-2.15-3.47-5.52-7.89-7.53-8-2.11-.11-4.98,3.7-6.36,5.94Z"></path></g><g><polygon class="cls-2" points="313.64 190.25 305.81 144.95 266.63 139.37 274 184.02 313.64 190.25"></polygon><path class="cls-3" d="M313.64,191s-.08,0-.12,0l-39.64-6.23c-.32-.05-.57-.3-.62-.62l-7.37-44.64c-.04-.24.04-.48.2-.65.17-.17.41-.25.64-.22l39.18,5.57c.32.05.58.29.63.61l7.83,45.3c.04.24-.04.48-.21.65-.14.14-.33.22-.53.22ZM274.65,183.36l38.07,5.98-7.56-43.73-37.62-5.35,7.12,43.1Z"></path></g><path class="cls-1" d="M333.96,121.91s27.87,56.29,17.29,61.66c-10.59,5.38-35.2-9.3-35.2-9.3l-.1-11.7,14.37,1.62-7.43-18.29,11.08-24h0Z"></path><g><path class="cls-2" d="M311.89,163.41l8.25,1.32s1.73,1.95,1.75,4.57c.02,1.57-.57,3.39-2.5,5.18l-6.52-2.19s1.29-6.22-1-8.88h0Z"></path><path class="cls-3" d="M319.4,175.23c-.08,0-.16-.01-.24-.04l-6.52-2.19c-.36-.12-.57-.49-.5-.86.34-1.63.85-6.29-.83-8.24-.26-.31-.24-.76.06-1.04.2-.19.48-.24.73-.17l8.16,1.31c.17.03.33.11.44.24.08.09,1.91,2.19,1.94,5.06.02,2.1-.9,4.03-2.74,5.74-.14.13-.32.2-.51.2ZM313.73,171.78l5.47,1.84c1.31-1.32,1.96-2.77,1.94-4.31-.02-1.85-1.02-3.36-1.41-3.88l-6.41-1.03c1.01,2.51.62,5.95.4,7.38Z"></path></g><g><path class="cls-2" d="M311.89,163.41c-.61-.34-1.31-.56-2.09-.64-1.38-.13-8.59-1.25-9.35.3-.58,1.19,0,1.42,0,1.42,0,0-2.13.02-1.58,1.91,0,0-.93,2.13.79,2.71,0,0-1.11.6.19,1.59,2.4,1.82,10.85,6.1,13.37,4,.86-.72,1.36-1.8,1.65-2.89.82-3.15-.26-6.89-2.98-8.39h0Z"></path><path class="cls-3" d="M311.23,176.01c-4.08,0-10.4-3.64-11.82-4.72-.66-.5-.97-1.05-.92-1.63,0-.13.04-.25.08-.36-.2-.19-.36-.41-.47-.67-.38-.86-.14-1.83.01-2.29-.17-.82.07-1.36.31-1.69.28-.38.67-.6,1.04-.73,0-.35.12-.75.33-1.19.74-1.52,4.13-1.44,9.35-.8.32.04.58.07.74.09.88.09,1.68.34,2.38.73.03.02.06.04.09.06,2.8,1.62,4.2,5.54,3.25,9.18-.38,1.45-1.02,2.55-1.89,3.27-.63.52-1.49.74-2.49.74ZM299.99,169.8s.11.13.33.29c2.69,2.05,10.46,5.67,12.43,4.02.63-.52,1.1-1.37,1.4-2.5.79-3.04-.34-6.28-2.62-7.54-.03-.02-.06-.04-.09-.06-.5-.27-1.08-.44-1.71-.5-.17-.02-.44-.05-.77-.09-6.45-.79-7.62-.27-7.83-.02-.13.27-.16.43-.17.51.2.17.3.44.25.71-.07.35-.37.61-.73.61-.2,0-.69.09-.86.32-.11.16-.07.43,0,.63.05.17.04.35-.03.51-.09.21-.3.91-.11,1.33.05.11.15.26.45.36.28.09.48.35.51.65.03.3-.13.58-.39.72,0,0-.03.02-.04.04ZM300.74,163.79s0,0,0,0c0,0,0,0,0,0Z"></path></g><g><line class="cls-2" x1="300.47" y1="164.49" x2="308.27" y2="165.25"></line><path class="cls-3" d="M308.27,166s-.05,0-.07,0l-7.8-.76c-.41-.04-.71-.41-.67-.82.04-.41.41-.72.82-.67l7.8.76c.41.04.71.41.67.82-.04.39-.36.68-.75.68Z"></path></g><g><path class="cls-2" d="M298.88,166.39s5.98,1.66,8.16,1.41"></path><path class="cls-3" d="M306.54,168.57c-2.52,0-7.28-1.3-7.86-1.46-.4-.11-.63-.52-.52-.92.11-.4.52-.63.92-.52,1.62.45,6.21,1.59,7.88,1.39.42-.04.78.25.83.66.05.41-.25.78-.66.83-.18.02-.38.03-.59.03Z"></path></g><g><path class="cls-2" d="M299.07,168.77s4.07,2.13,7.08,2.17"></path><path class="cls-3" d="M306.15,171.69h0c-3.15-.04-7.24-2.16-7.41-2.25-.37-.19-.51-.65-.32-1.01.19-.37.64-.51,1.01-.32.04.02,3.95,2.05,6.74,2.08.41,0,.75.34.74.76,0,.41-.34.74-.75.74Z"></path></g><g><path class="cls-2" d="M246.15,155.77s8.29-4.86,21.15-9.43"></path><path class="cls-3" d="M246.15,156.52c-.26,0-.51-.13-.65-.37-.21-.36-.09-.82.27-1.03.08-.05,8.5-4.95,21.28-9.49.39-.14.82.07.96.46.14.39-.07.82-.46.96-12.64,4.49-20.94,9.32-21.02,9.37-.12.07-.25.1-.38.1Z"></path></g><g><line class="cls-2" x1="272.73" y1="124.2" x2="272.01" y2="140.06"></line><path class="cls-3" d="M272.01,140.81s-.02,0-.04,0c-.41-.02-.73-.37-.71-.78l.71-15.86c.02-.41.37-.74.78-.72.41.02.73.37.71.78l-.71,15.86c-.02.4-.35.72-.75.72Z"></path></g><g><line class="cls-2" x1="339.74" y1="165.13" x2="320.12" y2="163.16"></line><path class="cls-3" d="M339.74,165.88s-.05,0-.08,0l-19.62-1.98c-.41-.04-.71-.41-.67-.82s.42-.72.82-.67l19.62,1.98c.41.04.71.41.67.82-.04.39-.37.67-.75.67Z"></path></g><g><line class="cls-2" x1="286.02" y1="142.06" x2="283.52" y2="139.48"></line><path class="cls-3" d="M286.02,142.81c-.2,0-.39-.08-.54-.23l-2.5-2.57c-.29-.3-.28-.77.02-1.06.3-.29.77-.28,1.06.01l2.5,2.57c.29.3.28.77-.02,1.06-.15.14-.33.21-.52.21Z"></path></g><g><line class="cls-2" x1="282.44" y1="141.7" x2="280.37" y2="139.91"></line><path class="cls-3" d="M282.44,142.45c-.17,0-.35-.06-.49-.18l-2.07-1.79c-.31-.27-.35-.74-.08-1.06.27-.31.74-.35,1.06-.08l2.07,1.79c.31.27.35.74.08,1.06-.15.17-.36.26-.57.26Z"></path></g></g><g><path class="cls-2" d="M242.38,188.9s-13.42,10.89-8.66,20.89c4.74,10,90.38,21.41,90.38,21.41l3.86-13.05s-67.24-34.33-85.58-29.23h0Z"></path><path class="cls-3" d="M324.09,231.94s-.07,0-.1,0c-3.51-.47-86.1-11.58-90.96-21.83-4.95-10.41,8.3-21.33,8.87-21.79.12-.1.27-.15.42-.17,18.6-4.91,83.23,27.92,85.98,29.33.32.16.48.53.38.88l-3.86,13.05c-.09.32-.39.54-.72.54ZM242.71,189.6c-1.4,1.19-12.51,11.05-8.32,19.86,3.72,7.83,65,17.65,89.17,20.9l3.5-11.83c-6.48-3.26-67.19-33.46-84.35-28.93Z"></path></g><g><path class="cls-2" d="M332.41,183.89s-66.58,26.92-83.08,34.02l9.6,14.85s61.48-1.2,79.1-16.65c17.63-15.44,16.45-41.17-5.62-32.22Z"></path><path class="cls-3" d="M258.93,233.51c-.25,0-.49-.13-.63-.34l-9.6-14.85c-.12-.19-.15-.41-.09-.63.06-.21.22-.38.42-.47,16.31-7.01,82.38-33.73,83.09-34.02h0c7.89-3.2,14.11-2.28,17.07,2.53,5.17,8.39-1.34,22.77-10.67,30.94-7.42,6.51-23.09,11.32-46.56,14.3-17.41,2.21-32.87,2.53-33.02,2.54h-.01ZM250.45,218.25l8.89,13.75c5.43-.15,61.74-2.02,78.21-16.46,10.98-9.62,14.24-22.78,10.38-29.03-2.58-4.18-7.99-4.87-15.23-1.93h0c-.66.27-64.67,26.16-82.25,33.66ZM332.41,183.89h0,0Z"></path></g><g><path class="cls-2" d="M294.88,100.28s3.05,2.48,7.34,1.33"></path><path class="cls-3" d="M299.93,102.67c-3.26,0-5.42-1.72-5.53-1.81-.32-.26-.37-.73-.11-1.06.26-.32.73-.37,1.05-.11.12.09,2.83,2.22,6.67,1.19.4-.11.81.13.92.53.11.4-.13.81-.53.92-.88.23-1.71.33-2.47.33Z"></path></g></g><g id="Mail_Bubble" data-name="Mail Bubble"><g><path class="cls-2" d="M276.26,78.51c0-19.14-18.36-34.66-41-34.66s-41,15.52-41,34.66c0,17.53,15.4,32.01,35.4,34.33,5.01,7.87,14.23,16.41,14.23,16.41-3.49-4.1-4.58-10.69-4.79-16.23,20.85-1.64,37.17-16.45,37.17-34.5Z"></path><path class="cls-3" d="M243.88,129.99c-.18,0-.37-.07-.51-.2-.09-.08-9.12-8.48-14.16-16.25-20.38-2.51-35.71-17.51-35.71-35.03,0-19.52,18.73-35.41,41.75-35.41s41.75,15.88,41.75,35.41c0,18.2-15.91,33.22-37.14,35.19.25,4.87,1.27,11.18,4.58,15.06.26.3.23.75-.05,1.03-.15.14-.33.21-.52.21ZM235.26,44.6c-22.2,0-40.25,15.21-40.25,33.91,0,16.85,14.93,31.29,34.73,33.58.22.03.42.15.55.34,2.84,4.45,7.09,9.17,10.18,12.37-1.23-3.16-1.94-7.09-2.12-11.76-.02-.4.29-.75.69-.78,20.79-1.63,36.48-16.14,36.48-33.75,0-18.7-18.06-33.91-40.25-33.91Z"></path></g><g id="Mail"><g><g><rect class="cls-2" x="210.46" y="64.68" width="49.6" height="29.26"></rect><path class="cls-3" d="M260.06,94.69h-49.6c-.41,0-.75-.34-.75-.75v-29.26c0-.41.34-.75.75-.75h49.6c.41,0,.75.34.75.75v29.26c0,.41-.34.75-.75.75ZM211.21,93.19h48.1v-27.76h-48.1v27.76Z"></path></g><g><polygon class="cls-2" points="260.06 93.94 235.26 71.87 210.46 93.94 260.06 93.94"></polygon><path class="cls-3" d="M260.06,94.69h-49.6c-.31,0-.59-.19-.7-.48-.11-.29-.03-.62.2-.83l24.8-22.08c.29-.25.71-.25,1,0l24.8,22.08c.23.21.31.54.2.83-.11.29-.39.48-.7.48ZM212.43,93.19h45.66l-22.83-20.32-22.83,20.32Z"></path></g><g><path class="cls-2" d="M260.06,64.68s-11.82,20.15-23.2,20.15h-3.21c-11.38,0-23.2-20.15-23.2-20.15h49.6Z"></path><path class="cls-3" d="M236.87,85.58h-3.21c-11.67,0-23.35-19.69-23.84-20.52-.14-.23-.14-.52,0-.75.13-.23.38-.38.65-.38h49.6c.27,0,.52.14.65.38.13.23.13.52,0,.75-.49.84-12.17,20.52-23.84,20.52ZM211.8,65.43c2.67,4.2,12.56,18.65,21.85,18.65h3.21c9.29,0,19.17-14.45,21.85-18.65h-46.91ZM260.06,65.43h0,0Z"></path></g></g><g><circle class="cls-2" cx="235.26" cy="79.31" r="1.97"></circle><path class="cls-3" d="M235.26,82.03c-1.5,0-2.72-1.22-2.72-2.72s1.22-2.72,2.72-2.72,2.72,1.22,2.72,2.72-1.22,2.72-2.72,2.72ZM235.26,78.09c-.67,0-1.22.55-1.22,1.22s.55,1.22,1.22,1.22,1.22-.55,1.22-1.22-.55-1.22-1.22-1.22Z"></path></g><path class="cls-3" d="M235.26,88.75c-.41,0-.75-.34-.75-.75v-6.71c0-.41.34-.75.75-.75s.75.34.75.75v6.71c0,.41-.34.75-.75.75Z"></path></g></g><g id="Chat_Bubble" data-name="Chat Bubble"><g><path class="cls-2" d="M123.23,143.87c0-14.71-14.1-26.63-31.5-26.63s-31.5,11.92-31.5,26.63c0,13.47,11.84,24.6,27.19,26.37,3.85,6.04,10.94,12.6,10.94,12.6-2.68-3.15-3.52-8.21-3.68-12.47,16.02-1.26,28.55-12.64,28.55-26.51Z"></path><path class="cls-3" d="M98.35,183.59c-.18,0-.37-.07-.51-.2-.29-.27-6.97-6.49-10.87-12.45-15.71-1.97-27.5-13.55-27.5-27.07,0-15.1,14.47-27.38,32.25-27.38s32.25,12.28,32.25,27.38c0,14.02-12.21,25.6-28.52,27.19.21,3.69,1,8.4,3.47,11.3.26.3.23.75-.05,1.03-.15.14-.33.21-.52.21ZM91.72,117.99c-16.96,0-30.75,11.61-30.75,25.88,0,12.86,11.41,23.88,26.53,25.63.22.03.42.15.55.34,2,3.14,4.93,6.46,7.23,8.88-.78-2.3-1.23-5.08-1.36-8.32-.02-.4.29-.75.69-.78,15.88-1.25,27.86-12.32,27.86-25.76,0-14.27-13.8-25.88-30.75-25.88Z"></path></g><g><path class="cls-2" d="M387.89,208.16c0-14.71,14.1-26.63,31.5-26.63s31.5,11.92,31.5,26.63c0,13.47-11.84,24.6-27.19,26.37-3.85,6.04-10.94,12.6-10.94,12.6,2.68-3.15,3.52-8.21,3.68-12.47-16.02-1.26-28.55-12.64-28.55-26.51Z"></path><path class="cls-3" d="M412.76,247.89c-.19,0-.37-.07-.52-.21-.29-.27-.31-.73-.05-1.03,2.47-2.9,3.26-7.61,3.47-11.3-16.31-1.59-28.52-13.17-28.52-27.19,0-15.1,14.47-27.38,32.25-27.38s32.25,12.28,32.25,27.38c0,13.52-11.8,25.11-27.5,27.07-3.89,5.97-10.58,12.19-10.87,12.45-.14.13-.33.2-.51.2ZM419.39,182.28c-16.96,0-30.75,11.61-30.75,25.88,0,13.44,11.98,24.51,27.86,25.76.4.03.71.37.69.78-.12,3.24-.58,6.02-1.36,8.32,2.3-2.42,5.23-5.74,7.23-8.88.12-.19.32-.32.55-.34,15.12-1.75,26.53-12.77,26.53-25.63,0-14.27-13.8-25.88-30.75-25.88Z"></path></g><circle class="cls-3" cx="402.33" cy="209.08" r="1.68"></circle><circle class="cls-3" cx="413.71" cy="209.08" r="1.68"></circle><circle class="cls-3" cx="425.08" cy="209.08" r="1.68"></circle><circle class="cls-3" cx="436.45" cy="209.08" r="1.68"></circle><circle class="cls-3" cx="74.67" cy="143.84" r="1.68"></circle><circle class="cls-3" cx="86.04" cy="143.84" r="1.68"></circle><circle class="cls-3" cx="97.41" cy="143.84" r="1.68"></circle><circle class="cls-3" cx="108.78" cy="143.84" r="1.68"></circle></g></svg>