<svg transform="scale(1)" version="1.1" id="Layer_1" xmlns="http://www.w3.org/2000/svg" xmlns:xlink="http://www.w3.org/1999/xlink" x="0px" y="0px" viewBox="0 0 500 500" xml:space="preserve" class="show_show__wrapper__graphic__5Waiy "><title>React</title><style type="text/css">
	.st0{fill:#F4D161;}
	.st1{fill:#FFFFFF;}
	.st2{fill:#231F20;}
	.st3{fill:#5b80b5;}
</style><g id="Lines"><path class="st0" d="M102.5,212.5c-0.3,0-0.5-0.2-0.6-0.4c-0.2-0.4,0-0.8,0.3-0.9l72.2-33.5c0.3-0.2,0.8,0,0.9,0.3c0,0,0,0,0,0
		c0.2,0.4,0,0.8-0.3,0.9l-72.2,33.5C102.7,212.5,102.6,212.5,102.5,212.5z"></path><path class="st0" d="M174.7,143.5L174.7,143.5l-91.1-10.1c-0.4,0-0.7-0.4-0.6-0.8c0,0,0,0,0,0c0-0.4,0.4-0.7,0.7-0.6c0,0,0,0,0,0
		l91.1,10.1c0.4,0,0.7,0.4,0.7,0.7C175.4,143.2,175.1,143.5,174.7,143.5L174.7,143.5z"></path><path class="st0" d="M194.3,103.8c-0.1,0-0.2,0-0.3-0.1l-45.3-22.5c-0.4-0.1-0.5-0.5-0.4-0.9c0.1-0.4,0.5-0.5,0.9-0.4
		c0,0,0.1,0,0.1,0.1l45.3,22.5c0.3,0.2,0.5,0.6,0.3,0.9c0,0,0,0,0,0C194.8,103.7,194.6,103.8,194.3,103.8z"></path><path class="st0" d="M397.5,212.5c-0.1,0-0.2,0-0.3-0.1L325,179c-0.3-0.2-0.5-0.6-0.3-0.9c0.2-0.3,0.6-0.5,0.9-0.3c0,0,0,0,0,0
		l72.2,33.5c0.4,0.2,0.5,0.6,0.4,0.9C398,212.4,397.8,212.5,397.5,212.5z"></path><path class="st0" d="M325.3,138.4c-0.4,0-0.7-0.3-0.7-0.6c0-0.4,0.2-0.7,0.6-0.8c0,0,0,0,0,0l91.1-10.1c0.4,0,0.7,0.3,0.8,0.6
		c0,0.4-0.2,0.7-0.6,0.7L325.3,138.4L325.3,138.4z"></path><path class="st0" d="M316.6,108.3c-0.3,0-0.5-0.2-0.6-0.4c-0.2-0.3,0-0.8,0.3-0.9c0,0,0,0,0,0l45.3-22.5c0.3-0.2,0.8-0.1,1,0.2
		s0.1,0.8-0.2,1c0,0-0.1,0-0.1,0.1l-45.3,22.5C316.8,108.3,316.7,108.3,316.6,108.3z"></path></g><g id="Character"><path class="st1" d="M122.2,403.1c7.3,6.1,16.5,9.6,25.6,12.4c3.8,1.2,7.7,2.2,11.6,3.2h168.9c2.9,0,9.8-9.5,11.2-12.1
		c3.3-7.2,4.7-15.1,3.8-23c-1.2-9.6-7.1-18.2-7.6-27.8c-0.4-6.2,1.5-12.3,1.4-18.4c-0.3-13.4-11.1-24.3-22.5-30
		c-6.9-3.4-13-15-14.8-22.1c-2.2-8.9-5.4-13.7-11.2-21.2c-1.3-1.6-2.5-3.3-3.5-5.1c-2.7-5-3.1-10.8-4.7-16.2
		c-0.5-2.3-1.6-4.5-3.2-6.3c-2.3-2.2-5.5-3.5-8.7-3.4c-5.5-0.2-7.3,1.7-11.8-1.4c-3.3-2.3-4.6-6-8.9-7c-17.5-4-34.9,7-38.8,24.4
		c-0.4,1.6-0.6,3.3-0.7,5c-0.2,2.8-0.1,5.7-1.2,8.3s-3.3,4.3-4.8,6.5c-4.5,7-1.2,16.5-3.8,24.4c-2.4,7.4-9.5,12.2-16.5,15.6
		s-14.6,6-20.2,11.4c-8.7,8.4-11.3,22.5-21.8,28.5c-13.2,7.5-27.6,11.5-29.2,29.5C109.7,387.7,114.9,397,122.2,403.1z"></path><path class="st2" d="M328.2,419.4H159.4h-0.2c-4.1-1-8-2.1-11.6-3.2c-8.5-2.6-18.2-6.1-25.8-12.5l0,0c-8.3-7-12.8-16.5-12-25.5
		c1.4-15.5,11.9-20.9,23-26.6c2.2-1.1,4.4-2.3,6.6-3.5c5.9-3.3,9.2-9.2,12.7-15.5c2.6-4.6,5.2-9.3,9-12.9c4.5-4.4,10.3-7,15.9-9.5
		c1.5-0.7,3-1.4,4.5-2.1c8.9-4.3,14.2-9.3,16.1-15.2c1.1-3.3,1.1-7,1.1-10.5c0-4.9,0.1-9.9,2.8-14c0.6-0.9,1.3-1.8,2.1-2.7
		c2.7-2.6,4-6.3,3.7-10c0-0.6,0.1-1.2,0.1-1.8c0.9-11.1,7.2-21.1,16.9-26.7c7.2-4,15.5-5.2,23.5-3.4c2.9,0.7,4.6,2.5,6.2,4.3
		c0.9,1.1,1.9,2,3,2.9c2.8,1.9,4.4,1.8,6.9,1.5c1.5-0.2,3-0.3,4.4-0.2c3.4,0,6.7,1.3,9.2,3.7c1.6,1.9,2.8,4.2,3.4,6.6
		c0.5,1.8,0.9,3.7,1.3,5.6c0.8,3.6,1.6,7.3,3.3,10.6c1,1.8,2.2,3.4,3.5,5c5.5,7.2,9.1,12.2,11.3,21.5c1.6,6.7,7.7,18.3,14.4,21.6
		c10.8,5.4,22.5,16.3,22.9,30.6c0,3-0.2,6-0.7,8.9c-0.5,3.1-0.7,6.3-0.7,9.5c0.3,5,2.1,9.9,3.9,14.6c1.6,4.2,3.2,8.6,3.8,13.1
		c0.8,8-0.5,16-3.9,23.3C338.8,409.4,331.6,419.4,328.2,419.4z M159.5,418h168.8c2.3,0,9-8.7,10.5-11.8c3.3-7,4.6-14.9,3.7-22.6
		c-0.6-4.4-2.1-8.7-3.7-12.8c-1.8-4.8-3.6-9.8-3.9-15c-0.1-3.3,0.1-6.5,0.7-9.8c0.5-2.9,0.7-5.8,0.7-8.7
		c-0.3-13.7-11.6-24.2-22.1-29.4c-7.1-3.6-13.4-15.4-15.1-22.5c-2.1-8.7-5.2-13.3-11.1-21c-1.3-1.6-2.5-3.4-3.6-5.2
		c-1.9-3.4-2.7-7.2-3.5-10.9c-0.4-1.8-0.8-3.7-1.3-5.5c-0.5-2.2-1.5-4.3-3-6c-2.2-2.1-5.1-3.3-8.2-3.2c-1.4,0-2.8,0.1-4.2,0.2
		c-2.6,0.3-4.7,0.5-7.9-1.7c-1.2-0.9-2.3-2-3.2-3.1c-1.5-1.7-2.9-3.3-5.4-3.9c-7.7-1.7-15.7-0.5-22.6,3.3
		c-9.3,5.3-15.3,14.9-16.2,25.6c0,0.6-0.1,1.1-0.1,1.7c0.3,4-1.1,8-4,10.8c-0.7,0.8-1.4,1.7-2,2.5c-2.5,3.8-2.5,8.4-2.5,13.3
		c0,3.7-0.1,7.5-1.2,11c-2.1,6.3-7.6,11.5-16.9,16c-1.5,0.7-3,1.4-4.5,2.1c-5.5,2.5-11.2,5-15.5,9.2c-3.6,3.5-6.2,8.1-8.7,12.6
		c-3.5,6.1-7,12.5-13.2,16c-2.2,1.2-4.5,2.4-6.6,3.5c-10.8,5.5-20.9,10.8-22.2,25.5c-0.8,8.4,3.6,17.8,11.4,24.3l0,0
		c7.4,6.2,17,9.7,25.4,12.2C151.6,415.9,155.5,417,159.5,418z"></path><path class="st3" d="M174.6,420.1h136.5c1.8-21.4,4.6-47.5,8.6-63.3l57.8-55.2l-39.4-37.5c0,0-87.3,55.5-93.4,55.1
		C236.8,318.7,142,246,142,246l-17.5,53.1l50.6,68.3C175.1,385.7,174.9,404.9,174.6,420.1z"></path><path class="st2" d="M246.9,412.3c-0.2,0-0.4-0.1-0.5-0.2c-0.3-0.3-0.3-0.7,0-1c0,0,0,0,0,0c18.6-17.8,21.9-27.1,21.4-31.8
		c-0.2-2-1.3-3.7-3-4.7c-0.2-0.1-0.3-0.3-0.3-0.5c0-0.2,0.1-0.5,0.2-0.6c1-0.8,2.1-1.6,3.3-2.5c3.6-2.6,7.3-5.2,8.5-9.1
		c1.6-5.1-0.9-12.3-2.9-18c-0.5-1.6-1-3-1.5-4.4c-0.1-0.4,0.1-0.8,0.5-0.8c0.4-0.1,0.7,0.1,0.8,0.4c0.4,1.3,0.9,2.8,1.4,4.3
		c2.1,5.9,4.6,13.3,2.9,18.9c-1.3,4.3-5.4,7.2-9,9.8c-0.9,0.6-1.7,1.2-2.5,1.8c1.6,1.3,2.7,3.1,2.9,5.2c0.8,7.3-6.5,18.4-21.8,33
		C247.3,412.2,247.1,412.3,246.9,412.3z"></path><path class="st2" d="M216.8,410.3c-0.3,0-0.5-0.2-0.6-0.4c-0.5-1.1-1.1-2.4-1.8-3.9c-4.1-8.8-10.9-23.5-6.8-32.3
		c1.3-2.8,3.7-4.9,6.6-6c-3.2-1.5-9.8-5.2-9.2-10c0.8-6.5,7.6-12.5,12.1-16.4l0.3-0.2c0.3-0.3,0.7-0.2,1,0c0,0,0,0,0,0
		c0.3,0.3,0.2,0.7-0.1,1l-0.3,0.2c-4.3,3.8-10.8,9.5-11.6,15.5c-0.5,4.2,7.1,8.1,10,9.2c0.4,0.1,0.5,0.5,0.4,0.9
		c-0.1,0.2-0.3,0.4-0.5,0.4c-3.7,1-6.1,2.9-7.5,5.8c-3.8,8.2,2.8,22.6,6.8,31.1c0.7,1.5,1.3,2.8,1.8,4c0.2,0.4,0,0.8-0.4,0.9
		c0,0,0,0,0,0C217,410.3,216.9,410.3,216.8,410.3z"></path><polygon class="st2" points="263.5,327.8 226.2,329.1 227.1,415 	"></polygon><path class="st2" d="M227.1,415.7H227c-0.3-0.1-0.6-0.3-0.6-0.7l-0.9-85.9c0-0.4,0.3-0.7,0.7-0.7l37.2-1.3c0.2,0,0.5,0.1,0.6,0.3
		c0.1,0.2,0.2,0.4,0.1,0.7l-36.4,87.2C227.7,415.6,227.4,415.7,227.1,415.7z M227,329.8l0.8,81.8l34.7-83.1L227,329.8z"></path><path class="st1" d="M228.9,306.6l-2.7,22.5c0,0,3.8,13,19,11c15.2-2,18.2-12.4,18.2-12.4l4.9-47.7c0,0-4.9-1.5-9.9-27.3
		c0,0-11.8,7.4-33.5,2.3c0,0-4.9,23.8-4.7,35.5C220.2,297,223.5,303.1,228.9,306.6z"></path><path class="st2" d="M242.2,341c-13,0-16.6-11.6-16.6-11.8c0-0.1,0-0.2,0-0.3l2.6-22.1c-5.4-3.7-8.6-9.8-8.6-16.3
		c-0.2-11.6,4.7-35.4,4.8-35.6c0-0.2,0.1-0.3,0.3-0.4c0.2-0.1,0.3-0.1,0.5-0.1c21.1,5,32.8-2.1,33-2.2c0.2-0.1,0.4-0.1,0.6-0.1
		c0.2,0.1,0.4,0.3,0.4,0.5c4.8,24.5,9.4,26.7,9.4,26.7c0.3,0.1,0.5,0.4,0.5,0.7l-4.9,47.7c-0.2,0.6-3.4,11-18.9,13
		C244.3,341,243.3,341.1,242.2,341z M227,329c0.5,1.4,4.4,12.2,18.2,10.4c14.5-1.9,17.5-11.5,17.7-11.9l4.9-47.1
		c-1.5-1.1-5.5-5.8-9.6-26.6c-3.1,1.6-14.2,6.2-32.5,2c-0.8,4-4.8,24.3-4.6,34.6c0,6.2,3,11.9,8.2,15.3c0.1,0.1,0.2,0.1,0.3,0.2
		c0.2,0.1,0.2,0.4,0.2,0.6L227,329z"></path><path class="st1" d="M262.7,280.9c1.2-3.4,4.4-5.5,7.8-6.6c2.2-0.8,4.7-0.7,6.8,0.5c2.7,1.7,3.6,5.3,3,8.3c-1,4.6-4.4,8.8-9,10
		c-3,0.8-6.3,0.4-9-1.2"></path><path class="st2" d="M268.2,294.3c-2.2,0-4.4-0.6-6.3-1.7c-0.3-0.2-0.5-0.6-0.3-0.9c0.2-0.3,0.6-0.5,0.9-0.3c0,0,0,0,0.1,0
		c2.6,1.5,5.6,1.9,8.5,1.1c4.3-1.4,7.6-5.1,8.5-9.5c0.5-2.5-0.1-6-2.7-7.6c-1.9-1.1-4.2-1.2-6.2-0.4c-2.6,0.9-6,2.6-7.3,6.2
		c-0.1,0.4-0.5,0.6-0.9,0.4c-0.4-0.1-0.6-0.5-0.4-0.9l0,0c1.5-4.1,5.3-6.1,8.2-7c2.4-0.9,5.1-0.7,7.4,0.6c2.7,1.7,4,5.4,3.3,9.1
		c-1,5-4.6,9-9.5,10.6C270.4,294.2,269.3,294.3,268.2,294.3z"></path><path class="st1" d="M241.3,268.4c0,0-9.4,10.4-7.8,12.7s6.9,1.7,6.9,1.7"></path><path class="st2" d="M238.8,283.5c-1.8,0-4.7-0.3-5.9-2.1c-1.7-2.5,5-10.3,7.9-13.5c0.3-0.3,0.7-0.3,1,0c0.3,0.3,0.3,0.7,0,1
		c0,0,0,0,0,0c-4.8,5.3-8.4,10.9-7.8,11.8c1.1,1.6,4.9,1.5,6.2,1.4c0.4,0,0.7,0.2,0.8,0.6s-0.2,0.7-0.6,0.8
		C239.9,283.5,239.3,283.6,238.8,283.5z"></path><path class="st2" d="M240.6,294.3c-7.2,0-13.8-5.4-14.1-5.6c-0.3-0.2-0.3-0.7-0.1-1s0.7-0.3,1-0.1l0,0c0.1,0.1,8.2,6.7,15.7,5.1
		c3.8-0.8,6.8-3.6,9-8.3c0.2-0.3,0.6-0.5,0.9-0.3c0.3,0.2,0.5,0.6,0.3,0.9c0,0,0,0,0,0c-2.4,5.1-5.8,8.2-10,9.1
		C242.5,294.2,241.5,294.3,240.6,294.3z"></path><path class="st1" d="M227.1,265.9c0,0,0.4-4.4,4.2-4.9s3,4.9,3,4.9"></path><path class="st2" d="M234.3,266.5h-0.1c-0.4-0.1-0.6-0.4-0.6-0.8c0.1-0.7,0.2-2.8-0.7-3.7c-0.4-0.4-1-0.5-1.6-0.4
		c-3.2,0.4-3.6,4.1-3.6,4.2c0,0.4-0.3,0.7-0.7,0.7c-0.4,0-0.7-0.3-0.7-0.7c0,0,0-0.1,0-0.1c0.1-1.7,1.3-5.1,4.8-5.5
		c1-0.2,2,0.1,2.7,0.8c1.5,1.5,1.1,4.5,1.1,4.9C235,266.3,234.7,266.5,234.3,266.5z"></path><path class="st1" d="M245.5,267c0,0,0.4-4.4,4.2-4.9s3,4.9,3,4.9"></path><path class="st2" d="M252.7,267.7h-0.1c-0.4-0.1-0.6-0.4-0.6-0.8c0,0,0,0,0,0c0.1-0.7,0.2-2.8-0.7-3.7c-0.4-0.4-1-0.5-1.6-0.4
		c-3.2,0.4-3.6,4.1-3.6,4.2c0,0.4-0.4,0.7-0.8,0.6c-0.4,0-0.7-0.4-0.6-0.8l0,0c0.1-1.7,1.3-5.1,4.8-5.5c1-0.2,2,0.1,2.8,0.8
		c1.5,1.5,1.1,4.5,1.1,4.9C253.3,267.4,253,267.7,252.7,267.7z"></path><path class="st2" d="M228.9,306.6c0,0,13.6,4.9,22.4,1.2c0,0-11.4,17.8-24.3,14.3L228.9,306.6z"></path><path class="st2" d="M230.6,323.2c-1.2,0-2.5-0.2-3.7-0.5c-0.3-0.1-0.6-0.4-0.5-0.8l1.8-15.4c0-0.2,0.2-0.4,0.3-0.5
		c0.2-0.1,0.4-0.1,0.6-0.1c0.1,0,13.5,4.8,21.9,1.2c0.4-0.1,0.8,0,0.9,0.4c0.1,0.2,0.1,0.4,0,0.6
		C251.5,308.8,242.2,323.2,230.6,323.2z M227.9,321.5c9.7,2.1,18.5-8.1,21.7-12.4c-7.6,2-17.2-0.7-20-1.6L227.9,321.5z"></path><path class="st2" d="M174.7,414.1L174.7,414.1c-0.4,0-0.7-0.3-0.7-0.7c0,0,0,0,0,0c0.5-14.4,0.3-25.7,0.1-36.6
		c-0.1-7.8-0.2-15.2-0.1-23.6c0-0.4,0.3-0.7,0.7-0.7c0,0,0,0,0,0l0,0c0.4,0,0.7,0.3,0.7,0.7c0,0,0,0,0,0c-0.1,8.4,0,15.8,0.1,23.6
		c0.2,11,0.4,22.3-0.1,36.7C175.4,413.9,175.1,414.2,174.7,414.1z"></path><path class="st2" d="M311.6,414.1L311.6,414.1c-0.5,0-0.7-0.4-0.7-0.8c0,0,0,0,0,0l10.1-76.6c0-0.4,0.4-0.7,0.8-0.6
		s0.7,0.4,0.6,0.8l-10.1,76.6C312.3,413.9,311.9,414.2,311.6,414.1z"></path></g><g id="Lamp"><path class="st1" d="M249.4,204.3c-4-0.4-8-1.1-12-1.3c-6.7-0.4-10.5-4.1-11.4-10.4c-1.3-9.9-5.5-18.3-10.7-26.6
		c-7.6-12.2-10.4-25.9-7.5-40.1c5.9-28.6,31-43.5,60.4-37.4c43.4,9.1,50.8,55.9,24.3,84.9c-7.1,7.8-14,15.4-17.8,25.5
		c-2.1,5.6-6.7,7.7-12.7,6.8C257.9,205.2,253.6,204.8,249.4,204.3z"></path><path class="st2" d="M264.6,206.7c-0.9,0-1.7-0.1-2.6-0.2c-2.9-0.4-5.8-0.7-8.6-1l-4-0.4l0,0c-1.2-0.1-2.5-0.3-3.7-0.4
		c-2.7-0.3-5.5-0.7-8.3-0.9c-7-0.4-11.1-4.2-12-11c-1.4-10.4-6.1-19.1-10.6-26.3c-7.8-12-10.5-26.6-7.6-40.6
		c2.8-13.6,9.9-24.4,20.5-31.4c11.2-7.4,25.7-9.7,40.8-6.5c19.1,4,32.5,15.4,37.9,32.1c5.8,18,0.7,38.7-13.2,54
		c-6.8,7.4-13.8,15.1-17.6,25.3C273.8,203.9,269.4,206.9,264.6,206.7z M249.5,203.7l4,0.4c2.8,0.3,5.8,0.6,8.7,1
		c5.9,0.9,10-1.3,11.9-6.4c3.9-10.4,11-18.2,17.9-25.8c13.6-14.9,18.6-35,12.9-52.6c-5.2-16.2-18.3-27.2-36.9-31.1
		c-14.7-3.1-28.8-0.9-39.7,6.3c-10.3,6.8-17.2,17.3-19.9,30.5c-2.8,13.8-0.4,27.1,7.4,39.6c4.6,7.3,9.5,16.2,10.9,26.9
		c0.8,6.1,4.4,9.4,10.7,9.8c2.8,0.2,5.6,0.5,8.4,0.9C247.1,203.4,248.3,203.5,249.5,203.7L249.5,203.7z"></path><path class="st1" d="M231.6,202.4l35.4,4c2.1,0.2,3.6,2.1,3.3,4.2l-0.5,4.7c-0.2,2.1-2.1,3.6-4.2,3.3l-35.4-4
		c-2.1-0.2-3.6-2.1-3.3-4.2l0.5-4.7C227.7,203.7,229.6,202.2,231.6,202.4z"></path><path class="st2" d="M264.8,219.1c-0.2,0-0.5,0-0.7,0l-32.4-3.6c-3.3-0.4-5.6-3.3-5.3-6.6l0.2-1.7c0.2-1.6,1-3,2.2-4
		c1.2-1,2.8-1.5,4.4-1.3l32.4,3.6c3.3,0.4,5.6,3.3,5.3,6.6l-0.2,1.7C270.4,216.9,267.8,219.1,264.8,219.1L264.8,219.1z M264.3,217.7
		c2.5,0.3,4.8-1.5,5.1-4l0.2-1.7c0.3-2.5-1.5-4.8-4-5.1c0,0,0,0,0,0l-32.4-3.6c-2.5-0.3-4.8,1.5-5.1,4l-0.2,1.7
		c-0.3,2.5,1.5,4.8,4,5.1L264.3,217.7z"></path><path class="st1" d="M230.3,214.6l35.4,4c2.1,0.2,3.6,2.1,3.3,4.2l-0.5,4.7c-0.2,2.1-2.1,3.6-4.2,3.3l-35.4-4
		c-2.1-0.2-3.6-2.1-3.3-4.2l0.5-4.7C226.3,215.9,228.2,214.4,230.3,214.6z"></path><path class="st2" d="M263.4,231.3c-0.2,0-0.5,0-0.7,0l-32.4-3.6c-3.3-0.4-5.6-3.3-5.3-6.6l0.2-1.7c0.4-3.3,3.3-5.6,6.6-5.3
		l32.4,3.6c3.3,0.4,5.6,3.3,5.3,6.6l-0.2,1.7C269,229.1,266.5,231.3,263.4,231.3L263.4,231.3z M231.2,215.4c-1,0-2,0.4-2.9,1
		c-1,0.8-1.6,1.9-1.7,3.1l-0.2,1.7c-0.3,2.5,1.5,4.8,4.1,5.1l32.4,3.6l0,0c2.5,0.3,4.8-1.5,5.1-4l0.2-1.7c0.3-2.5-1.5-4.8-4-5.1
		l-32.4-3.6C231.6,215.5,231.4,215.5,231.2,215.4L231.2,215.4z"></path><path class="st2" d="M263.2,230.6c-0.5,4.6-8.4,7.5-17.6,6.5s-16.2-5.6-15.7-10.2L263.2,230.6z"></path><path class="st2" d="M249.4,238c-1.3,0-2.5-0.1-3.8-0.2c-4.2-0.4-8.2-1.7-11.8-3.9c-3.2-2.1-4.8-4.6-4.5-7.1c0-0.4,0.4-0.7,0.8-0.6
		c0,0,0,0,0,0l33.3,3.7c0.2,0,0.4,0.1,0.5,0.2c0.1,0.1,0.2,0.3,0.1,0.5C263.5,235.1,257.4,238,249.4,238z M230.7,227.7
		c0.1,1.7,1.5,3.5,3.9,5.1c3.4,2,7.2,3.3,11.2,3.6c8.1,0.9,15.5-1.4,16.6-5.2L230.7,227.7z"></path><path class="st0" d="M260.3,199.7c-0.4,0-0.7-0.3-0.7-0.7c-0.5-10.5,0.3-21.1,2.3-31.4c-4.8,0.8-9.8,0.6-14.6-0.5
		c0,9.8-1.9,19.6-3.8,29.2l-0.2,1.2c-0.1,0.4-0.4,0.6-0.8,0.6c-0.4-0.1-0.6-0.4-0.6-0.8c0,0,0,0,0,0l0.2-1.2
		c1.9-9.6,3.9-19.4,3.8-29.2c-6-1.5-11.5-4.5-16.1-8.8c-2.7-2.3-4.8-5.4-5.9-8.8c-1.2-3.6-0.4-7.5,2-10.4c4.1-3.9,10.6-3.7,14.4,0.4
		c0.2,0.2,0.3,0.4,0.5,0.6c2.7,3.9,4.7,10,5.9,18.3c0.3,2.5,0.5,5,0.6,7.5c4.9,1.1,10,1.3,14.9,0.4c0.1-0.4,0.2-0.8,0.2-1.1l0.2-1
		c1.8-7.7,4-17.3,10.2-22.8c1-0.9,4.6-3.7,7.8-3c1.6,0.4,2.8,1.6,3.4,3.1c1.8,4.3,1.2,9.8-1.6,14.2c-2.7,4.1-6.6,7.2-11.1,9.2
		c-2.5,1.2-5.2,2-7.9,2.6c-2.1,10.4-2.9,21-2.4,31.6C261,199.4,260.7,199.7,260.3,199.7C260.3,199.7,260.3,199.7,260.3,199.7
		L260.3,199.7z M279.6,139.6c-2,0-4.3,1.4-5.8,2.8c-5.9,5.2-8,14.5-9.8,22l-0.2,1l-0.1,0.5c2.4-0.5,4.8-1.3,7-2.3
		c4.3-1.8,7.9-4.8,10.5-8.6c2.6-4.1,3.1-9,1.5-12.9c-0.3-1.1-1.2-2-2.4-2.3C280.1,139.6,279.9,139.6,279.6,139.6L279.6,139.6z
		 M232.9,137.5c-2.2-0.1-4.3,0.8-5.9,2.3c-2.1,2.5-2.7,5.9-1.7,9c1.1,3.2,3,6,5.5,8.1c4.3,4,9.5,6.8,15.1,8.3
		c-0.1-2.3-0.2-4.7-0.6-7c-1.1-8.1-3-14-5.6-17.7c-1.5-1.9-3.7-3.1-6.2-3.1L232.9,137.5z"></path></g><g id="Stars"><polygon class="st0" points="129.2,162.2 131.6,167 136.9,167.7 133,171.5 133.9,176.7 129.2,174.2 124.4,176.7 125.4,171.5 
		121.5,167.7 126.8,167 	"></polygon><polygon class="st0" points="378,225.3 378.8,228.5 381.9,229.6 379.2,231.4 379.1,234.7 376.5,232.6 373.3,233.5 374.5,230.4 
		372.6,227.7 376,227.9 	"></polygon><polygon class="st0" points="124.4,99.2 128.3,106.9 136.9,108.2 130.6,114.2 132.1,122.8 124.4,118.7 116.8,122.8 118.2,114.2 
		112,108.2 120.6,106.9 	"></polygon><polygon class="st0" points="361.4,103.7 363.8,108.5 369,109.2 365.2,113 366.1,118.3 361.4,115.8 356.6,118.3 357.5,113 
		353.7,109.2 359,108.5 	"></polygon><polygon class="st0" points="96,230.2 102.7,237.5 112.6,236.1 107.7,244.8 112.1,253.7 102.3,251.8 95.1,258.7 94,248.8 
		85.2,244.1 94.2,240 	"></polygon><polygon class="st0" points="372.9,321.3 374.3,327.3 380,329.6 374.7,332.8 374.3,338.9 369.7,334.8 363.7,336.3 366.1,330.7 
		362.9,325.5 369,326 	"></polygon><polygon class="st0" points="205.6,79.9 208,84.7 213.3,85.5 209.4,89.2 210.4,94.5 205.6,92 200.9,94.5 201.8,89.2 197.9,85.5 
		203.2,84.7 	"></polygon><polygon class="st0" points="382.9,148.8 384,162.1 395.7,168.7 383.4,173.9 380.7,187.1 371.9,176.9 358.6,178.4 365.5,167 
		360,154.8 373,157.8 	"></polygon></g><g id="Hands"><path class="st1" d="M338.1,264.1c-10-12.5-20-24.9-30-37.4c-5-6.2-10-12.4-14.9-18.6c-2-2.6-4-5.4-6.4-7.6
		c-4.4-3.7-6.1-9.8-4.1-15.2c0.9-2.3,2-4.6,2-7.1c0.1-4.7-3.5-9-3-13.6c0-0.4,0.1-0.7,0.3-1c0.7-0.9,2.1-0.4,3,0.4
		c1.5,1.3,2.8,2.9,3.6,4.7c4.9-4.7,9.1-10.2,12.5-16.2c0.7-1.2,1.6-2.6,3-2.4s1.9,2,1.8,3.5c-0.4,3.4-2.5,6.4-4.4,9.3
		c-1.5,2.3-1.8,18.9-0.5,20.4c3.7,4.1,61.6,52.1,76.5,70.7c19.5,24.4,10.6,45.1,0,47.7S338.1,264.1,338.1,264.1z"></path><path class="st2" d="M376.5,302.5c-11.6,0-37.7-36.1-39-37.9c-10-12.5-20-24.9-30-37.4c-5-6.2-9.9-12.4-14.9-18.6
		c-0.5-0.6-1-1.3-1.5-2c-1.4-2-3-3.8-4.8-5.5c-4.6-3.9-6.3-10.2-4.2-15.9c0.1-0.4,0.3-0.8,0.5-1.1c0.9-1.8,1.4-3.7,1.5-5.7
		c-0.1-2.1-0.6-4.2-1.5-6.2c-0.9-2.4-1.8-4.9-1.5-7.5c0-0.5,0.2-0.9,0.5-1.3c0.3-0.4,0.8-0.7,1.3-0.7c1,0,2,0.3,2.7,1
		c1.4,1.1,2.5,2.5,3.4,4.1c4.6-4.5,8.5-9.7,11.7-15.3c0.5-0.8,1.7-3,3.7-2.7c1.8,0.3,2.6,2.4,2.4,4.3c-0.4,3.3-2.2,6.1-4,8.8
		l-0.5,0.8c-1.5,2.2-1.5,18.3-0.6,19.6c1,1.1,6.1,5.5,13.1,11.6c19.7,17,52.6,45.6,63.4,59.1c14.6,18.2,12,32.3,10.3,37.5
		c-2,5.9-6,10.1-10.7,11.3C377.3,302.4,376.9,302.5,376.5,302.5z M283.1,163.8h-0.1c-0.1,0-0.3,0.1-0.3,0.2
		c-0.1,0.2-0.2,0.4-0.2,0.6c-0.3,2.3,0.5,4.5,1.4,6.8c0.9,2.1,1.5,4.4,1.6,6.7c-0.2,2.1-0.7,4.2-1.6,6.2l-0.5,1.1
		c-1.9,5.1-0.3,10.9,3.9,14.4c1.9,1.7,3.5,3.7,5,5.7c0.5,0.7,1,1.3,1.5,2c5,6.2,9.9,12.4,14.9,18.6c10,12.5,20,25,30,37.4l0,0
		c7.7,10.7,28.8,37.4,37.7,37.4c0.3,0,0.6,0,0.9-0.1c4.1-1,7.9-5,9.7-10.4c1.7-5,4.1-18.5-10.1-36.2c-10.8-13.5-44.9-43.1-63.2-59
		c-7.3-6.4-12.2-10.6-13.2-11.7c-1.5-1.7-1.2-18.8,0.4-21.3l0.5-0.8c1.7-2.6,3.4-5.2,3.8-8.2c0.1-1-0.2-2.6-1.2-2.7
		c-0.7-0.1-1.4,0.5-2.3,2c-3.4,6-7.6,11.5-12.6,16.3c-0.2,0.2-0.4,0.2-0.6,0.2c-0.2,0-0.4-0.2-0.5-0.4c-0.8-1.7-2-3.2-3.4-4.4
		C284.1,164.1,283.6,163.9,283.1,163.8z"></path><path class="st1" d="M167.8,264.1c10-12.5,20-24.9,30-37.4c5-6.2,9.9-12.4,14.9-18.6c2-2.6,4-5.4,6.4-7.6c4.4-3.8,5.5-8.8,4.3-14.7
		c-0.8-4.1-2.9-8.4-1.3-12.2c0.7-1.8,2.1-3.2,2.8-5s0.1-4.4-1.8-4.7c-1.3-0.1-2.6,0.6-3.3,1.7c-0.8,1.1-1.4,2.7-2.7,3.3
		c-4-7-6.6-14.4-10-21.6c-0.4-0.9-0.9-1.8-1.6-2.4c-0.7-0.7-1.8-0.9-2.7-0.6c-0.9,0.5-1.5,1.4-1.4,2.4c0,1,0.2,2,0.6,2.9
		c1.8,5.5,2.6,11.1,3.8,16.7c0.8,3.5,3,8.2,0,11.4c-3.7,4-63.9,56.9-77.4,76.5c-16.8,24.4-10.6,45.1,0,47.7S167.8,264.1,167.8,264.1
		z"></path><path class="st2" d="M129.4,302.5c-0.4,0-0.8,0-1.2-0.1c-4-1-7.4-4.4-9.3-9.4c-4-10.7-0.7-25.5,8.9-39.4
		c10.5-15.2,48.9-50.3,67.4-67.2c5.4-4.9,9.2-8.4,10.1-9.4c2.1-2.3,1.2-5.5,0.4-8.5c-0.2-0.8-0.4-1.5-0.6-2.3
		c-0.3-1.5-0.6-3-0.9-4.5c-0.7-4.1-1.7-8.1-2.9-12.1c-0.4-1-0.6-2.1-0.6-3.1c0-1.3,0.7-2.4,1.9-3c1.2-0.5,2.5-0.2,3.5,0.7
		c0.8,0.8,1.4,1.7,1.8,2.7c1.2,2.5,2.3,5.1,3.3,7.6c1.8,4.6,3.9,9,6.3,13.4c0.5-0.5,0.8-1,1.1-1.6c0.2-0.4,0.5-0.8,0.8-1.1
		c0.8-1.4,2.4-2.2,4-2c0.9,0.2,1.7,0.7,2.1,1.5c0.7,1.3,0.8,2.8,0.3,4.1c-0.4,1-0.9,1.9-1.5,2.8c-0.5,0.7-0.9,1.5-1.3,2.3
		c-1.1,2.7-0.3,5.6,0.6,8.6c0.3,1,0.6,2.1,0.8,3.2c1.3,6.5-0.2,11.5-4.5,15.4c-1.8,1.7-3.4,3.5-4.8,5.5c-0.5,0.7-1,1.3-1.5,2
		c-5,6.2-9.9,12.5-14.9,18.6c-10,12.5-20,24.9-30,37.4C167.1,266.3,141,302.5,129.4,302.5z M203.7,144.6c-0.2,0-0.4,0-0.6,0.1
		c-0.6,0.4-1,1.1-1,1.8c0,0.9,0.2,1.7,0.5,2.6c1.2,4.1,2.2,8.2,3,12.4c0.3,1.5,0.6,3,0.9,4.5c0.1,0.7,0.4,1.4,0.6,2.2
		c0.9,3.1,1.9,7-0.7,9.9c-0.9,0.9-4.6,4.3-10.2,9.4c-18.4,16.9-56.8,51.9-67.2,67c-9.3,13.6-12.6,27.8-8.7,38.1
		c1.6,4.5,4.6,7.6,8.2,8.5c8.3,2.1,30.7-26.2,38.7-37.3l0,0c10-12.5,20-24.9,30-37.4c5-6.2,9.9-12.4,14.9-18.6c0.5-0.6,1-1.3,1.5-2
		c1.5-2.1,3.2-4,5-5.7c3.9-3.4,5.3-8,4.1-14c-0.2-1-0.5-2.1-0.8-3.1c-0.9-3.2-1.8-6.4-0.5-9.5c0.4-0.9,0.9-1.7,1.4-2.5
		c0.5-0.8,1-1.6,1.4-2.5c0.3-1,0.3-2-0.2-2.9c-0.2-0.4-0.6-0.8-1.1-0.9c-1.1,0-2.1,0.5-2.6,1.4c-0.2,0.3-0.5,0.7-0.7,1
		c-0.5,1-1.3,1.9-2.3,2.5c-0.3,0.1-0.7,0-0.9-0.3c-2.5-4.6-4.8-9.3-6.7-14.2c-1.1-2.5-2.1-5-3.3-7.5c-0.3-0.8-0.8-1.6-1.4-2.2
		C204.7,144.8,204.2,144.6,203.7,144.6z"></path></g></svg>