<svg transform="scale(1)" version="1.1" id="Layer_1" xmlns="http://www.w3.org/2000/svg" xmlns:xlink="http://www.w3.org/1999/xlink" x="0px" y="0px" viewBox="0 0 500 500" xml:space="preserve" class="show_show__wrapper__graphic__5Waiy "><title>React</title><style type="text/css">
	.st0{fill:#F4D161;}
	.st1{fill:#231F20;}
	.st2{fill:#FFFFFF;}
	.st3{fill:#5b80b5;}
	.st4{fill:none;}
</style><g id="Megaphones"><path class="st0" d="M97.4,302.8c0,0-2,17.7,5.7,25.5s33.3,9.7,34.8,12.3s27.1,61,27.1,61c4.2,4.1,33.6-5.8,34.4-15.6
		c0,0-23.3-48.1-24.4-53.8s7.9-29.9,7.8-40.8L97.4,302.8z"></path><path class="st1" d="M182.7,291.4c0.2,10.9-8.9,35.2-7.8,40.8s24.4,53.8,24.4,53.8c-0.7,8.2-21.6,16.6-30.7,16.6
		c-1.7,0-3-0.3-3.7-0.9c0,0-25.6-58.3-27.1-61s-27.2-4.5-34.8-12.3s-5.7-25.5-5.7-25.5L182.7,291.4 M182.7,290h-0.2l-85.4,11.4
		c-0.6,0.1-1.1,0.6-1.2,1.2c-0.1,0.8-2,18.5,6,26.7c5,5.1,17,7.8,25.7,9.7c3.6,0.8,8.1,1.8,9,2.4c1.6,2.9,20,44.7,27,60.7
		c0.1,0.2,0.2,0.3,0.3,0.4c0.9,0.9,2.4,1.3,4.7,1.3c9.6,0,31.3-8.6,32.1-17.9c0-0.3,0-0.5-0.1-0.7c-6.5-13.4-23.4-49-24.3-53.4
		c-0.5-2.4,1.4-9.8,3.3-16.9c2.2-8.3,4.6-17.8,4.5-23.6c0-0.4-0.2-0.8-0.5-1C183.3,290.2,183,290,182.7,290L182.7,290L182.7,290z"></path><path class="st2" d="M172.3,302.9c-2.6,3.5-4.1,7.7-4.4,12c-0.2,6.8,8.4,21.1,8.4,21.1l19.3-12.5l-9.8-22.7L172.3,302.9
		L172.3,302.9z"></path><path class="st1" d="M176.3,336.8h-0.2c-0.2,0-0.3-0.2-0.4-0.3c-0.4-0.6-8.7-14.6-8.5-21.5c0.2-4.5,1.8-8.8,4.6-12.4
		c0.1-0.1,0.3-0.2,0.4-0.2l13.5-2.1c0.3,0,0.6,0.1,0.8,0.4l9.8,22.7c0.1,0.3,0,0.7-0.3,0.9l-19.3,12.5
		C176.6,336.7,176.5,336.8,176.3,336.8L176.3,336.8z M172.7,303.6c-2.4,3.3-3.8,7.3-4.1,11.4c-0.1,5.7,6.3,17.3,7.9,20.1l18.2-11.8
		l-9.4-21.7L172.7,303.6L172.7,303.6z"></path><path class="st2" d="M301.6,351.4c0,0-64.2-47.3-101.6-47.6c-9.5,0-18.9,0.7-28.3,2c-22.1,2.9-44.3,7.8-59.8,8.6
		c-30.6,1.6-53.7-7.9-54.2-39.9c-0.5-27.4,12.4-32.6,39.6-40.5c13.4-3.9,39.4-8.1,63.9-15.3c15-4.4,29.4-9.9,40.1-17.1
		c28.3-19.1,49.1-62,49.1-62L301.6,351.4L301.6,351.4z"></path><path class="st1" d="M301.6,352.1c-0.2,0-0.3-0.1-0.4-0.1c-11.8-8.5-24.1-16.4-36.7-23.6c-27-15.5-49.3-23.7-64.5-23.8
		c-9.4,0-18.9,0.7-28.2,2c-9.1,1.2-18.1,2.7-26.9,4.1c-12.3,2-23.8,4-33,4.5c-19.9,1.1-34.6-2.7-43.7-11.2
		c-7.2-6.8-11-16.6-11.2-29.3c-0.5-28,13.4-33.4,40.1-41.2c5.7-1.7,13.6-3.4,22.7-5.3c12.7-2.7,27.1-5.9,41.3-10
		c17.5-5.2,30.5-10.7,39.9-17.1c27.9-18.8,48.6-61.3,48.8-61.7c0.1-0.3,0.4-0.4,0.7-0.4c0.3,0,0.5,0.2,0.6,0.5l51.2,211.8
		c0.1,0.4-0.1,0.8-0.5,0.8C301.8,352.1,301.8,352.1,301.6,352.1L301.6,352.1z M198.7,303.1h1.3c15.7,0.1,37.6,8.2,65.2,24
		c16.9,9.7,30.8,19.4,35.3,22.6l-50.3-208.1c-4.2,8.2-23.5,43.8-48.4,60.6c-9.5,6.4-22.7,12-40.3,17.2c-14.2,4.2-28.6,7.3-41.4,10
		c-9.1,2-16.9,3.6-22.6,5.3c-26.7,7.8-39.5,12.8-39.1,39.8c0.2,12.3,3.8,21.8,10.8,28.3c8.8,8.2,23.2,11.9,42.7,10.9
		c9-0.5,20.6-2.4,32.8-4.5c8.7-1.5,17.8-3,26.9-4.2C180.6,303.8,189.6,303.1,198.7,303.1L198.7,303.1z"></path><path class="st0" d="M324,356.9c-23.5,4.6-50.3-26.8-66.9-74.3c-8.3-24.2-13.3-49.3-14.9-74.8c-2.9-50.6,10-90.2,33.6-94.8
		c29.2-5.8,63.6,44.2,76.9,111.6S353.2,351.1,324,356.9L324,356.9z"></path><path class="st1" d="M280.5,112.4c28.1,0,59.7,48.2,72.3,112c13.3,67.4,0.4,126.7-28.8,132.4c-1.5,0.3-3.1,0.5-4.6,0.5
		c-22.3,0-46.8-30.4-62.2-74.8c-8.3-24.2-13.3-49.3-14.9-74.8c-2.9-50.6,10-90.2,33.6-94.8C277.4,112.6,278.9,112.4,280.5,112.4
		 M280.5,111L280.5,111c-1.7,0-3.3,0.2-4.9,0.5c-23.8,4.7-37.8,43.4-34.7,96.3c1.6,25.6,6.6,50.9,14.9,75.2c16,46,41,75.7,63.6,75.7
		c1.7,0,3.3-0.2,4.9-0.5c14.7-2.9,25.9-18.6,31.4-44.2c5.5-25.2,4.9-57.1-1.6-89.9c-6.1-30.9-17-59.5-30.5-80.4S294.6,111,280.5,111
		L280.5,111L280.5,111z"></path><path class="st1" d="M304.6,264.7l-47.5,17.9c-8.3-24.2-13.3-49.3-14.9-74.8l53.8-0.8L304.6,264.7L304.6,264.7z"></path><path class="st1" d="M257.1,283.3c-0.1,0-0.2,0-0.3-0.1c-0.2-0.1-0.3-0.2-0.4-0.4c-8.3-24.2-13.3-49.4-14.9-75
		c0-0.2,0.1-0.4,0.2-0.5c0.1-0.1,0.3-0.2,0.5-0.2l53.8-0.8c0.4,0,0.7,0.2,0.7,0.6l8.6,57.7c0,0.3-0.1,0.6-0.5,0.8l-47.5,17.9
		C257.3,283.3,257.2,283.3,257.1,283.3L257.1,283.3z M243,208.4c1.6,25,6.5,49.6,14.6,73.2l46.3-17.5l-8.4-56.6L243,208.4L243,208.4
		z"></path><ellipse class="st2" transform="matrix(0.9885 -0.1509 0.1509 0.9885 -32.1513 48.006)" cx="300.2" cy="235.8" rx="13.6" ry="29.2"></ellipse><path class="st1" d="M303.6,265.4c-7.6,0-15.1-11.7-17.5-27.4c-1.2-7.8-0.9-15.4,0.8-21.3c1.8-6.1,4.9-9.8,8.8-10.4s7.9,2,11.5,7.3
		c3.4,5.1,6,12.3,7.1,20l0,0c2.5,16.6-1.7,30.5-9.6,31.7C304.3,265.4,304,265.4,303.6,265.4z M296.8,207.6c-0.3,0-0.6,0-0.9,0.1
		c-3.3,0.5-6,3.8-7.6,9.4c-1.7,5.7-2,13.1-0.8,20.7c2.4,15.5,10,27.3,17,26.2s10.8-14.6,8.4-30.1c-1.2-7.6-3.6-14.5-6.9-19.5
		C303,210,299.8,207.6,296.8,207.6L296.8,207.6z"></path><path class="st0" d="M87.5,307.4c-0.3,0-0.5-0.1-0.6-0.4c-10-18.6-12.1-33.8-12-43.2c0-10.3,2.5-16,2.6-16.3
		c0.1-0.4,0.6-0.5,0.9-0.4c0,0,0,0,0,0c0.4,0.2,0.5,0.6,0.4,0.9c0,0,0,0,0,0c-0.1,0.2-9.5,23.2,9.4,58.3c0.2,0.3,0.1,0.8-0.3,0.9
		c0,0,0,0,0,0C87.7,307.4,87.6,307.4,87.5,307.4L87.5,307.4z"></path></g><g id="Character"><path class="st2" d="M170.3,128.2c0,0-2.3-10.7-0.4-10.8s3.4,5.3,3.4,5.3s4.9-10.8,6.1-9.3s3.1,5.8,2.6,7.1s-4,11.6-4,11.6
		L170.3,128.2L170.3,128.2z"></path><path class="st1" d="M178,132.8c-0.1,0-0.2,0-0.3-0.1l-7.7-3.9c-0.2-0.1-0.3-0.3-0.4-0.5c-0.5-2.2-1.9-9.5-0.6-11.1
		c0.2-0.3,0.5-0.5,0.9-0.5c1.6,0,2.8,2.3,3.5,4.1c1.7-3.5,4.1-8.1,5.6-8.3c0.4,0,0.7,0.1,0.9,0.4c1.1,1.3,3.4,6,2.7,7.8
		c-0.5,1.3-4,11.5-4,11.6c-0.1,0.2-0.2,0.3-0.4,0.4C178.2,132.8,178.1,132.8,178,132.8L178,132.8z M171,127.8l6.6,3.4
		c0.8-2.4,3.4-9.8,3.8-10.9c0.3-0.8-1.1-4.6-2.3-6.2c-1,0.8-3.4,5.1-5.1,9c-0.1,0.3-0.4,0.4-0.7,0.4c-0.3,0-0.5-0.2-0.6-0.5
		c-0.6-2.2-1.8-4.6-2.5-4.7C169.7,119.1,170.1,123.3,171,127.8L171,127.8z"></path><path class="st3" d="M114.1,153.2c0,0,30.7,2.4,37-1.1l16.9-25.6l13.2,6.2c0,0-9.2,27.5-16.9,35.6c-12.2,12.9-51,7.4-51,7.4
		L114.1,153.2L114.1,153.2z"></path><path class="st3" d="M86.2,224.9c0,0-16.8-27.6-17.4-47s11.8-22,16.1-22.8s27-6.6,36.6,2.7s13.3,59.2,13.3,59.2L86.2,224.9z"></path><path class="st1" d="M134.6,207.1c0,0,11.6,3.3,29.9,12.8c8.4,4.4,19.5,59.7,19.5,59.7s-0.6,9.2-11.1,9l-34.7-59
		C138.2,229.6,125.7,207.9,134.6,207.1L134.6,207.1z"></path><path class="st1" d="M173.2,289.3h-0.3c-0.2,0-0.5-0.1-0.6-0.3l-34.7-59c-0.4-0.7-9.1-16-6.3-21.5c0.6-1.2,1.9-2,3.2-2
		c0.1,0,0.2,0,0.2,0c0.1,0,11.9,3.4,30.1,12.8c3.7,1.9,8.1,12.6,13.2,31.9c3.8,14.2,6.6,28.1,6.6,28.2c0,0.1,0,0.1,0,0.2
		C184.7,279.7,183.9,289.2,173.2,289.3L173.2,289.3z M134.5,207.8c-0.8,0-1.6,0.5-2,1.2c-2.1,4,3.8,15.9,6.2,20.2l34.5,58.6
		c8.9,0,9.9-7.3,10-8.3c-3.1-15.4-12.4-55.6-19.1-59.1C147.1,211.7,135.8,208.2,134.5,207.8L134.5,207.8z"></path><path class="st1" d="M84.3,218.9c0,0,39.4-3.5,48.4-6c0,0,0.5,0.1,8.8,11.7s5.2,69.8,5.2,69.8s-7.8,10.5-15,10l-16-64
		c0,0-14.2,2.1-22.7-2.6C87.1,234.5,86.3,225.9,84.3,218.9L84.3,218.9z"></path><path class="st1" d="M132.3,305.2c-0.2,0-0.4,0-0.6,0c-0.3,0-0.6-0.2-0.6-0.5l-15.9-63.4c-2.9,0.4-14.8,1.5-22.5-2.8
		c-5.2-2.9-6.6-9.2-8-15.3c-0.3-1.4-0.6-2.7-1-4.1c-0.1-0.2,0-0.4,0.1-0.6c0.1-0.2,0.3-0.3,0.5-0.3c0.4,0,39.4-3.5,48.3-5.9
		c0.1,0,0.2,0,0.2,0c0.3,0,0.9,0.1,9.3,12c8.3,11.7,5.5,67.9,5.4,70.3c0,0.1-0.1,0.3-0.1,0.4C147.1,295.3,139.7,305.2,132.3,305.2
		L132.3,305.2z M115.8,239.7c0.3,0,0.6,0.2,0.7,0.5l15.9,63.5c6.1,0,12.8-8.3,13.8-9.5c0.2-3.9,2.6-58.2-5.1-69.1
		c-6-8.5-7.9-10.8-8.4-11.4c-9,2.3-41.6,5.3-47.3,5.8c0.3,1.1,0.5,2.2,0.8,3.3c1.3,5.8,2.7,11.9,7.4,14.4c8.3,4.6,22.2,2.6,22.3,2.5
		L115.8,239.7L115.8,239.7z"></path><path class="st2" d="M94.9,140.4c-0.7-0.1-1.5-5.6-1.7-6.2c-0.9-3.1-1.2-6.4-0.8-9.7c0.1-1.9,0.7-3.8,1.6-5.5
		c1.1-1.6,3.3-2.6,5-1.8c0.6,0.3,1.1,0.7,1.7,0.6c0.4-0.1,0.9-0.3,1.2-0.6c2.9-2.4,6.7-3.5,10.5-3c3.8,0.5,7,3.2,8.2,6.8
		c-0.1-0.8,0.9-1.2,1.6-0.9c0.6,0.4,1.1,1.1,1.3,1.8c0.7,2,1.2,4.5,0.4,6.6c-0.9,2.2-3.3,2.3-5.6,2.3
		C111.8,130.8,101.7,141.9,94.9,140.4L94.9,140.4z"></path><path class="st1" d="M96.2,141.3c-0.5,0-1-0.1-1.4-0.1l0,0c-0.8-0.2-1.2-1.1-2.1-6c-0.1-0.4-0.1-0.6-0.1-0.7
		c-0.9-3.2-1.2-6.6-0.8-9.9c0.1-2.1,0.7-4,1.8-5.8c1.2-1.8,3.7-3.1,5.9-2l0.5,0.2c0.4,0.4,1.1,0.4,1.5,0c0.1,0,0.1-0.1,0.1-0.2
		c3.1-2.6,7.1-3.7,11.1-3.2c3.6,0.5,6.7,2.8,8.3,6c0.5-0.3,1.2-0.3,1.7-0.1c0.8,0.5,1.4,1.3,1.6,2.2c1,2.9,1.1,5.2,0.4,7.1
		c-1.1,2.8-4.2,2.8-6.2,2.8c-2.8,0-6.5,2.3-10.2,4.6C104.1,138.7,99.9,141.3,96.2,141.3L96.2,141.3z M95.2,139.8
		c3.4,0.6,7.9-2.2,12.3-4.9c4-2.5,7.7-4.8,10.9-4.8c2.3,0,4.2-0.1,4.9-1.9c0.6-1.5,0.5-3.6-0.4-6.1c-0.1-0.6-0.4-1.1-0.9-1.4
		c-0.1-0.1-0.3-0.1-0.4,0c-0.1,0-0.1,0.1-0.2,0.1c0.1,0.4-0.2,0.7-0.5,0.8c-0.4,0.1-0.7-0.1-0.8-0.5c-1.2-3.4-4.1-5.8-7.7-6.3
		c-3.6-0.5-7.2,0.6-10,2.9c-0.8,0.9-2.3,1.1-3.2,0.3l-0.4-0.2c-1.4-0.7-3.3,0.3-4.2,1.6c-0.9,1.6-1.4,3.4-1.5,5.2
		c-0.4,3.2-0.1,6.3,0.8,9.4c0,0.1,0.1,0.4,0.2,0.8C94.2,136.5,94.6,138.2,95.2,139.8L95.2,139.8z"></path><path class="st2" d="M114.6,151l-0.5,10.4c-1.8,3.4-5.8,4.9-9.4,3.6c-6.7-2.1-7.3-7-7.3-7l1.2-19.3c0,0,5.7-3,7.4-15
		c0,0,14.9-0.6,14.6,5c0,0,1.4,10.4,0.4,15.7C119.9,149.5,114.7,150.9,114.6,151L114.6,151z"></path><path class="st1" d="M107.5,166.1c-1,0-2-0.2-3-0.5c-7.1-2.2-7.8-7.4-7.8-7.6l1.2-19.4c0-0.2,0.2-0.5,0.4-0.6c0,0,5.4-3.1,7-14.5
		c0-0.3,0.3-0.6,0.7-0.6c0.4,0,10.8-0.4,14.2,3c0.8,0.7,1.2,1.7,1.1,2.8c0,0.3,1.4,10.4,0.4,15.8c-0.6,3.1-2.9,5.7-6.4,7l-0.5,9.9
		c0,0.1,0,0.2-0.1,0.3C113.3,164.4,110.5,166.1,107.5,166.1L107.5,166.1z M99.2,139.1L98,158c0,0,0.7,4.4,6.8,6.3
		c5.6,1.7,8.1-2.3,8.5-3.1l0.5-10.3c0-0.2,0.1-0.4,0.3-0.5c0.1-0.1,0.2-0.1,0.3-0.1c1.9-0.6,5.1-2.3,5.8-6c1-5.1-0.4-15.3-0.4-15.4
		c0.1-0.7-0.2-1.4-0.7-1.8c-2.3-2.3-9.4-2.6-12.6-2.6C104.9,134.6,100.5,138.2,99.2,139.1L99.2,139.1z M114.1,161.4L114.1,161.4z"></path><path class="st2" d="M102.6,138.6c-0.2-1-0.7-1.8-1.4-2.5c-0.7-0.6-1.5-1-2.3-1.3c-0.4-0.2-0.9-0.3-1.4-0.3c-0.3,0-0.7,0.1-1,0.3
		c-0.8,0.3-1.4,0.9-1.8,1.6c-0.2,0.6-0.3,1.3-0.2,2c0,0.7,0.2,1.4,0.4,2.1c0.5,1.4,1.5,2.5,2.8,3.1c1.3,0.6,2.8,0.7,4.2,0.2"></path><path class="st1" d="M100,144.7c-0.9,0-1.8-0.2-2.6-0.6c-1.5-0.7-2.6-1.9-3.2-3.5c-0.2-0.7-0.4-1.5-0.4-2.3c-0.1-0.8,0-1.6,0.3-2.3
		c0.4-0.9,1.2-1.6,2.1-2c0.4-0.2,0.8-0.3,1.3-0.4c0.6,0,1.2,0.1,1.7,0.4c0.9,0.3,1.8,0.8,2.5,1.5c0.8,0.8,1.4,1.8,1.6,2.9
		c0.1,0.4-0.2,0.7-0.5,0.8c0,0,0,0,0,0c-0.4,0.1-0.7-0.2-0.8-0.6c0,0,0,0,0,0c-0.1-0.8-0.6-1.5-1.2-2.1c-0.6-0.5-1.4-0.9-2.1-1.2
		c-0.3-0.2-0.7-0.3-1.1-0.3c-0.3,0-0.5,0.1-0.7,0.2c-0.6,0.3-1.1,0.7-1.4,1.3c-0.2,0.5-0.2,1.1-0.2,1.6c0,0.7,0.2,1.3,0.4,1.9
		c0.9,2.5,3.6,3.7,6.1,2.8c0,0,0,0,0,0c0.4-0.1,0.8,0.1,0.9,0.4c0.1,0.3-0.1,0.7-0.4,0.9C101.5,144.6,100.8,144.7,100,144.7
		L100,144.7z"></path><path class="st2" d="M111.5,134.8c0,0,3.5,5.4,2.6,6.3s-3.2,0.2-3.2,0.2"></path><path class="st1" d="M112.6,142.3c-0.6,0-1.3-0.1-1.9-0.3c-0.4-0.1-0.5-0.5-0.4-0.9c0.1-0.3,0.4-0.5,0.8-0.4
		c0.8,0.2,2.2,0.4,2.6-0.1c0.1-0.5-1.1-3.1-2.7-5.5c-0.2-0.3-0.1-0.8,0.2-1c0,0,0,0,0,0c0.3-0.2,0.8-0.1,1,0.2c0,0,0,0,0,0
		c2.5,3.9,3.3,6.3,2.5,7.2C114.1,142.1,113.3,142.3,112.6,142.3z"></path><ellipse class="st1" transform="matrix(0.9999 -1.657987e-02 1.657987e-02 0.9999 -2.2043 1.7912)" cx="106.9" cy="133.8" rx="0.9" ry="1.2"></ellipse><ellipse class="st1" transform="matrix(0.9997 -2.355977e-02 2.355977e-02 0.9997 -3.1314 2.7365)" cx="114.6" cy="134.3" rx="0.9" ry="1.2"></ellipse><path class="st1" d="M111.1,147c-0.9,0-1.8-0.1-2.6-0.5c-2-0.8-3.3-2.5-4.1-5.1c-0.1-0.4,0.1-0.8,0.5-0.9c0.4-0.1,0.8,0.1,0.9,0.5
		c0.6,2.2,1.7,3.6,3.2,4.2c3.1,1.3,7.1-1,7.2-1.1c0.3-0.2,0.8-0.1,1,0.2c0,0,0,0,0,0.1c0.2,0.3,0.1,0.8-0.2,1c0,0,0,0,0,0
		C115.2,146.4,113.2,147,111.1,147L111.1,147z"></path><path class="st1" d="M114.6,151c0,0-6.6,1.2-10.3-1.2c0,0,3.8,8.9,9.9,8.3L114.6,151L114.6,151z"></path><path class="st1" d="M113.6,158.8c-6.1,0-9.8-8.4-9.9-8.8c-0.1-0.4,0-0.8,0.4-0.9c0.2-0.1,0.4-0.1,0.6,0c3.4,2.2,9.7,1.1,9.8,1.1
		c0.2,0,0.4,0,0.6,0.2c0.2,0.1,0.2,0.3,0.2,0.6l-0.3,7.1c0,0.3-0.3,0.6-0.6,0.7C114.1,158.8,113.8,158.8,113.6,158.8L113.6,158.8z
		 M105.9,151.3c1.3,2.3,4.1,6.1,7.7,6.1l0.3-5.6C111.2,152.2,108.5,152,105.9,151.3z"></path><path class="st3" d="M75.7,158.9c-10.2,5.8-23.3,55.8-15.3,60.6c12.4,7.4,51-6.1,51-6.1l-5-14.9c0,0-25.4,3.7-26.4-1.5
		s11.3-31.2,8.9-34.6S75.7,158.9,75.7,158.9L75.7,158.9z"></path><path class="st2" d="M104.3,203.8c4.3-0.2,8.5-1,12.6-2.1c3-1.1,6.1-1.9,9.3-2.2c4.2-0.3,8.5,0.2,12.5,1.4c0.2,0,0.3,0.1,0.4,0.2
		c0.4,0.5-0.4,1.1-1,1.2c-1.7,0.3-3.4,0.3-5.1,0c4.2,1,8.2,2.6,12,4.7c0.4,0.2,0.9,0.6,0.8,1.1s-1,0.5-1.5,0.3l-9.6-3.1
		c2.5,0.7,4.8,1.7,6.9,3.2c0.3,0.2,0.6,0.5,0.6,0.9c-0.1,0.6-1,0.6-1.6,0.4c-2.9-1.1-5.8-2.4-8.5-3.9c2.1,1.2,4.1,2.4,6.1,3.6
		c0.1,0.5-0.3,0.9-0.7,1c0,0,0,0,0,0c-0.5,0-0.9-0.1-1.4-0.3l-6.7-2.9l4.2,2.3c0.7,0.4,1.4,1,1.2,1.7s-1.5,0.7-2.3,0.5
		c-3.4-1-6.9-1.7-10.4-1.9c-1.3-0.3-2.5-0.4-3.8-0.3c-1.9,0.5-3.8,1.1-5.6,1.9c-2.8,1-5.5,2-8.3,3"></path><path class="st1" d="M104.6,214.9c-0.3,0-0.5-0.2-0.6-0.4c-0.1-0.3,0-0.7,0.4-0.8c2.8-1,5.5-2,8.3-3c0.5-0.2,1.1-0.4,1.7-0.6
		c1.3-0.6,2.6-1,4-1.3c0.9-0.1,1.8,0,2.7,0.1c0.4,0.1,0.8,0.1,1.2,0.2c3.6,0.3,7.2,0.9,10.6,2c0.5,0.2,1,0.2,1.4,0.1
		c0.1,0,0.1-0.1,0.1-0.1c0.1-0.2-0.3-0.6-0.9-0.9l-4.2-2.3c-0.3-0.2-0.4-0.6-0.3-0.9c0.2-0.3,0.5-0.4,0.8-0.3l6.7,2.9
		c0.3,0.2,0.7,0.3,1,0.3c0,0,0.1,0,0.1-0.1l-5.7-3.4c-0.3-0.2-0.4-0.6-0.2-0.9c0.2-0.3,0.6-0.4,0.9-0.2c2.7,1.5,5.5,2.8,8.4,3.9
		c0.2,0.1,0.5,0.1,0.7,0.1c0,0-0.1-0.1-0.3-0.2c-1.4-1-3-1.8-4.6-2.4l-2.1-0.7c-0.3-0.1-0.5-0.5-0.4-0.8s0.5-0.5,0.8-0.4
		c0.8,0.2,1.5,0.4,2.2,0.7l7.4,2.4c0.2,0.1,0.5,0.1,0.7,0.1c-0.1,0-0.2-0.1-0.5-0.3c-3.7-2.1-7.7-3.6-11.8-4.6
		c-0.3-0.1-0.5-0.4-0.5-0.8c0.1-0.3,0.4-0.6,0.7-0.5c1.6,0.2,3.3,0.2,4.9,0c0.2,0,0.3-0.1,0.4-0.2c-4-1.2-8.1-1.6-12.3-1.3
		c-2.8,0.3-5.5,0.9-8.1,1.9l-1.1,0.4c-4.2,1.2-8.4,1.9-12.8,2.1c-0.4,0-0.7-0.2-0.7-0.6c0-0.4,0.2-0.7,0.6-0.7c0,0,0,0,0,0
		c4.2-0.2,8.4-0.9,12.5-2.1l1.1-0.4c2.7-1,5.5-1.6,8.4-1.9c4.3-0.3,8.7,0.1,12.8,1.4c0.3,0.1,0.5,0.2,0.7,0.4
		c0.3,0.3,0.4,0.7,0.2,1.1c-0.3,0.6-0.9,1.1-1.6,1.2l-0.4,0.1c2.6,0.9,5.1,2,7.6,3.4c1.3,0.7,1.2,1.5,1.1,1.9
		c-0.1,0.3-0.3,0.6-0.6,0.7c-0.6,0.2-1.2,0.2-1.7,0l-1.5-0.5c0.2,0.3,0.3,0.6,0.2,0.9c0,0.4-0.2,0.7-0.5,0.9
		c-0.6,0.3-1.3,0.3-1.9,0.1l-1.5-0.6c0,0.2-0.1,0.4-0.2,0.6c-0.3,0.4-0.7,0.6-1.1,0.7c-0.6,0.1-1.2-0.1-1.7-0.4l-0.4-0.2
		c0.1,0.3,0.1,0.6,0,0.8c-0.1,0.4-0.4,0.7-0.7,0.9c-0.8,0.3-1.6,0.3-2.4,0c-3.4-1-6.8-1.6-10.3-1.9c-0.4,0-0.9-0.1-1.3-0.2
		c-0.8-0.2-1.6-0.2-2.3-0.1c-1.3,0.3-2.5,0.7-3.7,1.2c-0.6,0.2-1.2,0.5-1.7,0.7c-2.8,1-5.5,2-8.3,3
		C104.7,214.9,104.7,214.9,104.6,214.9L104.6,214.9z"></path><path class="st2" d="M125.6,165c1.6,1.3,6.6,29.8,9.2,40.2"></path><path class="st1" d="M134.8,205.8c-0.3,0-0.6-0.2-0.6-0.5c-0.9-3.8-2.2-9.8-3.5-16.2c-1.9-9.5-4.6-22.6-5.5-23.6
		c-0.3-0.2-0.3-0.6-0.1-0.9c0,0,0,0,0,0c0.2-0.3,0.6-0.3,0.9-0.1c1.1,0.9,2.7,8.4,6,24.4c1.3,6.4,2.5,12.4,3.4,16.2
		c0.1,0.3-0.1,0.7-0.5,0.8L134.8,205.8L134.8,205.8z"></path><polygon class="st2" points="179,211.8 178.9,216 121.8,231.4 122.3,226.9 	"></polygon><path class="st1" d="M121.8,232.1c-0.2,0-0.3-0.1-0.4-0.2c-0.2-0.1-0.3-0.4-0.2-0.6l0.5-4.4c0-0.3,0.2-0.5,0.5-0.6l56.7-15.2
		c0.2,0,0.4,0,0.6,0.1c0.2,0.1,0.3,0.3,0.3,0.6l-0.1,4.3c0,0.3-0.2,0.6-0.5,0.6L122,232C121.9,232,121.9,232,121.8,232.1
		L121.8,232.1z M122.9,227.5l-0.3,3l55.6-15l0.1-2.8L122.9,227.5L122.9,227.5z"></path><path class="st2" d="M179,211.8c0,0-14.6-9.8-15-9.6s-59,14.3-59,14.3l17.2,10.5L179,211.8L179,211.8z"></path><path class="st1" d="M122.3,227.6c-0.1,0-0.3,0-0.4-0.1L104.7,217c-0.2-0.1-0.4-0.4-0.3-0.7c0-0.3,0.3-0.5,0.5-0.6
		c20-4.8,58.1-14,58.9-14.3c0.4-0.1,0.7-0.3,15.6,9.7c0.2,0.2,0.3,0.4,0.3,0.7c0,0.3-0.2,0.5-0.5,0.6l-56.7,15.2
		C122.4,227.6,122.3,227.6,122.3,227.6L122.3,227.6z M106.8,216.7l15.5,9.5l54.9-14.7c-5-3.4-12.1-8-13.3-8.6
		C160.4,203.8,121.5,213.1,106.8,216.7L106.8,216.7z"></path><polygon class="st2" points="121.8,231.4 105.2,220.5 105.1,216.4 122.3,226.9 	"></polygon><path class="st1" d="M121.8,232.1c-0.1,0-0.3,0-0.4-0.1l-16.7-10.9c-0.2-0.1-0.3-0.3-0.3-0.6l-0.1-4.1c0-0.3,0.1-0.5,0.3-0.6
		c0.2-0.1,0.5-0.1,0.7,0l17.2,10.5c0.2,0.1,0.4,0.4,0.3,0.7l-0.5,4.4c0,0.2-0.2,0.5-0.4,0.6C122,232,121.9,232.1,121.8,232.1
		L121.8,232.1z M105.8,220.1l15.4,10.1l0.3-2.9l-15.8-9.6L105.8,220.1z"></path><polygon class="st2" points="179,211.8 185.7,173 125.8,190.7 122.3,226.9 	"></polygon><path class="st1" d="M122.3,227.6c-0.2,0-0.3-0.1-0.4-0.2c-0.2-0.1-0.3-0.4-0.2-0.6l3.5-36.2c0-0.3,0.2-0.5,0.5-0.6l60-17.7
		c0.2-0.1,0.5,0,0.7,0.1c0.2,0.2,0.3,0.4,0.2,0.6l-6.7,38.7c0,0.3-0.2,0.5-0.5,0.6l-56.7,15.2C122.4,227.6,122.4,227.6,122.3,227.6
		L122.3,227.6z M126.4,191.3l-3.3,34.7l55.3-14.8l6.5-37.2L126.4,191.3L126.4,191.3z M179,211.8L179,211.8z"></path><path class="st1" d="M92.7,220.9c-0.4,0-0.7-0.3-0.7-0.7c0-0.3,0.2-0.6,0.5-0.7l11.6-3.4l-1.2-13.7l-22.6,0.3
		c-0.2,0-0.4-0.1-0.5-0.2c-0.1-0.2-0.2-0.4-0.2-0.6l5.9-35.6c0.1-0.4,0.4-0.6,0.8-0.6s0.6,0.4,0.6,0.8l-5.8,34.8l22.4-0.3
		c0.4,0,0.7,0.3,0.7,0.6l1.4,14.9c0,0.3-0.2,0.6-0.5,0.7l-12.1,3.6C92.8,220.9,92.8,220.9,92.7,220.9L92.7,220.9z"></path><path class="st2" d="M180.9,269.9c0.9-1,1.9-2,2.9-3c2.2-2.1,7-5.4,9-1.3c1.2,2.5,0.2,6.2-0.5,8.7c-1.4,4.9-3.9,9.4-7.2,13.1
		c-2.9,3.3-12.9,8.9-13.1,0.5c0-1.5,0.3-3,0.9-4.4C174.7,278.6,177.4,273.9,180.9,269.9L180.9,269.9z"></path><path class="st1" d="M175.7,293c-0.5,0-1.1-0.1-1.6-0.3c-1.2-0.4-2.6-1.6-2.7-4.8c0-1.6,0.3-3.2,0.9-4.6c1.8-5.1,4.6-9.8,8.1-13.8
		l0,0c0.9-1.1,1.9-2.1,2.9-3.1c0.7-0.6,4.3-3.9,7.3-3.4c1.2,0.2,2.3,1.1,2.7,2.2c1.3,2.7,0.3,6.6-0.4,9.2c-1.4,5-3.9,9.5-7.4,13.4
		C183.9,289.9,179.2,293,175.7,293L175.7,293z M190,264.3c-1.7,0-4.1,1.5-5.7,3c-1,1-1.9,2-2.8,3l0,0c-3.4,4-6.1,8.5-7.8,13.4
		c-0.5,1.3-0.8,2.7-0.9,4.2c0.1,2,0.7,3.2,1.9,3.6c2.7,1,8-2.1,10.1-4.5c3.3-3.7,5.7-8.1,7.1-12.9c0.6-2.4,1.6-6,0.5-8.3
		c-0.3-0.8-1-1.4-1.8-1.5C190.3,264.3,190.2,264.3,190,264.3L190,264.3z M181,269.9L181,269.9z"></path><path class="st2" d="M146.2,278.7c0.7-0.6,1.5-0.9,2.4-1c0.6,0.1,1.1,0.3,1.5,0.6c1.7,1.4,2.7,3.4,2.7,5.6c0,2.2-0.5,4.3-1.2,6.3
		c-2.1,6.2-5.3,12.4-10.6,16.2c-0.9,0.7-2,1.3-3.1,1.7c-9.9,3-6.9-7.5-4.9-12.3C135.6,288.9,140.3,283,146.2,278.7L146.2,278.7z"></path><path class="st1" d="M134.7,309.3c-1.2,0.1-2.4-0.4-3.3-1.3c-2.6-2.9-0.3-9.7,0.8-12.4c2.8-7,7.5-13,13.6-17.4l0,0
		c0.8-0.7,1.7-1.1,2.8-1.1c0.7,0.1,1.3,0.3,1.9,0.7c1.9,1.5,2.9,3.7,2.9,6.1c0,2.2-0.5,4.4-1.3,6.5c-2.7,7.8-6.2,13.2-10.8,16.5
		c-1,0.8-2.1,1.4-3.3,1.8C136.9,309.1,135.8,309.3,134.7,309.3L134.7,309.3z M148.5,278.3c-0.7,0.1-1.4,0.4-1.9,0.9l0,0
		c-5.9,4.3-10.4,10.1-13.1,16.9c-1.7,4.1-2.8,9.2-1.1,11.1c0.9,1,2.7,1.1,5.2,0.4c1.1-0.4,2.1-0.9,2.9-1.6
		c4.4-3.2,7.8-8.4,10.4-15.9c0.8-1.9,1.2-4,1.2-6.1c0-2-0.9-3.9-2.4-5.1C149.4,278.5,149,278.3,148.5,278.3L148.5,278.3L148.5,278.3
		z M146.2,278.6L146.2,278.6z"></path><path class="st2" d="M146.4,246.3c-0.4,0-0.7-0.3-0.7-0.7c0-0.1-0.2-10.2-2.5-15.3c-0.2-0.3,0-0.8,0.4-0.9c0,0,0,0,0,0
		c0.4-0.2,0.8,0,0.9,0.4c2.4,5.4,2.6,15.4,2.6,15.9C147.1,246,146.8,246.3,146.4,246.3L146.4,246.3L146.4,246.3z"></path><path class="st1" d="M108,165.9l-4.2,1.2l1.2,2.7c0,0-8,11.9-37.3,10.1l-8.7,6.6l8,4.5c0,0,26.3,1.4,40.2-20.8l2.6-0.8L108,165.9
		L108,165.9z"></path></g><g id="Icons"><rect class="st2" x="340.2" y="101.2" transform="matrix(0.9699 -0.2436 0.2436 0.9699 -18.2556 93.1976)" width="55" height="38.4"></rect><path class="st0" d="M345.7,146.4c-0.3,0-0.6-0.2-0.7-0.5l-9.4-37.2c0-0.2,0-0.4,0.1-0.5c0.1-0.2,0.2-0.3,0.4-0.3l53.3-13.4
		c0.2,0,0.4,0,0.5,0.1c0.2,0.1,0.3,0.2,0.3,0.4l9.4,37.3c0.1,0.4-0.1,0.8-0.5,0.8c0,0,0,0,0,0l-53.3,13.4L345.7,146.4L345.7,146.4z
		 M337.2,109l9,35.9l52-13.1l-9-35.9L337.2,109z"></path><path class="st0" d="M345.7,146.4c-0.1,0-0.2,0-0.3,0c-0.4-0.1-0.5-0.5-0.4-0.9c0,0,0,0,0,0l14-33.7c0.1-0.2,0.3-0.3,0.5-0.4
		c0.2-0.1,0.4,0,0.6,0.1l21.4,15.4c0.3,0.2,0.4,0.7,0.2,1s-0.7,0.4-1,0.2l0,0l-20.7-14.9L346.3,146
		C346.2,146.3,345.9,146.4,345.7,146.4L345.7,146.4z"></path><path class="st0" d="M375.1,124c-0.1,0-0.2,0-0.2,0c-0.4-0.1-0.5-0.5-0.4-0.9l5.4-14.5c0.1-0.2,0.2-0.4,0.4-0.4
		c0.2-0.1,0.4,0,0.6,0.1l14.9,9.3c0.3,0.2,0.4,0.6,0.2,1s-0.6,0.4-1,0.2l0,0l-14.2-8.9l-5.1,13.7C375.7,123.9,375.4,124,375.1,124
		L375.1,124z"></path><path class="st0" d="M372.1,111.5c-2.3,0-4.1-1.9-4.1-4.1c0-2.3,1.9-4.1,4.1-4.1c1.9,0,3.5,1.3,3.9,3.1l0,0c0.6,2.2-0.8,4.4-3,5
		c0,0,0,0,0,0C372.8,111.5,372.4,111.5,372.1,111.5L372.1,111.5z M372.1,104.7c-0.2,0-0.4,0-0.7,0.1c-0.7,0.2-1.3,0.6-1.6,1.2
		c-0.4,0.6-0.5,1.3-0.3,2c0.3,1.5,1.8,2.4,3.2,2c0,0,0,0,0,0c0.7-0.2,1.3-0.6,1.7-1.2c0.4-0.6,0.5-1.3,0.3-2l0,0
		c-0.2-0.7-0.6-1.3-1.2-1.7C373.1,104.9,372.6,104.7,372.1,104.7L372.1,104.7z"></path><circle class="st2" cx="389.9" cy="316" r="20.8"></circle><path class="st0" d="M392.3,294.4l2.4,0.4c0.1,0,0.2,0.1,0.2,0.1c3.6,0.8,6.9,2.6,9.6,5.2c6.2,6,8.3,13.4,6.2,21.8
		c-1.2,4.7-4,8.8-7.9,11.6c-5.4,4.1-12.3,5.4-18.8,3.5c-3.4-0.9-6.5-2.6-9-5c-4.5-4.2-7.1-10.1-6.9-16.3c0-0.6,0-1.3,0.1-1.9
		c0.1-0.8,0.3-1.6,0.4-2.4c0-0.1,0.1-0.3,0.1-0.4c0.3-0.9,0.5-1.8,0.8-2.7c1.7-4.6,5-8.4,9.2-10.8c3.5-2.1,7.5-3.1,11.5-3
		C391,294.3,391.7,294.3,392.3,294.4L392.3,294.4z M403.6,330.5c3-2.8,5-6.4,5.8-10.4l-8.5-1.4c-0.4,1.5-0.7,3-1.2,4.4
		s-1,2.9-1.5,4.2L403.6,330.5L403.6,330.5z M370.1,313.5c-0.5,4,0.2,8.1,2.1,11.7l6.1-1.3c-0.2-3-0.1-6,0.3-9L370.1,313.5
		L370.1,313.5z M409.7,318.4c0.7-3.1-0.5-9.8-2.1-11.7l-6.1,1.3c0.2,3,0.1,6-0.3,9L409.7,318.4z M381.6,304.6l-5.4-3.2
		c-2.4,1.8-5.8,7.7-5.8,10.4l8.5,1.4C379.5,310.3,380.4,307.4,381.6,304.6L381.6,304.6z M389.4,324.6c1.2,0.3,2.5,0.6,3.6,0.9
		s2.4,0.8,3.6,1.2c0.1-0.1,0.1-0.2,0.1-0.3c1.1-2.4,1.8-5,2.4-7.6c0.1-0.4,0-0.5-0.4-0.5c-2.6-0.4-5.2-0.9-7.7-1.3h-0.4
		C390.2,319.6,389.8,322.1,389.4,324.6L389.4,324.6z M380.4,315.2c-0.4,2.9-0.5,5.8-0.3,8.6l7.5,0.4c0.4-2.5,0.9-5,1.3-7.6
		L380.4,315.2L380.4,315.2z M399.5,316.6c0.4-2.9,0.5-5.7,0.3-8.6l-7.5-0.4c-0.4,2.5-0.8,5-1.3,7.6L399.5,316.6L399.5,316.6z
		 M383.2,305.2c-1.2,2.6-2,5.4-2.5,8.2l8.5,1.5c0.4-2.6,0.9-5.1,1.3-7.6l-7.3-2.1L383.2,305.2z M399.5,306.2c-0.3-2-0.8-3.9-1.6-5.7
		c-0.5-1.3-1.4-2.4-2.4-3.2c-0.4-0.3-0.9-0.6-1.4-0.9c-0.5,3.2-1,6.3-1.6,9.4C394.8,306.1,397.1,306.3,399.5,306.2L399.5,306.2z
		 M389.1,326.4c-0.5,3.1-1,6.2-1.5,9.3c1.1,0,2.1-0.4,3-1c1.9-1.3,3.4-3,4.5-5c0.3-0.5,0.5-0.9,0.8-1.4
		C393.7,327.4,391.4,326.8,389.1,326.4L389.1,326.4z M385.8,335.4c0.5-3.1,1-6.2,1.6-9.3c-2.3-0.3-4.7-0.5-7.1-0.4
		c0.2,1,0.4,2.1,0.7,3c0.4,1.8,1.3,3.4,2.4,4.9C384,334.4,384.8,335,385.8,335.4z M384,303.6c2.2,0.9,4.5,1.6,6.8,2
		c0.5-3.1,1-6.2,1.6-9.3c-0.7,0-1.4,0.2-2.1,0.5c-1.6,0.8-2.9,1.9-3.9,3.4C385.5,301.2,384.8,302.4,384,303.6L384,303.6z
		 M402.2,331.8c-1.5-1.1-3-2-4.7-2.7c-2.3,3.9-2.9,4.6-5.5,6.8C395.8,335.5,399.3,334,402.2,331.8L402.2,331.8z M387.9,296.2
		c-2.1-0.3-8.7,2.4-10.1,4.1l4.6,2.7c0.9-1.3,1.6-2.5,2.5-3.7C385.7,298.1,386.7,297.1,387.9,296.2L387.9,296.2z M373.3,326.9
		c2.1,3.1,4.9,5.6,8.3,7.2c-1.6-2.5-2.6-5.3-3-8.2C376.8,326,375,326.4,373.3,326.9L373.3,326.9z M398.5,297.9
		c0.8,1.2,1.4,2.5,1.8,3.9c0.4,1.4,0.7,2.8,1.1,4.2c1.8-0.2,3.6-0.5,5.3-1.1C404.7,301.9,401.9,299.5,398.5,297.9L398.5,297.9z"></path><path class="st2" d="M330.6,179.5l27.5-5c1.8-0.3,3.6,0.9,3.9,2.7l3,16.8c0.3,1.8-0.9,3.6-2.7,3.9l-27.5,5
		c-1.8,0.3-3.6-0.9-3.9-2.7l-3-16.8C327.5,181.6,328.7,179.8,330.6,179.5z"></path><path class="st0" d="M335.3,203.5c-2.6,0-4.9-1.9-5.4-4.5l-2.5-14.1c-0.5-3,1.4-5.8,4.4-6.3l24.8-4.5c3-0.5,5.8,1.4,6.3,4.4
		l2.5,14.1c0.5,3-1.4,5.8-4.4,6.3l0,0l-24.8,4.5C335.9,203.5,335.6,203.5,335.3,203.5L335.3,203.5z M357.5,175.4
		c-0.2,0-0.5,0-0.7,0.1L332,180c-2.2,0.4-3.7,2.5-3.3,4.7l2.5,14.1c0.4,2.2,2.5,3.7,4.7,3.3l24.8-4.5c2.2-0.4,3.7-2.5,3.3-4.7
		l-2.5-14.1C361.2,176.8,359.5,175.4,357.5,175.4L357.5,175.4z M360.9,198.3L360.9,198.3z"></path><path class="st0" d="M342,197.6c-0.1,0-0.2,0-0.3-0.1c-0.2-0.1-0.4-0.3-0.4-0.5l-2.6-14.3c-0.1-0.4,0.2-0.8,0.6-0.8
		c0.1,0,0.2,0,0.3,0l16,4.5c0.3,0.1,0.5,0.3,0.5,0.6c0,0.3-0.1,0.5-0.3,0.7l-13.4,9.8C342.3,197.6,342.1,197.7,342,197.6L342,197.6z
		 M340.3,183.6l2.2,12.1l11.4-8.3L340.3,183.6L340.3,183.6z"></path><rect class="st2" x="320.6" y="241.4" width="51.6" height="28.4"></rect><path class="st0" d="M372.2,270.6h-51.6c-0.4,0-0.7-0.3-0.7-0.7c0,0,0,0,0,0v-28.5c0-0.4,0.3-0.7,0.7-0.7l0,0h51.6
		c0.4,0,0.7,0.3,0.7,0.7c0,0,0,0,0,0v28.5C372.9,270.2,372.6,270.6,372.2,270.6C372.2,270.6,372.2,270.6,372.2,270.6z M321.3,269.2
		h50.2v-27.1h-50.2V269.2z"></path><path class="st0" d="M346.4,259.9c-0.1,0-0.3,0-0.4-0.1L320.2,242c-0.3-0.2-0.4-0.7-0.2-1c0.2-0.3,0.7-0.4,1-0.2l25.4,17.5
		l25.4-17.5c0.3-0.2,0.7-0.2,1,0.1c0,0,0,0,0,0c0.2,0.3,0.2,0.7-0.1,1c0,0,0,0,0,0l-25.8,17.7C346.7,259.9,346.6,259.9,346.4,259.9
		L346.4,259.9z"></path><path class="st0" d="M320.6,270.6c-0.2,0-0.4-0.1-0.6-0.3c-0.2-0.3-0.2-0.7,0.1-1c0,0,0,0,0,0l20.7-14.2c0.3-0.2,0.7-0.2,1,0.1
		c0,0,0,0,0,0c0.2,0.3,0.2,0.7-0.1,1c0,0,0,0,0,0L321,270.4C320.9,270.5,320.7,270.6,320.6,270.6L320.6,270.6z"></path><path class="st0" d="M372.2,270.6c-0.1,0-0.3,0-0.4-0.1l-20.7-14.2c-0.3-0.3-0.3-0.7-0.1-1c0.2-0.3,0.6-0.3,0.9-0.2l20.7,14.2
		c0.3,0.2,0.4,0.7,0.2,1C372.6,270.4,372.4,270.6,372.2,270.6z"></path><polygon class="st2" points="433.9,247.9 405.4,244.4 410.9,199.9 446.8,204.3 442.4,240.1 	"></polygon><path class="st0" d="M433.9,248.6L433.9,248.6l-28.6-3.5c-0.4,0-0.6-0.4-0.6-0.8c0,0,0,0,0,0l5.5-44.6c0.1-0.4,0.4-0.7,0.8-0.6
		l36,4.4c0.2,0,0.4,0.1,0.5,0.2c0.1,0.1,0.2,0.3,0.1,0.5l-4.4,35.8c0,0.2-0.1,0.3-0.2,0.4l-8.6,7.9
		C434.2,248.6,434,248.6,433.9,248.6L433.9,248.6z M406.1,243.8l27.5,3.4l8.1-7.5l4.3-34.8l-34.6-4.2L406.1,243.8L406.1,243.8z"></path><line class="st4" x1="416.2" y1="207.7" x2="440.5" y2="210.7"></line><path class="st0" d="M440.5,211.4L440.5,211.4l-24.4-3c-0.4,0-0.7-0.4-0.6-0.8c0-0.4,0.4-0.7,0.8-0.6l0,0l24.3,3
		c0.4,0.1,0.6,0.4,0.6,0.8C441.1,211.1,440.8,211.4,440.5,211.4L440.5,211.4z"></path><line class="st4" x1="415.4" y1="214.9" x2="439.6" y2="217.9"></line><path class="st0" d="M439.6,218.6L439.6,218.6l-24.4-3c-0.4,0-0.7-0.4-0.6-0.8c0-0.4,0.4-0.7,0.8-0.6l0,0l24.3,3
		c0.4,0,0.6,0.4,0.6,0.8c0,0,0,0,0,0C440.2,218.3,440,218.6,439.6,218.6z"></path><line class="st4" x1="414.5" y1="222.1" x2="438.7" y2="225"></line><path class="st0" d="M438.7,225.8L438.7,225.8l-24.4-3c-0.4-0.1-0.7-0.4-0.6-0.8c0-0.4,0.4-0.7,0.8-0.6c0,0,0,0,0,0l24.3,3
		c0.4,0,0.6,0.4,0.6,0.8c0,0,0,0,0,0C439.4,225.5,439.1,225.7,438.7,225.8z"></path><line class="st4" x1="413.6" y1="229.2" x2="437.8" y2="232.2"></line><path class="st0" d="M437.8,232.9L437.8,232.9l-24.4-3c-0.4,0-0.7-0.4-0.6-0.8c0,0,0,0,0,0c0-0.4,0.4-0.7,0.8-0.6c0,0,0,0,0,0
		l24.3,3c0.4,0.1,0.6,0.4,0.6,0.8C438.4,232.7,438.2,232.9,437.8,232.9L437.8,232.9z"></path><line class="st4" x1="412.7" y1="236.4" x2="429.1" y2="238.4"></line><path class="st0" d="M429.1,239.1H429l-16.4-2c-0.4-0.1-0.6-0.4-0.6-0.8c0-0.4,0.4-0.7,0.8-0.6c0,0,0,0,0,0l16.4,2
		c0.4,0,0.6,0.4,0.6,0.8c0,0,0,0,0,0C429.7,238.9,429.5,239.1,429.1,239.1z"></path><polygon class="st2" points="433.9,247.9 434.9,239.2 442.4,240.1 	"></polygon><path class="st0" d="M433.9,248.6c-0.1,0-0.2,0-0.3-0.1c-0.3-0.1-0.4-0.4-0.4-0.7l1.1-8.8c0-0.4,0.4-0.7,0.8-0.6c0,0,0,0,0,0
		l7.5,0.9c0.3,0,0.5,0.2,0.6,0.5c0.1,0.3,0,0.5-0.2,0.7l-8.6,7.9C434.2,248.6,434,248.6,433.9,248.6L433.9,248.6z M435.5,239.9
		l-0.8,6.2l6.1-5.6L435.5,239.9z"></path></g></svg>