<svg transform="scale(1)" version="1.1" id="Layer_1" xmlns="http://www.w3.org/2000/svg" xmlns:xlink="http://www.w3.org/1999/xlink" x="0px" y="0px" viewBox="0 0 500 500" xml:space="preserve" class="show_show__wrapper__graphic__5Waiy "><title>React</title><style type="text/css">
	.st0{fill:#FFFFFF;}
	.st1{fill:#231F20;}
	.st2{fill:#F4D161;}
	.st3{fill:#5b80b5;}
</style><g id="Laptop"><path class="st0" d="M105.6,179.6h288.7c11.9,0,21.6,9.6,21.6,21.6c0,0,0,0,0,0v176.3l0,0H84l0,0V201.2
		C84,189.2,93.7,179.5,105.6,179.6C105.6,179.5,105.6,179.5,105.6,179.6z"></path><path class="st1" d="M416,378.2H84c-0.4,0-0.7-0.3-0.7-0.7l0,0V201.2c0-12.3,10-22.3,22.3-22.3h288.8c12.3,0,22.3,10,22.3,22.3
		v176.3C416.7,377.8,416.4,378.1,416,378.2z M84.8,376.8h330.5V201.2c0-11.5-9.4-20.9-20.9-20.9H105.6c-11.5,0-20.9,9.4-20.9,20.9
		L84.8,376.8z"></path><rect class="st0" x="104.8" y="197.3" width="290.4" height="180.2"></rect><path class="st1" d="M395.2,378.2H104.8c-0.4,0-0.7-0.3-0.7-0.7l0,0V197.3c0-0.4,0.3-0.7,0.7-0.7h290.4c0.4,0,0.7,0.3,0.7,0.7
		c0,0,0,0,0,0v180.2C395.9,377.9,395.6,378.2,395.2,378.2L395.2,378.2z M105.5,376.8h289V198h-289V376.8z"></path><path class="st0" d="M64.6,377.5h370.9l0,0v0.9c0,12.7-10.3,23.1-23.1,23.1l0,0H87.7c-12.7,0-23.1-10.3-23.1-23.1l0,0L64.6,377.5
		L64.6,377.5z"></path><path class="st1" d="M412.4,402.2H87.7c-13.1,0-23.8-10.7-23.8-23.8v-0.9c0-0.4,0.3-0.7,0.7-0.7h370.9c0.4,0,0.7,0.3,0.7,0.7v0.9
		C436.1,391.5,425.5,402.2,412.4,402.2z M65.3,378.2v0.2c0,12.4,10,22.4,22.4,22.4h324.7c12.4,0,22.4-10,22.4-22.4v-0.2H65.3z"></path><rect class="st1" x="213.6" y="377.5" width="72.8" height="6.3"></rect><path class="st1" d="M286.4,384.5h-72.8c-0.4,0-0.7-0.3-0.7-0.7l0,0v-6.3c0-0.4,0.3-0.7,0.7-0.7c0,0,0,0,0,0h72.8
		c0.4,0,0.7,0.3,0.7,0.7v0v6.3C287.1,384.2,286.8,384.5,286.4,384.5L286.4,384.5z M214.3,383.1h71.4v-4.9h-71.4L214.3,383.1z"></path><path class="st2" d="M393.9,218.6H106.1c-0.4,0-0.7-0.3-0.7-0.7c0-0.4,0.3-0.7,0.7-0.7h287.8c0.4,0,0.7,0.3,0.7,0.7
		S394.3,218.6,393.9,218.6C393.9,218.6,393.9,218.6,393.9,218.6z"></path><circle class="st3" cx="118.8" cy="207.9" r="4.7"></circle><circle class="st2" cx="133.4" cy="207.9" r="4.7"></circle><circle class="st2" cx="148" cy="207.9" r="4.7"></circle></g><g id="Screen"><path class="st2" d="M385.5,307.2h-79.9c-0.4,0-0.7-0.3-0.7-0.7v0v-56.8c0-0.4,0.3-0.7,0.7-0.7l0,0h79.9c0.4,0,0.7,0.3,0.7,0.7
		v56.8C386.2,306.9,385.9,307.2,385.5,307.2L385.5,307.2z M306.2,305.8h78.5v-55.4h-78.5V305.8z"></path><path class="st2" d="M166.5,250.4h-44.8c-0.4,0-0.7-0.3-0.7-0.7c0-0.4,0.3-0.7,0.7-0.7h44.8c0.4,0,0.7,0.3,0.7,0.7
		C167.2,250.1,166.9,250.4,166.5,250.4z"></path><path class="st2" d="M166.5,267.1h-44.8c-0.4,0-0.7-0.3-0.7-0.7c0-0.4,0.3-0.7,0.7-0.7c0,0,0,0,0,0h44.8c0.4,0,0.7,0.3,0.7,0.7
		C167.2,266.8,166.9,267.1,166.5,267.1z"></path><path class="st2" d="M166.5,283.8h-44.8c-0.4,0-0.7-0.3-0.7-0.7c0-0.4,0.3-0.7,0.7-0.7h44.8c0.4,0,0.7,0.3,0.7,0.7
		C167.2,283.5,166.9,283.8,166.5,283.8z"></path><path class="st2" d="M166.5,300.6h-44.8c-0.4,0-0.7-0.3-0.7-0.7c0-0.4,0.3-0.7,0.7-0.7h44.8c0.4,0,0.7,0.3,0.7,0.7
		C167.2,300.2,166.9,300.6,166.5,300.6z"></path></g><g id="Stars"><path class="st2" d="M186.2,125.1c-0.3,0-0.6,0-0.8-0.1c-1-0.3-1.7-1.3-1.8-2.4l-0.1-5.3c0-0.4-0.2-0.7-0.4-0.9l-4.2-3.3
		c-1.1-0.9-1.3-2.5-0.4-3.6c0.5-0.6,1.2-1,2-1l5.3-0.1c0.4,0,0.7-0.2,0.9-0.5l3.3-4.2c0.9-1.1,2.5-1.3,3.6-0.5c0.6,0.5,1,1.2,1,2
		l0.1,5.3c0,0.4,0.2,0.7,0.4,0.9l4.2,3.3c1.1,0.9,1.3,2.5,0.5,3.6c-0.5,0.6-1.2,1-2,1l-5.3,0.1c-0.4,0-0.7,0.2-0.9,0.5l-3.3,4.2
		C187.7,124.7,187,125.1,186.2,125.1z M191.9,104.1c-0.4,0-0.7,0.2-0.9,0.4l-3.3,4.2c-0.5,0.6-1.2,1-2,1l-5.3,0.1
		c-0.5,0-0.9,0.3-1.1,0.8c-0.2,0.5,0,1,0.4,1.3l4.2,3.3c0.6,0.5,1,1.2,1,2l0.1,5.3c0,0.6,0.5,1.2,1.2,1.1c0.4,0,0.7-0.2,0.9-0.4
		l3.3-4.2c0.5-0.6,1.2-1,2-1l5.3-0.1c0.5,0,0.9-0.3,1.1-0.8c0.2-0.5,0-1-0.4-1.3l-4.2-3.3c-0.6-0.5-1-1.2-1-2l-0.1-5.3
		c0-0.5-0.3-0.9-0.8-1.1C192.2,104.1,192,104.1,191.9,104.1L191.9,104.1z"></path><path class="st2" d="M338.6,135.6c-1.2,0-2.2-0.7-2.7-1.7l-2.7-5.9c-0.2-0.4-0.6-0.8-1-0.9l-6.3-1.6c-1.6-0.4-2.5-2.1-2.1-3.7
		c0.2-0.8,0.8-1.5,1.6-1.9l5.9-2.7c0.4-0.2,0.7-0.6,0.9-1l1.6-6.3c0.4-1.6,2.1-2.5,3.7-2.1c0.8,0.2,1.5,0.8,1.9,1.6l2.7,5.9
		c0.2,0.4,0.6,0.8,1,0.9l6.3,1.6c1.6,0.4,2.5,2.1,2.1,3.7c-0.2,0.8-0.8,1.5-1.6,1.9L344,126c-0.4,0.2-0.7,0.6-0.9,1l-1.6,6.3
		c-0.3,1.2-1.4,2.1-2.6,2.2L338.6,135.6z M336.6,109h-0.1c-0.7,0.1-1.2,0.5-1.4,1.2l-1.6,6.3c-0.2,0.9-0.8,1.6-1.6,2l-5.9,2.7
		c-0.8,0.3-1.2,1.3-0.8,2.1c0.2,0.5,0.6,0.8,1.1,0.9l6.3,1.6c0.9,0.2,1.6,0.8,2,1.7l2.7,5.9c0.3,0.8,1.3,1.2,2.1,0.8
		c0.5-0.2,0.8-0.6,0.9-1.1l1.6-6.3c0.2-0.9,0.8-1.6,1.7-2l5.9-2.7c0.8-0.3,1.2-1.3,0.8-2.1c-0.2-0.5-0.6-0.8-1.1-0.9l-6.3-1.6
		c-0.9-0.2-1.6-0.8-2-1.7l-2.7-5.9l0,0C337.8,109.3,337.2,109,336.6,109L336.6,109z"></path><path class="st2" d="M311.5,160.8c-0.9,0-1.7-0.5-2.1-1.3l-1.9-4.1c-0.1-0.2-0.3-0.4-0.6-0.5l-4.4-1.1c-1.2-0.3-2-1.5-1.7-2.8
		c0.2-0.7,0.6-1.2,1.3-1.5l4.1-1.9c0.2-0.1,0.4-0.3,0.5-0.6l1.1-4.4c0.3-1.2,1.5-2,2.8-1.7c0.7,0.2,1.2,0.6,1.5,1.3l0,0l1.9,4.1
		c0.1,0.2,0.3,0.4,0.6,0.5l4.4,1.1c1.2,0.3,2,1.5,1.7,2.8c-0.2,0.7-0.6,1.2-1.3,1.5l-4.1,1.9c-0.2,0.1-0.4,0.3-0.5,0.6l-1.1,4.4
		c-0.2,0.9-1,1.6-2,1.7L311.5,160.8z M310.1,142.3H310c-0.4,0-0.7,0.3-0.8,0.7l-1.1,4.4c-0.2,0.7-0.6,1.2-1.3,1.5l-4.1,1.9
		c-0.4,0.2-0.6,0.7-0.4,1.2c0.1,0.2,0.3,0.4,0.6,0.5l4.4,1.1c0.7,0.2,1.2,0.6,1.5,1.3l1.9,4.1c0.2,0.4,0.7,0.6,1.2,0.4
		c0.3-0.1,0.4-0.3,0.5-0.6l1.1-4.4c0.2-0.7,0.6-1.2,1.3-1.5l4.1-1.9c0.4-0.2,0.6-0.7,0.4-1.2c-0.1-0.3-0.3-0.4-0.6-0.5l-4.4-1.1
		c-0.7-0.2-1.2-0.6-1.5-1.3l-1.9-4.1C310.8,142.5,310.5,142.3,310.1,142.3L310.1,142.3z"></path></g><g id="Gear"><path class="st0" d="M132.1,155.7c0.4-1.2,0.8-2.5,1.3-3.7c0.2-0.6,0.5-1.3,0.7-1.9c0.3-0.8,1.1-1.3,1.9-1.2c1,0.1,2,0.3,3,0.5
		c0.5,0.1,1.1,0.2,1.6,0.2c0.4,0,0.8-0.1,1.1-0.4c1.1-1.1,2.2-2.2,3.3-3.4c0.4-0.4,0.5-1,0.3-1.6c-0.2-1.2-0.6-2.4-0.8-3.6
		c-0.1-0.5-0.2-0.9-0.1-1.4c0-0.4,0.2-0.7,0.5-0.9c1.9-1.2,3.9-2.1,6-2.7c0.6-0.2,1.3,0.1,1.7,0.6c0.8,1,1.6,2.1,2.3,3.1
		c0.5,0.8,1.4,1.3,2.4,1.2c1.3-0.1,2.6-0.1,4-0.2c0.5,0,0.9-0.3,1.2-0.7c0.5-0.7,0.9-1.4,1.4-2.1s0.8-1.2,1.2-1.8
		c0.4-0.6,1.1-0.9,1.8-0.6c1.8,0.6,3.7,1.3,5.5,2c0.7,0.3,1.1,1,1,1.8c-0.1,1-0.3,2-0.5,3c-0.1,0.5-0.1,0.9-0.2,1.4
		c-0.1,0.6,0.2,1.2,0.6,1.7c1,0.9,1.9,1.8,2.9,2.7c0.5,0.6,1.4,0.8,2.1,0.6c1.3-0.3,2.6-0.6,3.9-0.9c0.9-0.3,1.8,0.1,2.2,1
		c0.8,1.6,1.5,3.1,2.1,4.7c0.5,0.9,0.3,2-0.6,2.6c0,0-0.1,0-0.1,0.1c-0.7,0.5-1.4,1-2.1,1.5c-0.5,0.4-1,0.8-1.4,1.1
		c-0.4,0.3-0.6,0.8-0.6,1.4c0,1.4,0,2.7,0.1,4.1c0,0.8,0.4,1.5,1.1,1.8c0.7,0.4,1.5,0.9,2.2,1.3c0.5,0.3,0.9,0.6,1.3,0.9
		c0.7,0.4,0.9,1.3,0.6,2c-0.6,1.7-1.2,3.3-1.9,4.9c-0.1,0.2-0.2,0.5-0.4,0.7c-0.3,0.5-0.9,0.8-1.5,0.7l-3.6-0.6h-0.3
		c-1-0.3-2.1,0.1-2.7,1c-0.7,0.8-1.4,1.5-2.1,2.2c-0.7,0.7-0.9,1.7-0.7,2.6c0.3,1.1,0.6,2.3,0.8,3.5c0.4,0.9,0,1.9-0.9,2.2
		c-0.1,0-0.1,0.1-0.2,0.1c-1.6,0.8-3.2,1.5-4.9,2.2c-0.8,0.4-1.7,0.2-2.2-0.6c-0.6-0.8-1.2-1.6-1.8-2.5c-1.3-1.8-1.6-2-3.8-1.8
		l-2.6,0.1c-0.8,0-1.6,0.5-2,1.2c-0.5,0.9-1,1.7-1.6,2.6c-0.3,0.4-0.6,0.8-1,1.2c-0.3,0.4-0.9,0.5-1.4,0.4c-1.7-0.6-3.5-1.3-5.2-1.9
		c-0.2-0.1-0.5-0.2-0.7-0.4c-0.5-0.3-0.8-0.9-0.7-1.5c0.2-1.2,0.4-2.3,0.6-3.5c0.1-0.4,0.1-0.7,0.1-1.1c0.1-0.6-0.2-1.3-0.7-1.7
		c-0.9-0.9-1.9-1.7-2.8-2.6c-0.5-0.5-1.3-0.7-2-0.5c-1.1,0.3-2.3,0.5-3.5,0.8h-0.1c-1.5,0.3-2,0.1-2.7-1.3s-1.4-3.1-2-4.7
		c-0.4-0.7-0.2-1.7,0.5-2.1c0,0,0.1,0,0.1,0c0.9-0.7,1.9-1.4,2.8-2c1-0.5,1.5-1.6,1.4-2.7c-0.1-1.2-0.1-2.5-0.2-3.7
		c0-0.5-0.3-1-0.7-1.3c-1-0.7-2.1-1.3-3.1-2c-0.7-0.4-1.3-1-1.6-1.7L132.1,155.7z M171.2,162.6c0-6.5-5.2-11.7-11.7-11.7
		c0,0-0.1,0-0.1,0c-6.3,0.2-11.4,5.4-11.5,11.7c0,6.4,5.2,11.6,11.6,11.6c6.4,0.1,11.6-5.1,11.7-11.5
		C171.3,162.7,171.3,162.6,171.2,162.6z"></path><path class="st2" d="M152.9,190.8c-0.2,0-0.5,0-0.7-0.1l-1.3-0.5l-3.9-1.4c-0.2-0.1-0.5-0.2-0.7-0.4c-0.8-0.4-1.3-1.4-1.1-2.3
		l0.3-1.6c0.1-0.6,0.2-1.3,0.3-1.9c0.1-0.3,0.1-0.7,0.1-1c0-0.4-0.1-0.7-0.4-1c-0.8-0.8-1.7-1.6-2.5-2.3l-0.3-0.3
		c-0.4-0.4-0.9-0.5-1.4-0.3c-0.8,0.2-1.6,0.4-2.4,0.6l-1.1,0.2h-0.2c-1.9,0.3-2.6-0.1-3.4-1.7c-0.6-1.3-1.3-2.8-2-4.8
		c-0.6-1.1-0.2-2.4,0.9-3c1.1-0.8,2-1.5,2.9-2c0.8-0.4,1.2-1.2,1.1-2.1c-0.1-0.8-0.1-1.5-0.1-2.3l-0.1-1.4c0-0.3-0.1-0.6-0.4-0.7
		l-1.2-0.8l-1.8-1.2c-0.9-0.4-1.5-1.2-1.9-2.1c0-0.1,0-0.1,0-0.2v-0.4c0-0.1,0-0.1,0-0.2l0.4-1.1c0.3-0.9,0.6-1.8,0.9-2.7
		c0.2-0.6,0.5-1.3,0.8-1.9c0.4-1.1,1.5-1.8,2.7-1.6c0.7,0.1,1.3,0.2,2,0.3l1,0.2l0.4,0.1c0.4,0.1,0.7,0.1,1.1,0.1
		c0.2,0,0.4-0.1,0.6-0.2c1.2-1.2,2.3-2.3,3.3-3.4c0.2-0.3,0.3-0.7,0.2-1c-0.1-0.5-0.2-1.1-0.4-1.6c-0.2-0.7-0.3-1.4-0.4-2
		c-0.1-0.5-0.2-1.1-0.1-1.6c0-0.6,0.3-1.1,0.8-1.4c1.9-1.2,4-2.2,6.1-2.8c0.9-0.3,1.9,0.1,2.4,0.9l0.8,1.1c0.5,0.7,1,1.4,1.5,2
		c0.3,0.6,1,1,1.7,0.9c0.9-0.1,1.7-0.1,2.6-0.1l1.4-0.1c0.3,0,0.5-0.2,0.6-0.4c0.3-0.4,0.6-0.8,0.8-1.3l0.7-1.1c0.3-0.5,0.7-1,1-1.5
		c0.6-0.9,1.6-1.2,2.6-0.9c2.2,0.8,3.9,1.4,5.5,2c1,0.4,1.6,1.4,1.4,2.5c-0.1,0.7-0.2,1.4-0.3,2.1l-0.2,1c-0.1,0.5-0.1,0.9-0.2,1.4
		c-0.1,0.4,0.1,0.8,0.4,1.1l0.7,0.6c0.8,0.7,1.5,1.4,2.2,2.1c0.4,0.4,1,0.6,1.5,0.4l1.9-0.4l2-0.4c1.2-0.4,2.5,0.2,3,1.4
		c0.8,1.6,1.5,3.1,2.2,4.7c0.7,1.2,0.3,2.7-0.9,3.4c-0.4,0.3-0.8,0.6-1.3,0.9l-0.8,0.6c-0.5,0.4-1,0.7-1.4,1.1
		c-0.2,0.2-0.4,0.5-0.4,0.8v0.9c0,1.1,0,2.1,0.1,3.2c0,0.5,0.3,1,0.8,1.2l0.9,0.6l1.3,0.8c0.5,0.3,1,0.6,1.4,0.9
		c0.9,0.6,1.2,1.7,0.8,2.8c-0.6,1.7-1.2,3.3-1.9,5c-0.1,0.3-0.3,0.5-0.4,0.8c-0.5,0.8-1.4,1.2-2.3,1.1l-3.6-0.6h-0.3
		c-0.8-0.2-1.6,0.1-2,0.7c-0.5,0.6-1,1.1-1.5,1.6l-0.6,0.7c-0.5,0.5-0.7,1.2-0.5,1.9c0.3,1.2,0.6,2.3,0.8,3.5c0.5,1.2-0.2,2.6-1.4,3
		c0,0-0.1,0-0.1,0c-1.5,0.7-3.1,1.4-4.9,2.2c-1.1,0.5-2.3,0.2-3-0.8c-0.5-0.7-1-1.4-1.5-2.1l-0.3-0.4c-1.1-1.6-1.2-1.6-3.2-1.6
		l-2.6,0.1c-0.6,0-1.2,0.3-1.5,0.8l-0.5,0.9c-0.4,0.6-0.7,1.2-1.1,1.7c-0.3,0.5-0.7,0.9-1.1,1.3C154,190.6,153.4,190.8,152.9,190.8z
		 M141.8,176.1c0.7,0,1.4,0.3,1.9,0.8l0.3,0.3l2.5,2.3c0.6,0.5,0.9,1.3,0.8,2.1c0,0.4-0.1,0.8-0.1,1.1c-0.1,0.6-0.2,1.3-0.3,1.9
		l-0.3,1.6c-0.1,0.3,0.1,0.7,0.4,0.8c0.2,0.1,0.3,0.2,0.5,0.3l3.9,1.4l1.3,0.5c0.2,0.1,0.4,0.1,0.6-0.2c0.3-0.3,0.6-0.7,0.9-1.1
		c0.4-0.6,0.7-1.1,1-1.7l0.5-0.9c0.5-0.9,1.5-1.5,2.6-1.5l2.6-0.1c2.4-0.1,3,0.1,4.4,2.1l0.3,0.5c0.5,0.7,1,1.4,1.5,2
		c0.3,0.5,0.9,0.6,1.3,0.4c1.8-0.8,3.4-1.5,4.9-2.2c0.8-0.4,0.9-0.6,0.7-1.5c-0.2-1.1-0.5-2.3-0.8-3.4c-0.3-1.1,0-2.4,0.8-3.2
		l0.7-0.7c0.5-0.5,1-1,1.4-1.6c0.8-1,2.1-1.5,3.4-1.2h0.2l3.6,0.6c0.3,0.1,0.7-0.1,0.8-0.4c0.1-0.2,0.2-0.4,0.3-0.6
		c0.6-1.6,1.2-3.3,1.8-4.9c0.2-0.4,0-0.9-0.4-1.2c-0.4-0.3-0.8-0.6-1.3-0.9c-0.4-0.3-0.9-0.5-1.3-0.8l-1-0.6
		c-0.8-0.5-1.3-1.4-1.4-2.3c-0.1-1.1-0.1-2.2-0.1-3.2v-0.9c0-0.7,0.3-1.4,0.9-1.9c0.5-0.4,1-0.8,1.5-1.2l0.9-0.6
		c0.4-0.3,0.8-0.6,1.2-0.9c0.8-0.6,0.8-0.9,0.5-1.8c-0.7-1.6-1.4-3.1-2.1-4.7c-0.2-0.6-0.8-0.9-1.3-0.7c0,0-0.1,0-0.1,0
		c-0.7,0.1-1.3,0.3-2,0.4l-1.9,0.4c-1,0.3-2.1-0.1-2.8-0.8c-0.7-0.7-1.4-1.4-2.2-2.1l-0.7-0.6c-0.6-0.6-0.9-1.4-0.8-2.2
		c0-0.5,0.1-1,0.2-1.5l0.2-1c0.1-0.6,0.2-1.3,0.3-1.9c0.1-0.4-0.1-0.8-0.5-1c-1.6-0.6-3.2-1.2-5.4-2c-0.4-0.1-0.8,0-1,0.4
		c-0.4,0.5-0.7,1-1,1.5l-0.7,1.1c-0.3,0.4-0.6,0.9-0.8,1.3c-0.4,0.6-1,1-1.7,1l-1.4,0.1c-0.8,0-1.7,0.1-2.5,0.1
		c-1.2,0.1-2.4-0.4-3-1.5c-0.5-0.7-1-1.3-1.4-2l-0.8-1.1c-0.2-0.4-0.6-0.5-1-0.4c-2,0.6-4,1.5-5.8,2.6c-0.1,0.1-0.1,0.2-0.1,0.4
		c0,0.4,0,0.8,0.1,1.2c0.1,0.7,0.3,1.3,0.4,2l0.4,1.6c0.2,0.8,0,1.6-0.5,2.2c-1,1-2.1,2.2-3.3,3.4c-0.4,0.4-1,0.6-1.6,0.6
		c-0.5,0-0.9-0.1-1.4-0.1l-0.4-0.1c-0.3-0.1-0.7-0.1-1-0.2c-0.6-0.1-1.3-0.2-1.9-0.3c-0.5-0.1-1.1,0.2-1.2,0.8
		c-0.3,0.6-0.5,1.2-0.7,1.9c-0.3,0.9-0.6,1.8-0.9,2.6l-0.3,1.1c0.3,0.5,0.7,0.9,1.3,1.2l1.8,1.2l1.3,0.8c0.6,0.4,1,1.1,1,1.8
		l0.1,1.4c0,0.8,0,1.5,0.1,2.2c0.1,1.4-0.5,2.7-1.7,3.4c-0.9,0.6-1.7,1.2-2.8,2c-0.6,0.5-0.7,0.7-0.4,1.4c0.8,1.9,1.4,3.4,2,4.7
		c0.5,1.1,0.7,1.1,1.9,0.9l1.2-0.3c0.8-0.2,1.6-0.4,2.4-0.6C141.1,176.2,141.4,176.1,141.8,176.1z M159.6,174.9L159.6,174.9
		c-6.8,0-12.3-5.5-12.3-12.3c0-3.3,1.3-6.4,3.6-8.7c2.3-2.3,5.3-3.6,8.6-3.7c6.8-0.1,12.4,5.4,12.5,12.2c0,0.1,0,0.1,0,0.2
		c0.1,3.2-1.1,6.2-3.3,8.5C166.3,173.6,163,175,159.6,174.9z M159.4,151.6c-2.8,0.1-5.5,1.3-7.5,3.3c-4.3,4.2-4.3,11.1-0.1,15.4
		c2,2.1,4.8,3.2,7.7,3.2l0,0c3,0,5.9-1.2,8-3.4c2-2,3-4.7,2.9-7.5l0,0C170.5,156.5,165.6,151.6,159.4,151.6
		C159.5,151.6,159.4,151.6,159.4,151.6L159.4,151.6z"></path></g><g id="Idea"><path class="st0" d="M356.5,212c-1.7-0.6-3.4-1.2-5.1-1.7c-2.6-0.5-4.4-3-4-5.6c0.4-4.4-0.7-8.5-2.2-12.6
		c-2.2-5.9-2.1-12.4,0.5-18.2c5.3-11.9,17.7-16.1,29.9-10.6c18.1,8.1,16.9,29.2,2.6,39.4c-3.9,2.7-7.6,5.4-10.2,9.5
		c-1.5,2.2-3.6,2.8-6.2,1.8C360.1,213.1,358.3,212.6,356.5,212z"></path><path class="st2" d="M364.2,215c-0.9,0-1.7-0.2-2.6-0.5c-1.2-0.5-2.4-0.9-3.6-1.3l-1.7-0.6l-1.6-0.6c-1.1-0.4-2.3-0.8-3.5-1.1
		c-3-0.6-4.9-3.4-4.5-6.4c0.4-4.6-0.9-8.8-2.1-12.4c-2.3-6.1-2.1-12.8,0.5-18.7c2.2-5.5,6.6-9.8,12.1-12c5.7-2.2,12.4-1.8,18.7,1
		c8,3.6,13,10.1,13.8,17.9c0.9,8.6-3.4,17.2-11,22.7c-3.6,2.6-7.4,5.3-10,9.3C367.8,214,366.1,215,364.2,215z M365,161.5
		c-8.2-0.1-15.6,4.9-18.7,12.6c-2.5,5.6-2.7,12-0.5,17.7c1.3,3.7,2.6,8.1,2.2,12.9c-0.4,2.3,1.2,4.5,3.5,4.9
		c1.2,0.4,2.4,0.8,3.6,1.2c0.5,0.2,1,0.4,1.6,0.5l0,0l1.7,0.6c1.2,0.4,2.5,0.8,3.7,1.3c2.3,0.9,4.1,0.4,5.4-1.5
		c2.7-4.2,6.6-7,10.4-9.7c7.2-5.1,11.2-13.3,10.5-21.4c-0.7-7.4-5.3-13.4-12.9-16.8C372.1,162.4,368.6,161.6,365,161.5L365,161.5z"></path><path class="st0" d="M349.6,209.7l13.8,4.6c1.2,0.4,1.9,1.8,1.5,3l-0.2,0.7c-0.4,1.2-1.8,1.9-3,1.5l-13.8-4.6
		c-1.2-0.4-1.9-1.8-1.5-3l0.2-0.7C347,209.9,348.4,209.2,349.6,209.7z"></path><path class="st2" d="M362.4,220.3c-0.3,0-0.7-0.1-1-0.2l0,0l-13.8-4.6c-1.6-0.5-2.5-2.3-1.9-3.9l0.2-0.7c0.5-1.6,2.3-2.5,3.9-1.9
		l13.8,4.6c1.6,0.5,2.5,2.3,1.9,3.9c0,0,0,0,0,0l-0.2,0.7C364.9,219.5,363.7,220.3,362.4,220.3z M361.9,218.8c0.9,0.3,1.8-0.1,2.1-1
		l0.2-0.7c0.1-0.4,0.1-0.9-0.1-1.3c-0.2-0.4-0.6-0.7-1-0.8l-13.8-4.6c-0.9-0.3-1.8,0.1-2.1,1l-0.2,0.7c-0.3,0.9,0.2,1.8,1,2.1
		c0,0,0,0,0,0L361.9,218.8z"></path><path class="st0" d="M347.9,214.9l13.8,4.6c1.2,0.4,1.9,1.8,1.5,3l-0.2,0.7c-0.4,1.2-1.8,1.9-3,1.5l-13.8-4.6
		c-1.2-0.4-1.9-1.8-1.5-3l0.2-0.7C345.3,215.1,346.6,214.4,347.9,214.9z"></path><path class="st2" d="M360.7,225.5c-0.3,0-0.7-0.1-1-0.2l0,0l-13.8-4.6c-1.6-0.5-2.5-2.3-1.9-3.9c0,0,0,0,0,0l0.2-0.7
		c0.5-1.6,2.3-2.5,3.9-1.9c0,0,0,0,0,0l13.8,4.6c0.8,0.3,1.4,0.8,1.8,1.5c0.4,0.7,0.4,1.6,0.2,2.3l-0.2,0.7
		C363.1,224.7,362,225.5,360.7,225.5z M360.1,224c0.9,0.3,1.8-0.1,2.1-1l0.2-0.7c0.1-0.4,0.1-0.9-0.1-1.3c-0.2-0.4-0.6-0.7-1-0.8
		l-13.8-4.6c-0.4-0.1-0.9-0.1-1.3,0.1c-0.4,0.2-0.7,0.6-0.8,1l-0.2,0.7c-0.3,0.9,0.2,1.8,1,2.1L360.1,224z"></path><path class="st0" d="M360.1,224.8c-0.7,2-4.4,2.5-8.3,1.2s-6.6-4-5.9-5.9L360.1,224.8z"></path><path class="st2" d="M356,227.4c-1.5,0-3-0.3-4.4-0.8c-1.8-0.6-3.5-1.6-4.9-2.9c-1.3-1.3-1.8-2.7-1.4-3.9c0.1-0.4,0.5-0.6,0.9-0.4
		c0,0,0,0,0,0l14.2,4.8c0.2,0.1,0.3,0.2,0.4,0.4c0.1,0.2,0.1,0.4,0,0.5c-0.4,1.2-1.6,2-3.5,2.3C356.9,227.3,356.4,227.4,356,227.4z
		 M346.5,221c0.2,0.7,0.6,1.3,1.1,1.8c1.3,1.2,2.8,2.1,4.4,2.6c3.2,1.1,5.9,0.8,7-0.1L346.5,221z"></path><path class="st2" d="M361.8,211.4h-0.1c-0.4-0.1-0.6-0.4-0.6-0.8c0,0,0,0,0,0c0.8-4.5,2-8.9,3.8-13.1c-1.9-0.2-3.7-0.6-5.5-1.4
		c-1.1,4.1-2.5,8.1-4.3,12l-0.2,0.5c-0.1,0.4-0.5,0.6-0.9,0.5s-0.6-0.5-0.5-0.9c0,0,0-0.1,0.1-0.1l0.2-0.5c1.8-3.9,3.3-7.9,4.3-12
		c-2.4-1.3-4.5-3.1-6.1-5.3c-1-1.3-1.6-2.9-1.8-4.6c-0.2-1.8,0.6-3.6,2-4.7c2.3-1.4,5.4-0.7,6.8,1.6c0.1,0.1,0.1,0.2,0.2,0.4
		c0.8,2,1.1,4.9,0.9,8.7c-0.1,1-0.2,2.1-0.4,3.1c1.8,0.8,3.8,1.3,5.8,1.4c0-0.1,0.1-0.2,0.1-0.2l0.2-0.4c1.5-3.2,3.4-7.3,6.8-9.2
		c0.6-0.3,2.5-1.3,4-0.6c0.8,0.4,1.3,1.1,1.4,2c0.4,2.4-0.4,4.7-2.1,6.4c-1.6,1.6-3.7,2.6-5.9,3.1c-1.2,0.3-2.3,0.4-3.5,0.4l0,0
		c-1.8,4.3-3.2,8.7-3.9,13.3C362.4,211.2,362.1,211.4,361.8,211.4z M375.4,186.9c-0.8,0-1.5,0.3-2.1,0.7c-3,1.6-4.7,5.4-6.2,8.5v0.1
		c0.9,0,1.7-0.2,2.6-0.3c2-0.4,3.8-1.3,5.2-2.7c1.4-1.3,2.1-3.3,1.8-5.2c-0.1-0.7-0.5-0.9-0.6-0.9
		C375.8,186.9,375.6,186.9,375.4,186.9L375.4,186.9z M354.7,181.5c-0.6,0-1.2,0.2-1.7,0.5c-1,0.8-1.6,2.1-1.4,3.4
		c0.2,1.4,0.7,2.8,1.6,3.9c1.4,1.9,3.1,3.5,5.2,4.7c0.1-0.8,0.2-1.7,0.3-2.5c0.3-3.6,0-6.3-0.8-8.1c-0.4-0.9-1.2-1.5-2.1-1.7
		C355.5,181.6,355.1,181.5,354.7,181.5L354.7,181.5z"></path></g><g id="Lines"><path class="st2" d="M121.7,122.3c-0.4,0-0.7-0.3-0.7-0.7v-4.5c0-0.4,0.3-0.7,0.7-0.7c0.4,0,0.7,0.3,0.7,0.7l0,0v4.5
		C122.4,122,122.1,122.3,121.7,122.3L121.7,122.3z"></path><path class="st2" d="M121.7,131.6c-0.4,0-0.7-0.3-0.7-0.7v-4.5c0-0.4,0.3-0.7,0.7-0.7c0.4,0,0.7,0.3,0.7,0.7l0,0v4.5
		C122.4,131.3,122.1,131.6,121.7,131.6L121.7,131.6z"></path><path class="st2" d="M128.6,124.7h-4.5c-0.4,0-0.7-0.3-0.7-0.7c0-0.4,0.3-0.7,0.7-0.7h4.5c0.4,0,0.7,0.3,0.7,0.7
		C129.3,124.4,129,124.7,128.6,124.7z"></path><path class="st2" d="M119.3,124.7h-4.5c-0.4,0-0.7-0.3-0.7-0.7c0-0.4,0.3-0.7,0.7-0.7h4.5c0.4,0,0.7,0.3,0.7,0.7
		C120,124.4,119.7,124.7,119.3,124.7z"></path><path class="st2" d="M106.1,157.2c-0.4,0-0.7-0.3-0.7-0.7v-4.5c0-0.4,0.3-0.7,0.7-0.7c0.4,0,0.7,0.3,0.7,0.7v4.5
		C106.8,156.9,106.5,157.2,106.1,157.2L106.1,157.2z"></path><path class="st2" d="M106.1,166.6c-0.4,0-0.7-0.3-0.7-0.7v-4.5c0-0.4,0.3-0.7,0.7-0.7c0.4,0,0.7,0.3,0.7,0.7l0,0v4.5
		C106.8,166.3,106.5,166.6,106.1,166.6L106.1,166.6z"></path><path class="st2" d="M113,159.7h-4.5c-0.4,0-0.7-0.3-0.7-0.7c0-0.4,0.3-0.7,0.7-0.7c0,0,0,0,0,0h4.5c0.4,0,0.7,0.3,0.7,0.7
		C113.7,159.4,113.4,159.7,113,159.7C113,159.7,113,159.7,113,159.7z"></path><path class="st2" d="M103.7,159.7h-4.5c-0.4,0-0.7-0.3-0.7-0.7c0-0.4,0.3-0.7,0.7-0.7c0,0,0,0,0,0h4.5c0.4,0,0.7,0.3,0.7,0.7
		C104.4,159.4,104.1,159.7,103.7,159.7C103.7,159.7,103.7,159.7,103.7,159.7z"></path><path class="st2" d="M379.6,141.5c-0.4,0-0.7-0.3-0.7-0.7c0,0,0,0,0,0v-4.5c0-0.4,0.3-0.7,0.7-0.7c0.4,0,0.7,0.3,0.7,0.7
		c0,0,0,0,0,0v4.5C380.3,141.2,380,141.5,379.6,141.5z"></path><path class="st2" d="M379.6,150.8c-0.4,0-0.7-0.3-0.7-0.7c0,0,0,0,0,0v-4.5c0-0.4,0.3-0.7,0.7-0.7c0.4,0,0.7,0.3,0.7,0.7v4.5
		C380.3,150.5,380,150.8,379.6,150.8z"></path><path class="st2" d="M386.5,143.9H382c-0.4,0-0.7-0.3-0.7-0.7c0-0.4,0.3-0.7,0.7-0.7h4.5c0.4,0,0.7,0.3,0.7,0.7
		C387.2,143.6,386.9,143.9,386.5,143.9L386.5,143.9z"></path><path class="st2" d="M377.2,143.9h-4.5c-0.4,0-0.7-0.3-0.7-0.7s0.3-0.7,0.7-0.7c0,0,0,0,0,0h4.5c0.4,0,0.7,0.3,0.7,0.7
		C377.9,143.6,377.6,143.9,377.2,143.9z"></path></g><g id="Rocket"><rect class="st0" x="235.1" y="258.8" width="29.7" height="95.4"></rect><path class="st1" d="M264.9,354.9h-29.7c-0.4,0-0.7-0.3-0.7-0.7l0,0v-95.4c0-0.4,0.3-0.7,0.7-0.7c0,0,0,0,0,0h29.7
		c0.4,0,0.7,0.3,0.7,0.7v0v95.4C265.6,354.6,265.2,354.9,264.9,354.9L264.9,354.9z M235.9,353.5h28.3v-94h-28.3L235.9,353.5z"></path><path class="st1" d="M253.6,296.8c-0.4,0-0.7-0.3-0.7-0.7v-20c0-0.4,0.3-0.7,0.7-0.7c0.4,0,0.7,0.3,0.7,0.7v20
		C254.3,296.4,254,296.8,253.6,296.8C253.6,296.8,253.6,296.8,253.6,296.8z"></path><path class="st1" d="M242.8,307.2c-0.4,0-0.7-0.3-0.7-0.7l0,0v-20.9c0-0.4,0.3-0.7,0.7-0.7c0.4,0,0.7,0.3,0.7,0.7v20.9
		C243.5,306.9,243.2,307.2,242.8,307.2C242.8,307.2,242.8,307.2,242.8,307.2z"></path><path class="st1" d="M259.8,304.5c-0.4,0-0.7-0.3-0.7-0.7v0v-8.7c0-0.4,0.3-0.7,0.7-0.7c0.4,0,0.7,0.3,0.7,0.7v8.7
		C260.4,304.2,260.1,304.5,259.8,304.5z"></path><path class="st0" d="M121.7,377.5c0,0,6.5-36.2,31-46.1s37.7,10.5,37.7,10.5s6.4-33.7,45.2-33.7s47.8,26.5,47.8,26.5
		s8-16,25.5-14.9s20.2,23.1,20.2,23.1s15.6-7.8,32.4,0s23.9,34.6,23.9,34.6H121.7z"></path><path class="st1" d="M385.5,378.2H121.7c-0.2,0-0.4-0.1-0.5-0.2c-0.1-0.2-0.2-0.4-0.2-0.6c1.4-6.7,3.5-13.3,6.4-19.5
		c4.3-9.5,12.2-21.9,25-27.1c21.1-8.6,34.2,5.2,37.7,9.5c1.8-6.6,11.3-32.8,45.5-32.8c33.8,0,45.4,20.2,47.9,25.6
		c2.4-3.8,10.6-15,25.5-14c15.8,1,19.9,18.5,20.7,22.8c3.5-1.5,17.5-6.5,32.2,0.4c17,7.9,24,34,24.3,35.1c0.1,0.2,0,0.4-0.1,0.6
		C385.9,378.1,385.7,378.2,385.5,378.2z M122.6,376.8h261.9c-1.4-4.7-8.6-26.5-23.3-33.3c-16.4-7.6-31.7-0.1-31.8,0
		c-0.3,0.2-0.8,0-0.9-0.3c0-0.1-0.1-0.2-0.1-0.2c0-0.2-2.8-21.4-19.5-22.5s-24.8,14.3-24.9,14.5c-0.1,0.3-0.4,0.4-0.7,0.4
		c-0.3,0-0.5-0.2-0.6-0.5c-0.1-0.3-9.4-26-47.2-26c-19.8,0-30.8,9-36.6,16.6c-3.8,4.9-6.5,10.5-7.9,16.5c-0.1,0.3-0.3,0.5-0.6,0.5
		c-0.3,0.1-0.6-0.1-0.7-0.3c-0.5-0.8-13.3-19.8-36.9-10.2c-12.4,5-20,17.1-24.3,26.4C126,364.3,124,370.5,122.6,376.8L122.6,376.8z"></path><path class="st1" d="M178.6,358.7h-0.1c-0.4-0.1-0.6-0.4-0.6-0.8c0,0,0,0,0,0c0.1-0.4,2.2-10.6,11.1-15.3c6.5-3.4,14.9-3,24.9,1.4
		c0.3,0.2,0.5,0.6,0.4,0.9c-0.2,0.4-0.6,0.5-0.9,0.4c-9.6-4.2-17.6-4.6-23.7-1.4c-8.3,4.4-10.3,14.2-10.4,14.3
		C179.2,358.5,178.9,358.7,178.6,358.7z"></path><path class="st1" d="M298.1,346.2c-0.2,0-0.4-0.1-0.5-0.2c-15.1-16.7-26.4-10.1-26.8-9.8c-0.3,0.2-0.8,0.1-1-0.2c0,0,0,0,0,0
		c-0.2-0.3-0.1-0.7,0.2-1c0,0,0,0,0.1,0c0.1-0.1,12.7-7.5,28.6,10.1c0.3,0.3,0.2,0.7,0,1C298.4,346.1,298.2,346.1,298.1,346.2
		L298.1,346.2z"></path><polygon class="st0" points="265.7,274 233.5,274 229.6,258.5 269.6,258.5 	"></polygon><path class="st1" d="M265.7,274.7h-32.3c-0.3,0-0.6-0.2-0.7-0.5l-3.9-15.5c0-0.2,0-0.4,0.1-0.6c0.1-0.2,0.3-0.3,0.6-0.3h40
		c0.2,0,0.4,0.1,0.6,0.3c0.1,0.2,0.2,0.4,0.1,0.6l-3.9,15.5C266.3,274.4,266.1,274.7,265.7,274.7z M234,273.3h31.2l3.5-14.1h-38.2
		L234,273.3z"></path><path class="st0" d="M213.4,210.1c0,0-16.9,10.6-22.8,28.2s7.5,51.7,7.5,51.7l30.8-33.4L213.4,210.1z"></path><path class="st1" d="M198.2,290.6H198c-0.2,0-0.4-0.2-0.5-0.4c-0.6-1.4-13.4-34.5-7.5-52.1s22.9-28.4,23.1-28.6
		c0.2-0.1,0.4-0.1,0.6-0.1c0.2,0.1,0.4,0.2,0.4,0.4l15.5,46.5c0.1,0.2,0,0.5-0.1,0.7l-30.7,33.3
		C198.6,290.5,198.4,290.6,198.2,290.6z M213.1,211.2c-3.3,2.3-16.7,12.2-21.8,27.3c-5.1,15.4,4.9,44.3,7.1,50.1l29.7-32.2
		L213.1,211.2z"></path><path class="st0" d="M286.6,210.1c0,0,16.9,10.6,22.8,28.2s-7.5,51.7-7.5,51.7l-30.8-33.4L286.6,210.1z"></path><path class="st1" d="M301.8,290.6c-0.2,0-0.4-0.1-0.5-0.2L270.5,257c-0.2-0.2-0.2-0.5-0.1-0.7l15.5-46.5c0.1-0.2,0.2-0.4,0.4-0.4
		c0.2-0.1,0.4,0,0.6,0.1c0.2,0.1,17.2,10.9,23.1,28.6s-7,50.7-7.5,52.2c-0.1,0.2-0.3,0.4-0.5,0.4L301.8,290.6z M271.8,256.4
		l29.7,32.2c2.2-5.9,12.3-34.7,7.1-50.1c-5-15.1-18.4-25-21.8-27.3L271.8,256.4z"></path><path class="st3" d="M277.2,264.3c8.4-20.1,13.7-49.3,13.7-81.7c0-49.2-27.1-74.8-37.4-82.7c-2.3-1.8-5.5-1.8-7.8,0
		c-10.3,8-37.4,33.6-37.4,82.7c0,32.4,5.3,61.6,13.7,81.7c0,0,8.4,4.2,27.6,4.2S277.2,264.3,277.2,264.3z"></path><path class="st0" d="M245.7,99.9C233.1,110,223.2,123.1,217,138h65.3c-6.2-14.9-16.1-28-28.8-38.1C251.3,98.1,248,98.1,245.7,99.9z
		"></path><path class="st1" d="M282.3,138.7H217c-0.2,0-0.5-0.1-0.6-0.3c-0.1-0.2-0.2-0.4-0.1-0.7c6.3-15.1,16.2-28.3,29-38.4l0.4,0.6
		l-0.4-0.6c2.6-2,6.1-2,8.7,0c12.8,10.1,22.7,23.3,29,38.4c0.1,0.2,0.1,0.5-0.1,0.7C282.8,138.6,282.5,138.7,282.3,138.7z
		 M218,137.3h63.2c-6.2-14.4-15.8-27.1-28.1-36.8c-2.1-1.6-4.9-1.6-7,0l0,0C233.8,110.2,224.2,122.8,218,137.3z"></path><circle class="st0" cx="251.2" cy="174.5" r="25.2"></circle><path class="st1" d="M251.2,200.4c-14.3,0-25.9-11.6-25.9-25.9c0-14.3,11.6-25.9,25.9-25.9c14.3,0,25.9,11.6,25.9,25.9l0,0
		C277.1,188.8,265.5,200.4,251.2,200.4z M251.2,150c-13.5,0-24.5,11-24.5,24.5s11,24.5,24.5,24.5c13.5,0,24.5-11,24.5-24.5l0,0
		C275.7,161,264.8,150,251.2,150L251.2,150z"></path><circle class="st1" cx="251.2" cy="174.5" r="15.6"></circle><path class="st1" d="M251.2,190.8c-9,0-16.2-7.3-16.3-16.2s7.3-16.2,16.2-16.3s16.3,7.3,16.3,16.2v0
		C267.5,183.5,260.2,190.8,251.2,190.8z M251.2,159.7c-8.2,0-14.9,6.6-14.9,14.8c0,8.2,6.6,14.9,14.8,14.9c8.2,0,14.9-6.6,14.9-14.8
		l0,0C266.1,166.3,259.4,159.7,251.2,159.7z"></path><path class="st0" d="M263.6,173.8c-0.3,0-0.6-0.3-0.7-0.6c-1.6-10.9-11.2-10.4-11.6-10.4c-0.4,0-0.7-0.2-0.7-0.6c0,0,0,0,0-0.1
		c0-0.4,0.3-0.7,0.6-0.7c0.1,0,11.3-0.6,13.1,11.6C264.3,173.4,264,173.7,263.6,173.8L263.6,173.8z"></path><path class="st0" d="M245.8,164.3c-0.2,0-0.4-0.1-0.6-0.3c-0.2-0.3-0.2-0.7,0.1-1c0,0,0,0,0,0c0.9-0.6,1.8-1,2.9-1.2
		c0.4-0.1,0.8,0.1,0.8,0.5s-0.1,0.8-0.5,0.8c0,0-0.1,0-0.2,0c-0.8,0.1-1.6,0.4-2.2,0.9C246.1,164.2,245.9,164.3,245.8,164.3z"></path><path class="st0" d="M274.2,257.6H274c-0.4-0.1-0.6-0.5-0.4-0.9c4.4-13.8,7.9-27.9,10.5-42.2c0.1-0.4,0.4-0.6,0.8-0.6c0,0,0,0,0,0
		c0.4,0.1,0.6,0.4,0.6,0.8c0,0,0,0,0,0c-2.7,14.3-6.2,28.5-10.6,42.4C274.8,257.4,274.5,257.6,274.2,257.6z"></path></g></svg>